<svg width="360" height="60" viewBox="0 0 360 60" fill="none" xmlns="http://www.w3.org/2000/svg">
<g clip-path="url(#clip0_967_2)">
<rect width="360" height="60" rx="12" fill="white"/>
<path d="M65.4052 24V5.09091H77.9251V8.38707H69.4031V12.8928H77.0941V16.1889H69.4031V24H65.4052ZM80.5403 24V9.81818H84.4735V24H80.5403ZM82.5162 7.99006C81.9314 7.99006 81.4297 7.79616 81.0112 7.40838C80.5988 7.01444 80.3926 6.54356 80.3926 5.99574C80.3926 5.45407 80.5988 4.98935 81.0112 4.60156C81.4297 4.20762 81.9314 4.01065 82.5162 4.01065C83.1009 4.01065 83.5995 4.20762 84.0119 4.60156C84.4305 4.98935 84.6397 5.45407 84.6397 5.99574C84.6397 6.54356 84.4305 7.01444 84.0119 7.40838C83.5995 7.79616 83.1009 7.99006 82.5162 7.99006ZM91.5575 15.8011V24H87.6243V9.81818H91.3729V12.3203H91.5391C91.853 11.4955 92.3793 10.843 93.1179 10.3629C93.8565 9.87666 94.7521 9.63352 95.8047 9.63352C96.7895 9.63352 97.6482 9.84896 98.3807 10.2798C99.1132 10.7107 99.6825 11.3262 100.089 12.1264C100.495 12.9205 100.698 13.8684 100.698 14.9702V24H96.7649V15.6719C96.7711 14.804 96.5495 14.1269 96.1001 13.6406C95.6508 13.1482 95.0322 12.902 94.2443 12.902C93.715 12.902 93.2472 13.0159 92.8409 13.2436C92.4408 13.4714 92.1269 13.8037 91.8991 14.2408C91.6776 14.6716 91.5637 15.1918 91.5575 15.8011ZM107.842 24.2678C106.937 24.2678 106.131 24.1108 105.423 23.7969C104.715 23.4768 104.155 23.0059 103.743 22.3842C103.336 21.7564 103.133 20.9747 103.133 20.0391C103.133 19.2512 103.278 18.5895 103.567 18.054C103.857 17.5185 104.251 17.0876 104.749 16.7614C105.248 16.4351 105.814 16.1889 106.448 16.0227C107.088 15.8565 107.759 15.7396 108.461 15.6719C109.286 15.5857 109.95 15.5057 110.455 15.4318C110.96 15.3518 111.326 15.2348 111.554 15.081C111.782 14.9271 111.895 14.6993 111.895 14.3977V14.3423C111.895 13.7576 111.711 13.3052 111.341 12.9851C110.978 12.665 110.461 12.505 109.79 12.505C109.082 12.505 108.519 12.6619 108.101 12.9759C107.682 13.2836 107.405 13.6714 107.27 14.1392L103.632 13.8438C103.817 12.982 104.18 12.2372 104.721 11.6094C105.263 10.9754 105.962 10.4891 106.817 10.1506C107.679 9.80587 108.676 9.63352 109.809 9.63352C110.597 9.63352 111.351 9.72585 112.071 9.91051C112.797 10.0952 113.44 10.3814 114.001 10.7692C114.567 11.157 115.013 11.6555 115.339 12.2649C115.666 12.8681 115.829 13.5914 115.829 14.4347V24H112.099V22.0334H111.988C111.76 22.4766 111.455 22.8674 111.074 23.206C110.692 23.5384 110.233 23.8 109.698 23.9908C109.162 24.1754 108.544 24.2678 107.842 24.2678ZM108.969 21.5533C109.547 21.5533 110.058 21.4394 110.501 21.2116C110.944 20.9777 111.292 20.6638 111.545 20.2699C111.797 19.8759 111.923 19.4297 111.923 18.9311V17.4261C111.8 17.5062 111.631 17.58 111.415 17.6477C111.206 17.7093 110.969 17.7678 110.704 17.8232C110.44 17.8724 110.175 17.9186 109.91 17.9616C109.646 17.9986 109.406 18.0324 109.19 18.0632C108.729 18.1309 108.325 18.2386 107.981 18.3864C107.636 18.5341 107.368 18.7341 107.177 18.9865C106.987 19.2327 106.891 19.5405 106.891 19.9098C106.891 20.4453 107.085 20.8546 107.473 21.1378C107.867 21.4148 108.365 21.5533 108.969 21.5533ZM122.813 15.8011V24H118.88V9.81818H122.629V12.3203H122.795C123.109 11.4955 123.635 10.843 124.374 10.3629C125.112 9.87666 126.008 9.63352 127.061 9.63352C128.045 9.63352 128.904 9.84896 129.637 10.2798C130.369 10.7107 130.938 11.3262 131.345 12.1264C131.751 12.9205 131.954 13.8684 131.954 14.9702V24H128.021V15.6719C128.027 14.804 127.805 14.1269 127.356 13.6406C126.907 13.1482 126.288 12.902 125.5 12.902C124.971 12.902 124.503 13.0159 124.097 13.2436C123.697 13.4714 123.383 13.8037 123.155 14.2408C122.933 14.6716 122.82 15.1918 122.813 15.8011ZM141.462 24.277C140.009 24.277 138.759 23.9692 137.713 23.3537C136.673 22.732 135.873 21.8703 135.312 20.7685C134.759 19.6667 134.482 18.3987 134.482 16.9645C134.482 15.5118 134.762 14.2377 135.322 13.142C135.888 12.0402 136.691 11.1816 137.732 10.5661C138.772 9.94437 140.009 9.63352 141.443 9.63352C142.68 9.63352 143.764 9.85819 144.693 10.3075C145.623 10.7569 146.358 11.3878 146.9 12.2003C147.442 13.0128 147.74 13.9669 147.795 15.0625H144.084C143.979 14.3546 143.702 13.7853 143.253 13.3544C142.81 12.9174 142.228 12.6989 141.508 12.6989C140.898 12.6989 140.366 12.8651 139.911 13.1974C139.461 13.5237 139.11 14.0007 138.858 14.6286C138.606 15.2564 138.479 16.0166 138.479 16.9091C138.479 17.8139 138.603 18.5833 138.849 19.2173C139.101 19.8513 139.455 20.3345 139.911 20.6669C140.366 20.9993 140.898 21.1655 141.508 21.1655C141.957 21.1655 142.36 21.0732 142.717 20.8885C143.08 20.7038 143.379 20.4361 143.613 20.0852C143.853 19.7282 144.01 19.3004 144.084 18.8018H147.795C147.734 19.8852 147.438 20.8393 146.909 21.6641C146.386 22.4827 145.663 23.1229 144.739 23.5845C143.816 24.0462 142.723 24.277 141.462 24.277ZM150.314 24V9.81818H154.247V24H150.314ZM152.29 7.99006C151.705 7.99006 151.203 7.79616 150.785 7.40838C150.372 7.01444 150.166 6.54356 150.166 5.99574C150.166 5.45407 150.372 4.98935 150.785 4.60156C151.203 4.20762 151.705 4.01065 152.29 4.01065C152.874 4.01065 153.373 4.20762 153.785 4.60156C154.204 4.98935 154.413 5.45407 154.413 5.99574C154.413 6.54356 154.204 7.01444 153.785 7.40838C153.373 7.79616 152.874 7.99006 152.29 7.99006ZM161.442 24.2678C160.537 24.2678 159.731 24.1108 159.023 23.7969C158.315 23.4768 157.755 23.0059 157.342 22.3842C156.936 21.7564 156.733 20.9747 156.733 20.0391C156.733 19.2512 156.878 18.5895 157.167 18.054C157.456 17.5185 157.85 17.0876 158.349 16.7614C158.847 16.4351 159.414 16.1889 160.048 16.0227C160.688 15.8565 161.359 15.7396 162.06 15.6719C162.885 15.5857 163.55 15.5057 164.055 15.4318C164.559 15.3518 164.926 15.2348 165.153 15.081C165.381 14.9271 165.495 14.6993 165.495 14.3977V14.3423C165.495 13.7576 165.31 13.3052 164.941 12.9851C164.578 12.665 164.061 12.505 163.39 12.505C162.682 12.505 162.119 12.6619 161.7 12.9759C161.282 13.2836 161.005 13.6714 160.869 14.1392L157.232 13.8438C157.416 12.982 157.779 12.2372 158.321 11.6094C158.863 10.9754 159.561 10.4891 160.417 10.1506C161.279 9.80587 162.276 9.63352 163.408 9.63352C164.196 9.63352 164.95 9.72585 165.67 9.91051C166.397 10.0952 167.04 10.3814 167.6 10.7692C168.166 11.157 168.613 11.6555 168.939 12.2649C169.265 12.8681 169.428 13.5914 169.428 14.4347V24H165.698V22.0334H165.587C165.36 22.4766 165.055 22.8674 164.673 23.206C164.292 23.5384 163.833 23.8 163.298 23.9908C162.762 24.1754 162.143 24.2678 161.442 24.2678ZM162.568 21.5533C163.147 21.5533 163.658 21.4394 164.101 21.2116C164.544 20.9777 164.892 20.6638 165.144 20.2699C165.397 19.8759 165.523 19.4297 165.523 18.9311V17.4261C165.4 17.5062 165.23 17.58 165.015 17.6477C164.806 17.7093 164.569 17.7678 164.304 17.8232C164.039 17.8724 163.775 17.9186 163.51 17.9616C163.245 17.9986 163.005 18.0324 162.79 18.0632C162.328 18.1309 161.925 18.2386 161.58 18.3864C161.236 18.5341 160.968 18.7341 160.777 18.9865C160.586 19.2327 160.491 19.5405 160.491 19.9098C160.491 20.4453 160.685 20.8546 161.072 21.1378C161.466 21.4148 161.965 21.5533 162.568 21.5533ZM176.413 5.09091V24H172.48V5.09091H176.413ZM185.655 24V5.09091H198.175V8.38707H189.653V12.8928H197.344V16.1889H189.653V24H185.655ZM200.562 24V9.81818H204.375V12.2926H204.523C204.781 11.4124 205.215 10.7476 205.825 10.2983C206.434 9.8428 207.136 9.61506 207.93 9.61506C208.127 9.61506 208.339 9.62737 208.567 9.65199C208.795 9.67661 208.995 9.71046 209.167 9.75355V13.2436C208.982 13.1882 208.727 13.139 208.401 13.0959C208.074 13.0528 207.776 13.0312 207.505 13.0312C206.926 13.0312 206.409 13.1574 205.954 13.4098C205.504 13.656 205.147 14.0007 204.883 14.4439C204.624 14.8871 204.495 15.398 204.495 15.9766V24H200.562ZM217.003 24.277C215.545 24.277 214.289 23.9815 213.236 23.3906C212.19 22.7936 211.384 21.9503 210.817 20.8608C210.251 19.7652 209.968 18.4695 209.968 16.9737C209.968 15.5149 210.251 14.2346 210.817 13.1328C211.384 12.031 212.181 11.1723 213.209 10.5568C214.243 9.94129 215.455 9.63352 216.846 9.63352C217.782 9.63352 218.653 9.78433 219.459 10.0859C220.272 10.3814 220.98 10.8277 221.583 11.4247C222.192 12.0218 222.666 12.7727 223.005 13.6776C223.343 14.5762 223.513 15.6288 223.513 16.8352V17.9155H211.537V15.478H219.81C219.81 14.9117 219.687 14.41 219.441 13.973C219.195 13.536 218.853 13.1944 218.416 12.9482C217.985 12.6958 217.483 12.5696 216.911 12.5696C216.314 12.5696 215.785 12.7081 215.323 12.9851C214.867 13.2559 214.51 13.6222 214.252 14.0838C213.993 14.5393 213.861 15.0471 213.855 15.6072V17.9247C213.855 18.6264 213.984 19.2327 214.243 19.7436C214.507 20.2545 214.88 20.6484 215.36 20.9254C215.84 21.2024 216.409 21.3409 217.068 21.3409C217.505 21.3409 217.905 21.2794 218.268 21.1562C218.631 21.0331 218.942 20.8485 219.201 20.6023C219.459 20.3561 219.656 20.0545 219.792 19.6974L223.43 19.9375C223.245 20.8116 222.866 21.5748 222.294 22.2273C221.728 22.8736 220.995 23.3783 220.096 23.7415C219.204 24.0985 218.173 24.277 217.003 24.277ZM232.542 24.277C231.084 24.277 229.828 23.9815 228.775 23.3906C227.729 22.7936 226.923 21.9503 226.356 20.8608C225.79 19.7652 225.507 18.4695 225.507 16.9737C225.507 15.5149 225.79 14.2346 226.356 13.1328C226.923 12.031 227.72 11.1723 228.748 10.5568C229.782 9.94129 230.994 9.63352 232.385 9.63352C233.321 9.63352 234.192 9.78433 234.998 10.0859C235.811 10.3814 236.519 10.8277 237.122 11.4247C237.731 12.0218 238.205 12.7727 238.544 13.6776C238.882 14.5762 239.052 15.6288 239.052 16.8352V17.9155H227.077V15.478H235.349C235.349 14.9117 235.226 14.41 234.98 13.973C234.734 13.536 234.392 13.1944 233.955 12.9482C233.524 12.6958 233.023 12.5696 232.45 12.5696C231.853 12.5696 231.324 12.7081 230.862 12.9851C230.407 13.2559 230.05 13.6222 229.791 14.0838C229.532 14.5393 229.4 15.0471 229.394 15.6072V17.9247C229.394 18.6264 229.523 19.2327 229.782 19.7436C230.046 20.2545 230.419 20.6484 230.899 20.9254C231.379 21.2024 231.948 21.3409 232.607 21.3409C233.044 21.3409 233.444 21.2794 233.807 21.1562C234.171 21.0331 234.481 20.8485 234.74 20.6023C234.998 20.3561 235.195 20.0545 235.331 19.6974L238.969 19.9375C238.784 20.8116 238.405 21.5748 237.833 22.2273C237.267 22.8736 236.534 23.3783 235.635 23.7415C234.743 24.0985 233.712 24.277 232.542 24.277ZM246.844 24.2308C245.767 24.2308 244.791 23.9538 243.917 23.3999C243.05 22.8397 242.36 22.018 241.849 20.9347C241.345 19.8452 241.092 18.5095 241.092 16.9276C241.092 15.3026 241.354 13.9515 241.877 12.8743C242.4 11.791 243.096 10.9815 243.964 10.446C244.838 9.90436 245.795 9.63352 246.835 9.63352C247.629 9.63352 248.291 9.76894 248.82 10.0398C249.356 10.3045 249.787 10.6368 250.113 11.0369C250.445 11.4309 250.698 11.8187 250.87 12.2003H250.99V5.09091H254.914V24H251.036V21.7287H250.87C250.685 22.1226 250.424 22.5135 250.085 22.9013C249.753 23.2829 249.319 23.5999 248.783 23.8523C248.254 24.1046 247.608 24.2308 246.844 24.2308ZM248.091 21.1009C248.725 21.1009 249.26 20.9285 249.697 20.5838C250.14 20.233 250.479 19.7436 250.713 19.1158C250.953 18.4879 251.073 17.7524 251.073 16.9091C251.073 16.0658 250.956 15.3333 250.722 14.7116C250.488 14.09 250.15 13.6098 249.706 13.2713C249.263 12.9328 248.725 12.7635 248.091 12.7635C247.444 12.7635 246.9 12.9389 246.456 13.2898C246.013 13.6406 245.678 14.1269 245.45 14.7486C245.222 15.3703 245.108 16.0904 245.108 16.9091C245.108 17.7339 245.222 18.4633 245.45 19.0973C245.684 19.7251 246.019 20.2176 246.456 20.5746C246.9 20.9254 247.444 21.1009 248.091 21.1009ZM264.555 24.277C263.121 24.277 261.881 23.9723 260.835 23.3629C259.794 22.7474 258.991 21.8918 258.425 20.7962C257.858 19.6944 257.575 18.4171 257.575 16.9645C257.575 15.4995 257.858 14.2192 258.425 13.1236C258.991 12.0218 259.794 11.1662 260.835 10.5568C261.881 9.94129 263.121 9.63352 264.555 9.63352C265.99 9.63352 267.227 9.94129 268.267 10.5568C269.313 11.1662 270.12 12.0218 270.686 13.1236C271.252 14.2192 271.536 15.4995 271.536 16.9645C271.536 18.4171 271.252 19.6944 270.686 20.7962C270.12 21.8918 269.313 22.7474 268.267 23.3629C267.227 23.9723 265.99 24.277 264.555 24.277ZM264.574 21.2301C265.226 21.2301 265.771 21.0455 266.208 20.6761C266.645 20.3007 266.974 19.7898 267.196 19.1435C267.424 18.4972 267.538 17.7616 267.538 16.9368C267.538 16.112 267.424 15.3764 267.196 14.7301C266.974 14.0838 266.645 13.5729 266.208 13.1974C265.771 12.822 265.226 12.6342 264.574 12.6342C263.915 12.6342 263.361 12.822 262.912 13.1974C262.469 13.5729 262.133 14.0838 261.906 14.7301C261.684 15.3764 261.573 16.112 261.573 16.9368C261.573 17.7616 261.684 18.4972 261.906 19.1435C262.133 19.7898 262.469 20.3007 262.912 20.6761C263.361 21.0455 263.915 21.2301 264.574 21.2301ZM274.093 24V9.81818H277.842V12.3203H278.008C278.303 11.4893 278.796 10.8338 279.485 10.3537C280.174 9.87358 280.999 9.63352 281.96 9.63352C282.932 9.63352 283.76 9.87666 284.443 10.3629C285.126 10.843 285.582 11.4955 285.81 12.3203H285.957C286.247 11.5078 286.77 10.8584 287.527 10.3722C288.29 9.87973 289.192 9.63352 290.232 9.63352C291.556 9.63352 292.63 10.0552 293.455 10.8984C294.286 11.7356 294.701 12.9235 294.701 14.4624V24H290.777V15.2379C290.777 14.45 290.568 13.8591 290.149 13.4652C289.731 13.0713 289.207 12.8743 288.58 12.8743C287.866 12.8743 287.308 13.102 286.908 13.5575C286.508 14.0069 286.308 14.6009 286.308 15.3395V24H282.495V15.1548C282.495 14.4593 282.295 13.9053 281.895 13.4929C281.501 13.0805 280.981 12.8743 280.335 12.8743C279.897 12.8743 279.504 12.9851 279.153 13.2067C278.808 13.4221 278.534 13.7268 278.331 14.1207C278.128 14.5085 278.026 14.964 278.026 15.4872V24H274.093Z" fill="black"/>
<path d="M78.7644 40.9091H81.1614L85.329 51.0852H85.4824L89.65 40.9091H92.0471V54H90.1678V44.527H90.0463L86.1855 53.9808H84.6259L80.7651 44.5206H80.6436V54H78.7644V40.9091ZM97.6225 54.2173C97.0004 54.2173 96.4379 54.1023 95.935 53.8722C95.4322 53.6378 95.0337 53.299 94.7397 52.8558C94.4499 52.4126 94.305 51.8693 94.305 51.2259C94.305 50.6719 94.4116 50.2159 94.6246 49.858C94.8377 49.5 95.1254 49.2166 95.4876 49.0078C95.8498 48.799 96.2546 48.6413 96.7021 48.5348C97.1495 48.4283 97.6055 48.3473 98.07 48.2919C98.658 48.2237 99.1353 48.1683 99.5018 48.1257C99.8683 48.0788 100.135 48.0043 100.301 47.902C100.467 47.7997 100.55 47.6335 100.55 47.4034V47.3587C100.55 46.8004 100.392 46.3679 100.077 46.0611C99.766 45.7543 99.3015 45.6009 98.6836 45.6009C98.0401 45.6009 97.533 45.7436 97.1623 46.0291C96.7958 46.3104 96.5423 46.6236 96.4016 46.9688L94.6055 46.5597C94.8185 45.9631 95.1296 45.4815 95.5387 45.1151C95.9521 44.7443 96.4272 44.4759 96.9641 44.3097C97.5011 44.1392 98.0657 44.054 98.658 44.054C99.0501 44.054 99.4656 44.1009 99.9045 44.1946C100.348 44.2841 100.761 44.4503 101.145 44.6932C101.532 44.9361 101.85 45.2834 102.097 45.7351C102.344 46.1825 102.468 46.7642 102.468 47.4801V54H100.601V52.6577H100.525C100.401 52.9048 100.216 53.1477 99.9684 53.3864C99.7212 53.625 99.4038 53.8232 99.016 53.9808C98.6282 54.1385 98.1637 54.2173 97.6225 54.2173ZM98.038 52.6832C98.5664 52.6832 99.0181 52.5788 99.3931 52.37C99.7724 52.1612 100.06 51.8885 100.256 51.5518C100.456 51.2109 100.556 50.8466 100.556 50.4588V49.1932C100.488 49.2614 100.356 49.3253 100.16 49.3849C99.9684 49.4403 99.7489 49.4893 99.5018 49.532C99.2546 49.5703 99.0138 49.6065 98.7795 49.6406C98.5451 49.6705 98.3491 49.696 98.1914 49.7173C97.8207 49.7642 97.4819 49.843 97.1751 49.9538C96.8725 50.0646 96.6296 50.2244 96.4464 50.4332C96.2674 50.6378 96.1779 50.9105 96.1779 51.2514C96.1779 51.7244 96.3526 52.0824 96.7021 52.3253C97.0515 52.5639 97.4968 52.6832 98.038 52.6832ZM106.771 50.6697L106.758 48.3366H107.091L111.003 44.1818H113.291L108.829 48.9119H108.529L106.771 50.6697ZM105.013 54V40.9091H106.925V54H105.013ZM111.214 54L107.698 49.3338L109.015 47.9979L113.559 54H111.214ZM118.86 54.1982C117.893 54.1982 117.06 53.9915 116.361 53.5781C115.666 53.1605 115.129 52.5746 114.75 51.8203C114.375 51.0618 114.188 50.1733 114.188 49.1548C114.188 48.1491 114.375 47.2628 114.75 46.4957C115.129 45.7287 115.658 45.13 116.335 44.6996C117.017 44.2692 117.814 44.054 118.726 44.054C119.28 44.054 119.817 44.1456 120.337 44.3288C120.857 44.5121 121.323 44.7997 121.737 45.1918C122.15 45.5838 122.476 46.093 122.714 46.7195C122.953 47.3416 123.072 48.098 123.072 48.9886V49.6662H115.268V48.2344H121.2C121.2 47.7315 121.097 47.2862 120.893 46.8984C120.688 46.5064 120.401 46.1974 120.03 45.9716C119.663 45.7457 119.233 45.6328 118.739 45.6328C118.202 45.6328 117.733 45.7649 117.332 46.0291C116.936 46.2891 116.629 46.63 116.412 47.0518C116.199 47.4695 116.092 47.9233 116.092 48.4134V49.532C116.092 50.1882 116.207 50.7464 116.438 51.2067C116.672 51.6669 116.998 52.0185 117.415 52.2614C117.833 52.5 118.321 52.6193 118.879 52.6193C119.241 52.6193 119.572 52.5682 119.87 52.4659C120.168 52.3594 120.426 52.2017 120.643 51.9929C120.861 51.7841 121.027 51.5263 121.142 51.2195L122.951 51.5455C122.806 52.0781 122.546 52.5447 122.171 52.9453C121.8 53.3416 121.334 53.6506 120.771 53.8722C120.213 54.0895 119.576 54.1982 118.86 54.1982ZM137.25 44.348C137.182 43.7429 136.901 43.2741 136.406 42.9418C135.912 42.6051 135.29 42.4368 134.54 42.4368C134.003 42.4368 133.538 42.522 133.146 42.6925C132.754 42.8587 132.45 43.0888 132.232 43.3828C132.019 43.6726 131.913 44.0028 131.913 44.3736C131.913 44.6847 131.985 44.9531 132.13 45.179C132.279 45.4048 132.473 45.5945 132.712 45.7479C132.955 45.897 133.214 46.0227 133.491 46.125C133.768 46.223 134.035 46.304 134.29 46.3679L135.569 46.7003C135.987 46.8026 136.415 46.9411 136.854 47.1158C137.293 47.2905 137.7 47.5206 138.075 47.8061C138.45 48.0916 138.752 48.4453 138.982 48.8672C139.217 49.2891 139.334 49.794 139.334 50.3821C139.334 51.1236 139.142 51.782 138.759 52.3572C138.379 52.9325 137.827 53.3864 137.103 53.7188C136.383 54.0511 135.511 54.2173 134.489 54.2173C133.509 54.2173 132.661 54.0618 131.945 53.7507C131.229 53.4396 130.668 52.9986 130.263 52.4276C129.859 51.8523 129.635 51.1705 129.592 50.3821H131.574C131.612 50.8551 131.766 51.2493 132.034 51.5646C132.307 51.8757 132.654 52.108 133.076 52.2614C133.502 52.4105 133.969 52.4851 134.476 52.4851C135.034 52.4851 135.531 52.3977 135.965 52.223C136.404 52.044 136.749 51.7969 137.001 51.4815C137.252 51.1619 137.378 50.7891 137.378 50.3629C137.378 49.9751 137.267 49.6577 137.045 49.4105C136.828 49.1634 136.532 48.9588 136.157 48.7969C135.786 48.6349 135.366 48.4922 134.898 48.3686L133.351 47.9467C132.303 47.6612 131.472 47.2415 130.858 46.6875C130.249 46.1335 129.944 45.4006 129.944 44.4886C129.944 43.7344 130.148 43.076 130.558 42.5135C130.967 41.951 131.521 41.5142 132.219 41.2031C132.918 40.8878 133.707 40.7301 134.585 40.7301C135.471 40.7301 136.253 40.8857 136.93 41.1967C137.612 41.5078 138.149 41.9361 138.541 42.4815C138.933 43.0227 139.138 43.6449 139.155 44.348H137.25ZM141.541 54V44.1818H143.452V54H141.541ZM142.506 42.6669C142.173 42.6669 141.888 42.5561 141.649 42.3345C141.415 42.1087 141.298 41.8402 141.298 41.5291C141.298 41.2138 141.415 40.9453 141.649 40.7237C141.888 40.4979 142.173 40.3849 142.506 40.3849C142.838 40.3849 143.122 40.4979 143.356 40.7237C143.595 40.9453 143.714 41.2138 143.714 41.5291C143.714 41.8402 143.595 42.1087 143.356 42.3345C143.122 42.5561 142.838 42.6669 142.506 42.6669ZM147.532 44.1818L149.699 48.0043L151.885 44.1818H153.975L150.913 49.0909L154 54H151.91L149.699 50.331L147.493 54H145.397L148.452 49.0909L145.435 44.1818H147.532ZM160.854 54V40.9091H168.972V42.6094H162.829V46.598H168.39V48.2919H162.829V54H160.854ZM171.248 54V44.1818H173.159V54H171.248ZM172.213 42.6669C171.881 42.6669 171.595 42.5561 171.356 42.3345C171.122 42.1087 171.005 41.8402 171.005 41.5291C171.005 41.2138 171.122 40.9453 171.356 40.7237C171.595 40.4979 171.881 40.3849 172.213 40.3849C172.545 40.3849 172.829 40.4979 173.063 40.7237C173.302 40.9453 173.421 41.2138 173.421 41.5291C173.421 41.8402 173.302 42.1087 173.063 42.3345C172.829 42.5561 172.545 42.6669 172.213 42.6669ZM179.847 57.8864C179.067 57.8864 178.396 57.7841 177.833 57.5795C177.275 57.375 176.819 57.1044 176.465 56.7678C176.112 56.4311 175.847 56.0625 175.673 55.6619L177.315 54.9844C177.43 55.1719 177.584 55.37 177.776 55.5788C177.972 55.7919 178.236 55.973 178.568 56.1222C178.905 56.2713 179.337 56.3459 179.866 56.3459C180.59 56.3459 181.189 56.169 181.662 55.8153C182.135 55.4659 182.371 54.9077 182.371 54.1406V52.2102H182.25C182.135 52.419 181.969 52.6513 181.751 52.907C181.538 53.1626 181.244 53.3842 180.869 53.5717C180.494 53.7592 180.006 53.853 179.406 53.853C178.63 53.853 177.931 53.6719 177.309 53.3097C176.691 52.9432 176.201 52.4041 175.839 51.6925C175.481 50.9766 175.302 50.0966 175.302 49.0526C175.302 48.0085 175.479 47.1136 175.832 46.3679C176.19 45.6222 176.68 45.0511 177.303 44.6548C177.925 44.2543 178.63 44.054 179.418 44.054C180.028 44.054 180.52 44.1562 180.895 44.3608C181.27 44.5611 181.562 44.7955 181.771 45.0639C181.984 45.3324 182.148 45.5689 182.263 45.7734H182.403V44.1818H184.276V54.2173C184.276 55.0611 184.08 55.7536 183.688 56.2947C183.296 56.8359 182.766 57.2365 182.097 57.4964C181.432 57.7564 180.682 57.8864 179.847 57.8864ZM179.827 52.2678C180.377 52.2678 180.842 52.1399 181.221 51.8842C181.604 51.6243 181.894 51.2536 182.09 50.772C182.29 50.2862 182.391 49.7045 182.391 49.027C182.391 48.3665 182.293 47.7848 182.097 47.282C181.901 46.7791 181.613 46.3871 181.234 46.1058C180.854 45.8203 180.386 45.6776 179.827 45.6776C179.252 45.6776 178.773 45.8267 178.389 46.125C178.006 46.419 177.716 46.8196 177.52 47.3267C177.328 47.8338 177.232 48.4006 177.232 49.027C177.232 49.6705 177.33 50.2351 177.526 50.7209C177.722 51.2067 178.012 51.5859 178.396 51.8587C178.783 52.1314 179.261 52.2678 179.827 52.2678ZM193.059 49.9283V44.1818H194.977V54H193.097V52.2997H192.995C192.769 52.8239 192.407 53.2607 191.908 53.6101C191.414 53.9553 190.798 54.1278 190.061 54.1278C189.43 54.1278 188.872 53.9893 188.386 53.7124C187.905 53.4311 187.526 53.0156 187.249 52.4659C186.976 51.9162 186.839 51.2365 186.839 50.4268V44.1818H188.751V50.1967C188.751 50.8658 188.936 51.3984 189.307 51.7947C189.678 52.1911 190.159 52.3892 190.751 52.3892C191.109 52.3892 191.465 52.2997 191.819 52.1207C192.177 51.9418 192.473 51.6712 192.707 51.3089C192.946 50.9467 193.063 50.4865 193.059 49.9283ZM197.545 54V44.1818H199.392V45.7415H199.494C199.673 45.2131 199.988 44.7976 200.44 44.495C200.896 44.1882 201.412 44.0348 201.987 44.0348C202.106 44.0348 202.247 44.0391 202.409 44.0476C202.575 44.0561 202.705 44.0668 202.799 44.0795V45.9077C202.722 45.8864 202.586 45.8629 202.39 45.8374C202.194 45.8075 201.998 45.7926 201.802 45.7926C201.35 45.7926 200.947 45.8885 200.594 46.0803C200.244 46.2678 199.967 46.5298 199.763 46.8665C199.558 47.1989 199.456 47.5781 199.456 48.0043V54H197.545ZM208.333 54.1982C207.365 54.1982 206.532 53.9915 205.833 53.5781C205.139 53.1605 204.602 52.5746 204.223 51.8203C203.848 51.0618 203.66 50.1733 203.66 49.1548C203.66 48.1491 203.848 47.2628 204.223 46.4957C204.602 45.7287 205.13 45.13 205.808 44.6996C206.49 44.2692 207.287 44.054 208.199 44.054C208.752 44.054 209.289 44.1456 209.809 44.3288C210.329 44.5121 210.796 44.7997 211.209 45.1918C211.623 45.5838 211.949 46.093 212.187 46.7195C212.426 47.3416 212.545 48.098 212.545 48.9886V49.6662H204.74V48.2344H210.672C210.672 47.7315 210.57 47.2862 210.365 46.8984C210.161 46.5064 209.873 46.1974 209.502 45.9716C209.136 45.7457 208.706 45.6328 208.211 45.6328C207.674 45.6328 207.206 45.7649 206.805 46.0291C206.409 46.2891 206.102 46.63 205.885 47.0518C205.672 47.4695 205.565 47.9233 205.565 48.4134V49.532C205.565 50.1882 205.68 50.7464 205.91 51.2067C206.145 51.6669 206.471 52.0185 206.888 52.2614C207.306 52.5 207.794 52.6193 208.352 52.6193C208.714 52.6193 209.044 52.5682 209.343 52.4659C209.641 52.3594 209.899 52.2017 210.116 51.9929C210.333 51.7841 210.5 51.5263 210.615 51.2195L212.424 51.5455C212.279 52.0781 212.019 52.5447 211.644 52.9453C211.273 53.3416 210.806 53.6506 210.244 53.8722C209.686 54.0895 209.049 54.1982 208.333 54.1982ZM222.023 46.5788L220.291 46.8857C220.218 46.6641 220.103 46.4531 219.945 46.2528C219.792 46.0526 219.583 45.8885 219.319 45.7607C219.055 45.6328 218.725 45.5689 218.328 45.5689C217.787 45.5689 217.335 45.6903 216.973 45.9332C216.611 46.1719 216.43 46.4808 216.43 46.8601C216.43 47.1882 216.551 47.4524 216.794 47.6527C217.037 47.853 217.429 48.017 217.97 48.1449L219.53 48.5028C220.433 48.7116 221.107 49.0334 221.55 49.468C221.993 49.9027 222.215 50.4673 222.215 51.1619C222.215 51.75 222.044 52.2741 221.703 52.7344C221.367 53.1903 220.896 53.5483 220.291 53.8082C219.69 54.0682 218.993 54.1982 218.2 54.1982C217.101 54.1982 216.204 53.9638 215.509 53.495C214.815 53.022 214.389 52.3509 214.231 51.4815L216.078 51.2003C216.193 51.6818 216.43 52.0462 216.788 52.2933C217.146 52.5362 217.612 52.6577 218.188 52.6577C218.814 52.6577 219.315 52.5277 219.69 52.2678C220.065 52.0036 220.252 51.6818 220.252 51.3026C220.252 50.9957 220.137 50.7379 219.907 50.5291C219.681 50.3203 219.334 50.1626 218.865 50.0561L217.203 49.6918C216.287 49.483 215.61 49.1506 215.171 48.6946C214.736 48.2386 214.519 47.6612 214.519 46.9624C214.519 46.3828 214.681 45.8757 215.004 45.4411C215.328 45.0064 215.776 44.6676 216.347 44.4247C216.918 44.1776 217.572 44.054 218.309 44.054C219.37 44.054 220.205 44.2841 220.815 44.7443C221.424 45.2003 221.827 45.8118 222.023 46.5788ZM240.605 47.4545C240.605 48.8523 240.349 50.054 239.838 51.0597C239.326 52.0611 238.625 52.8324 237.735 53.3736C236.848 53.9105 235.84 54.179 234.711 54.179C233.578 54.179 232.566 53.9105 231.675 53.3736C230.789 52.8324 230.09 52.0589 229.578 51.0533C229.067 50.0476 228.811 48.848 228.811 47.4545C228.811 46.0568 229.067 44.8572 229.578 43.8558C230.09 42.8501 230.789 42.0788 231.675 41.5419C232.566 41.0007 233.578 40.7301 234.711 40.7301C235.84 40.7301 236.848 41.0007 237.735 41.5419C238.625 42.0788 239.326 42.8501 239.838 43.8558C240.349 44.8572 240.605 46.0568 240.605 47.4545ZM238.649 47.4545C238.649 46.3892 238.476 45.4922 238.131 44.7635C237.79 44.0305 237.321 43.4766 236.725 43.1016C236.132 42.7223 235.461 42.5327 234.711 42.5327C233.957 42.5327 233.284 42.7223 232.691 43.1016C232.099 43.4766 231.63 44.0305 231.285 44.7635C230.944 45.4922 230.774 46.3892 230.774 47.4545C230.774 48.5199 230.944 49.419 231.285 50.152C231.63 50.8807 232.099 51.4347 232.691 51.8139C233.284 52.1889 233.957 52.3764 234.711 52.3764C235.461 52.3764 236.132 52.1889 236.725 51.8139C237.321 51.4347 237.79 50.8807 238.131 50.152C238.476 49.419 238.649 48.5199 238.649 47.4545ZM244.825 48.1705V54H242.914V44.1818H244.748V45.7798H244.87C245.096 45.2599 245.449 44.8423 245.931 44.527C246.417 44.2116 247.028 44.054 247.765 44.054C248.434 44.054 249.02 44.1946 249.523 44.4759C250.026 44.7528 250.416 45.1662 250.693 45.7159C250.97 46.2656 251.108 46.9453 251.108 47.755V54H249.197V47.9851C249.197 47.2734 249.012 46.7173 248.641 46.3168C248.27 45.9119 247.761 45.7095 247.113 45.7095C246.67 45.7095 246.276 45.8054 245.931 45.9972C245.59 46.1889 245.319 46.4702 245.119 46.8409C244.923 47.2074 244.825 47.6506 244.825 48.1705ZM255.583 40.9091V54H253.672V40.9091H255.583ZM258.154 54V44.1818H260.065V54H258.154ZM259.119 42.6669C258.787 42.6669 258.501 42.5561 258.263 42.3345C258.028 42.1087 257.911 41.8402 257.911 41.5291C257.911 41.2138 258.028 40.9453 258.263 40.7237C258.501 40.4979 258.787 40.3849 259.119 40.3849C259.452 40.3849 259.735 40.4979 259.969 40.7237C260.208 40.9453 260.327 41.2138 260.327 41.5291C260.327 41.8402 260.208 42.1087 259.969 42.3345C259.735 42.5561 259.452 42.6669 259.119 42.6669ZM264.548 48.1705V54H262.636V44.1818H264.471V45.7798H264.592C264.818 45.2599 265.172 44.8423 265.653 44.527C266.139 44.2116 266.751 44.054 267.488 44.054C268.157 44.054 268.743 44.1946 269.246 44.4759C269.749 44.7528 270.138 45.1662 270.415 45.7159C270.692 46.2656 270.831 46.9453 270.831 47.755V54H268.92V47.9851C268.92 47.2734 268.734 46.7173 268.364 46.3168C267.993 45.9119 267.484 45.7095 266.836 45.7095C266.393 45.7095 265.999 45.8054 265.653 45.9972C265.313 46.1889 265.042 46.4702 264.842 46.8409C264.646 47.2074 264.548 47.6506 264.548 48.1705ZM277.626 54.1982C276.658 54.1982 275.825 53.9915 275.126 53.5781C274.432 53.1605 273.895 52.5746 273.516 51.8203C273.141 51.0618 272.953 50.1733 272.953 49.1548C272.953 48.1491 273.141 47.2628 273.516 46.4957C273.895 45.7287 274.423 45.13 275.101 44.6996C275.783 44.2692 276.58 44.054 277.491 44.054C278.045 44.054 278.582 44.1456 279.102 44.3288C279.622 44.5121 280.089 44.7997 280.502 45.1918C280.915 45.5838 281.241 46.093 281.48 46.7195C281.719 47.3416 281.838 48.098 281.838 48.9886V49.6662H274.033V48.2344H279.965C279.965 47.7315 279.863 47.2862 279.658 46.8984C279.454 46.5064 279.166 46.1974 278.795 45.9716C278.429 45.7457 277.999 45.6328 277.504 45.6328C276.967 45.6328 276.499 45.7649 276.098 46.0291C275.702 46.2891 275.395 46.63 275.178 47.0518C274.964 47.4695 274.858 47.9233 274.858 48.4134V49.532C274.858 50.1882 274.973 50.7464 275.203 51.2067C275.438 51.6669 275.763 52.0185 276.181 52.2614C276.599 52.5 277.087 52.6193 277.645 52.6193C278.007 52.6193 278.337 52.5682 278.636 52.4659C278.934 52.3594 279.192 52.2017 279.409 51.9929C279.626 51.7841 279.793 51.5263 279.908 51.2195L281.717 51.5455C281.572 52.0781 281.312 52.5447 280.937 52.9453C280.566 53.3416 280.099 53.6506 279.537 53.8722C278.979 54.0895 278.342 54.1982 277.626 54.1982Z" fill="black"/>
</g>
<defs>
<clipPath id="clip0_967_2">
<rect width="360" height="60" rx="12" fill="white"/>
</clipPath>
</defs>
</svg>
