<svg width="360" height="60" viewBox="0 0 360 60" fill="none" xmlns="http://www.w3.org/2000/svg">
<g clip-path="url(#clip0_967_2)">
<rect width="360" height="60" rx="12" fill="white"/>
<path d="M68.1015 5.09091H73.0319L78.2393 17.7955H78.4608L83.6682 5.09091H88.5986V24H84.7208V11.6925H84.5638L79.6704 23.9077H77.0297L72.1363 11.6463H71.9793V24H68.1015V5.09091ZM98.2263 24.277C96.7921 24.277 95.5518 23.9723 94.5054 23.3629C93.4652 22.7474 92.6619 21.8918 92.0956 20.7962C91.5293 19.6944 91.2462 18.4171 91.2462 16.9645C91.2462 15.4995 91.5293 14.2192 92.0956 13.1236C92.6619 12.0218 93.4652 11.1662 94.5054 10.5568C95.5518 9.94129 96.7921 9.63352 98.2263 9.63352C99.6605 9.63352 100.898 9.94129 101.938 10.5568C102.984 11.1662 103.791 12.0218 104.357 13.1236C104.923 14.2192 105.206 15.4995 105.206 16.9645C105.206 18.4171 104.923 19.6944 104.357 20.7962C103.791 21.8918 102.984 22.7474 101.938 23.3629C100.898 23.9723 99.6605 24.277 98.2263 24.277ZM98.2448 21.2301C98.8972 21.2301 99.442 21.0455 99.879 20.6761C100.316 20.3007 100.645 19.7898 100.867 19.1435C101.095 18.4972 101.209 17.7616 101.209 16.9368C101.209 16.112 101.095 15.3764 100.867 14.7301C100.645 14.0838 100.316 13.5729 99.879 13.1974C99.442 12.822 98.8972 12.6342 98.2448 12.6342C97.5861 12.6342 97.0322 12.822 96.5828 13.1974C96.1396 13.5729 95.8042 14.0838 95.5764 14.7301C95.3548 15.3764 95.2441 16.112 95.2441 16.9368C95.2441 17.7616 95.3548 18.4972 95.5764 19.1435C95.8042 19.7898 96.1396 20.3007 96.5828 20.6761C97.0322 21.0455 97.5861 21.2301 98.2448 21.2301ZM111.697 15.8011V24H107.764V9.81818H111.513V12.3203H111.679C111.993 11.4955 112.519 10.843 113.258 10.3629C113.996 9.87666 114.892 9.63352 115.944 9.63352C116.929 9.63352 117.788 9.84896 118.52 10.2798C119.253 10.7107 119.822 11.3262 120.228 12.1264C120.635 12.9205 120.838 13.8684 120.838 14.9702V24H116.905V15.6719C116.911 14.804 116.689 14.1269 116.24 13.6406C115.79 13.1482 115.172 12.902 114.384 12.902C113.855 12.902 113.387 13.0159 112.981 13.2436C112.58 13.4714 112.267 13.8037 112.039 14.2408C111.817 14.6716 111.703 15.1918 111.697 15.8011ZM130.401 24.277C128.942 24.277 127.686 23.9815 126.634 23.3906C125.587 22.7936 124.781 21.9503 124.215 20.8608C123.648 19.7652 123.365 18.4695 123.365 16.9737C123.365 15.5149 123.648 14.2346 124.215 13.1328C124.781 12.031 125.578 11.1723 126.606 10.5568C127.64 9.94129 128.853 9.63352 130.244 9.63352C131.179 9.63352 132.05 9.78433 132.857 10.0859C133.669 10.3814 134.377 10.8277 134.98 11.4247C135.59 12.0218 136.064 12.7727 136.402 13.6776C136.741 14.5762 136.91 15.6288 136.91 16.8352V17.9155H124.935V15.478H133.208C133.208 14.9117 133.085 14.41 132.838 13.973C132.592 13.536 132.251 13.1944 131.813 12.9482C131.383 12.6958 130.881 12.5696 130.309 12.5696C129.711 12.5696 129.182 12.7081 128.72 12.9851C128.265 13.2559 127.908 13.6222 127.649 14.0838C127.391 14.5393 127.259 15.0471 127.252 15.6072V17.9247C127.252 18.6264 127.382 19.2327 127.64 19.7436C127.905 20.2545 128.277 20.6484 128.757 20.9254C129.237 21.2024 129.807 21.3409 130.465 21.3409C130.902 21.3409 131.303 21.2794 131.666 21.1562C132.029 21.0331 132.34 20.8485 132.598 20.6023C132.857 20.3561 133.054 20.0545 133.189 19.6974L136.827 19.9375C136.642 20.8116 136.264 21.5748 135.691 22.2273C135.125 22.8736 134.393 23.3783 133.494 23.7415C132.601 24.0985 131.57 24.277 130.401 24.277ZM141.524 29.3182C141.026 29.3182 140.558 29.2782 140.121 29.1982C139.69 29.1243 139.333 29.0289 139.05 28.9119L139.936 25.9759C140.398 26.1174 140.813 26.1944 141.183 26.2067C141.558 26.219 141.881 26.1328 142.152 25.9482C142.429 25.7635 142.654 25.4496 142.826 25.0064L143.057 24.4062L137.97 9.81818H142.106L145.042 20.233H145.19L148.153 9.81818H152.318L146.805 25.5327C146.541 26.2959 146.181 26.9607 145.725 27.527C145.276 28.0994 144.707 28.5395 144.017 28.8473C143.328 29.1612 142.497 29.3182 141.524 29.3182ZM166.146 24.277C164.841 24.277 163.715 24.0431 162.767 23.5753C161.819 23.1075 161.09 22.4735 160.579 21.6733C160.074 20.867 159.822 19.9683 159.822 18.9773C159.822 18.2386 159.969 17.5831 160.265 17.0107C160.56 16.4382 160.973 15.9119 161.502 15.4318C162.031 14.9455 162.647 14.4624 163.349 13.9822L167.014 11.5724C167.488 11.2708 167.836 10.9538 168.057 10.6214C168.279 10.2829 168.39 9.91667 168.39 9.52273C168.39 9.14725 168.239 8.79948 167.937 8.4794C167.636 8.15933 167.208 8.00237 166.654 8.00852C166.285 8.00852 165.965 8.09162 165.694 8.25781C165.423 8.41785 165.211 8.63021 165.057 8.89489C164.909 9.15341 164.835 9.44271 164.835 9.76278C164.835 10.1567 164.946 10.5568 165.168 10.9631C165.389 11.3693 165.685 11.8002 166.054 12.2557C166.423 12.705 166.826 13.1913 167.263 13.7145L176.229 24H172.129L164.65 15.6719C164.158 15.1117 163.666 14.527 163.173 13.9176C162.687 13.3021 162.281 12.6496 161.954 11.9602C161.628 11.2647 161.465 10.5107 161.465 9.69815C161.465 8.78101 161.677 7.9562 162.102 7.22372C162.533 6.49124 163.136 5.91264 163.912 5.48793C164.687 5.05705 165.592 4.84162 166.626 4.84162C167.636 4.84162 168.507 5.04782 169.239 5.46023C169.978 5.86648 170.544 6.40814 170.938 7.08523C171.338 7.75615 171.538 8.49479 171.538 9.30114C171.538 10.1937 171.317 11.0031 170.873 11.7294C170.436 12.4496 169.821 13.0959 169.027 13.6683L165.168 16.4474C164.644 16.8291 164.257 17.2199 164.004 17.62C163.758 18.014 163.635 18.3925 163.635 18.7557C163.635 19.205 163.746 19.6082 163.967 19.9652C164.189 20.3222 164.503 20.6054 164.909 20.8146C165.315 21.0178 165.792 21.1193 166.34 21.1193C167.005 21.1193 167.66 20.9685 168.307 20.6669C168.959 20.3591 169.55 19.9252 170.079 19.3651C170.615 18.7988 171.043 18.1278 171.363 17.3523C171.683 16.5767 171.843 15.718 171.843 14.7763H175.102C175.102 15.9335 174.976 16.9768 174.724 17.9062C174.471 18.8295 174.12 19.6359 173.671 20.3253C173.222 21.0085 172.708 21.5687 172.129 22.0057C171.945 22.1226 171.766 22.2334 171.594 22.3381C171.421 22.4427 171.243 22.5535 171.058 22.6705C170.356 23.2367 169.572 23.6461 168.704 23.8984C167.842 24.1508 166.989 24.277 166.146 24.277ZM183.959 24V5.09091H196.479V8.38707H187.957V12.8928H195.648V16.1889H187.957V24H183.959ZM198.866 24V9.81818H202.679V12.2926H202.826C203.085 11.4124 203.519 10.7476 204.128 10.2983C204.738 9.8428 205.439 9.61506 206.233 9.61506C206.43 9.61506 206.643 9.62737 206.87 9.65199C207.098 9.67661 207.298 9.71046 207.471 9.75355V13.2436C207.286 13.1882 207.031 13.139 206.704 13.0959C206.378 13.0528 206.08 13.0312 205.809 13.0312C205.23 13.0312 204.713 13.1574 204.258 13.4098C203.808 13.656 203.451 14.0007 203.187 14.4439C202.928 14.8871 202.799 15.398 202.799 15.9766V24H198.866ZM215.307 24.277C213.848 24.277 212.593 23.9815 211.54 23.3906C210.494 22.7936 209.687 21.9503 209.121 20.8608C208.555 19.7652 208.272 18.4695 208.272 16.9737C208.272 15.5149 208.555 14.2346 209.121 13.1328C209.687 12.031 210.484 11.1723 211.512 10.5568C212.546 9.94129 213.759 9.63352 215.15 9.63352C216.086 9.63352 216.957 9.78433 217.763 10.0859C218.576 10.3814 219.283 10.8277 219.887 11.4247C220.496 12.0218 220.97 12.7727 221.309 13.6776C221.647 14.5762 221.816 15.6288 221.816 16.8352V17.9155H209.841V15.478H218.114C218.114 14.9117 217.991 14.41 217.745 13.973C217.498 13.536 217.157 13.1944 216.72 12.9482C216.289 12.6958 215.787 12.5696 215.215 12.5696C214.618 12.5696 214.088 12.7081 213.627 12.9851C213.171 13.2559 212.814 13.6222 212.556 14.0838C212.297 14.5393 212.165 15.0471 212.159 15.6072V17.9247C212.159 18.6264 212.288 19.2327 212.546 19.7436C212.811 20.2545 213.184 20.6484 213.664 20.9254C214.144 21.2024 214.713 21.3409 215.372 21.3409C215.809 21.3409 216.209 21.2794 216.572 21.1562C216.935 21.0331 217.246 20.8485 217.505 20.6023C217.763 20.3561 217.96 20.0545 218.095 19.6974L221.733 19.9375C221.549 20.8116 221.17 21.5748 220.598 22.2273C220.031 22.8736 219.299 23.3783 218.4 23.7415C217.508 24.0985 216.477 24.277 215.307 24.277ZM230.846 24.277C229.387 24.277 228.132 23.9815 227.079 23.3906C226.033 22.7936 225.226 21.9503 224.66 20.8608C224.094 19.7652 223.811 18.4695 223.811 16.9737C223.811 15.5149 224.094 14.2346 224.66 13.1328C225.226 12.031 226.023 11.1723 227.051 10.5568C228.085 9.94129 229.298 9.63352 230.689 9.63352C231.625 9.63352 232.496 9.78433 233.302 10.0859C234.115 10.3814 234.822 10.8277 235.426 11.4247C236.035 12.0218 236.509 12.7727 236.848 13.6776C237.186 14.5762 237.355 15.6288 237.355 16.8352V17.9155H225.38V15.478H233.653C233.653 14.9117 233.53 14.41 233.284 13.973C233.037 13.536 232.696 13.1944 232.259 12.9482C231.828 12.6958 231.326 12.5696 230.754 12.5696C230.157 12.5696 229.627 12.7081 229.166 12.9851C228.71 13.2559 228.353 13.6222 228.095 14.0838C227.836 14.5393 227.704 15.0471 227.698 15.6072V17.9247C227.698 18.6264 227.827 19.2327 228.085 19.7436C228.35 20.2545 228.723 20.6484 229.203 20.9254C229.683 21.2024 230.252 21.3409 230.911 21.3409C231.348 21.3409 231.748 21.2794 232.111 21.1562C232.474 21.0331 232.785 20.8485 233.044 20.6023C233.302 20.3561 233.499 20.0545 233.634 19.6974L237.272 19.9375C237.088 20.8116 236.709 21.5748 236.137 22.2273C235.57 22.8736 234.838 23.3783 233.939 23.7415C233.047 24.0985 232.016 24.277 230.846 24.277ZM245.148 24.2308C244.071 24.2308 243.095 23.9538 242.221 23.3999C241.353 22.8397 240.664 22.018 240.153 20.9347C239.648 19.8452 239.396 18.5095 239.396 16.9276C239.396 15.3026 239.657 13.9515 240.181 12.8743C240.704 11.791 241.399 10.9815 242.267 10.446C243.141 9.90436 244.099 9.63352 245.139 9.63352C245.933 9.63352 246.594 9.76894 247.124 10.0398C247.659 10.3045 248.09 10.6368 248.416 11.0369C248.749 11.4309 249.001 11.8187 249.174 12.2003H249.294V5.09091H253.218V24H249.34V21.7287H249.174C248.989 22.1226 248.727 22.5135 248.389 22.9013C248.056 23.2829 247.622 23.5999 247.087 23.8523C246.558 24.1046 245.911 24.2308 245.148 24.2308ZM246.394 21.1009C247.028 21.1009 247.564 20.9285 248.001 20.5838C248.444 20.233 248.783 19.7436 249.017 19.1158C249.257 18.4879 249.377 17.7524 249.377 16.9091C249.377 16.0658 249.26 15.3333 249.026 14.7116C248.792 14.09 248.453 13.6098 248.01 13.2713C247.567 12.9328 247.028 12.7635 246.394 12.7635C245.748 12.7635 245.203 12.9389 244.76 13.2898C244.317 13.6406 243.982 14.1269 243.754 14.7486C243.526 15.3703 243.412 16.0904 243.412 16.9091C243.412 17.7339 243.526 18.4633 243.754 19.0973C243.988 19.7251 244.323 20.2176 244.76 20.5746C245.203 20.9254 245.748 21.1009 246.394 21.1009ZM262.859 24.277C261.425 24.277 260.185 23.9723 259.138 23.3629C258.098 22.7474 257.295 21.8918 256.728 20.7962C256.162 19.6944 255.879 18.4171 255.879 16.9645C255.879 15.4995 256.162 14.2192 256.728 13.1236C257.295 12.0218 258.098 11.1662 259.138 10.5568C260.185 9.94129 261.425 9.63352 262.859 9.63352C264.293 9.63352 265.531 9.94129 266.571 10.5568C267.617 11.1662 268.424 12.0218 268.99 13.1236C269.556 14.2192 269.839 15.4995 269.839 16.9645C269.839 18.4171 269.556 19.6944 268.99 20.7962C268.424 21.8918 267.617 22.7474 266.571 23.3629C265.531 23.9723 264.293 24.277 262.859 24.277ZM262.878 21.2301C263.53 21.2301 264.075 21.0455 264.512 20.6761C264.949 20.3007 265.278 19.7898 265.5 19.1435C265.727 18.4972 265.841 17.7616 265.841 16.9368C265.841 16.112 265.727 15.3764 265.5 14.7301C265.278 14.0838 264.949 13.5729 264.512 13.1974C264.075 12.822 263.53 12.6342 262.878 12.6342C262.219 12.6342 261.665 12.822 261.216 13.1974C260.772 13.5729 260.437 14.0838 260.209 14.7301C259.988 15.3764 259.877 16.112 259.877 16.9368C259.877 17.7616 259.988 18.4972 260.209 19.1435C260.437 19.7898 260.772 20.3007 261.216 20.6761C261.665 21.0455 262.219 21.2301 262.878 21.2301ZM272.397 24V9.81818H276.145V12.3203H276.312C276.607 11.4893 277.099 10.8338 277.789 10.3537C278.478 9.87358 279.303 9.63352 280.263 9.63352C281.236 9.63352 282.064 9.87666 282.747 10.3629C283.43 10.843 283.886 11.4955 284.113 12.3203H284.261C284.55 11.5078 285.074 10.8584 285.831 10.3722C286.594 9.87973 287.496 9.63352 288.536 9.63352C289.859 9.63352 290.933 10.0552 291.758 10.8984C292.589 11.7356 293.005 12.9235 293.005 14.4624V24H289.081V15.2379C289.081 14.45 288.871 13.8591 288.453 13.4652C288.034 13.0713 287.511 12.8743 286.883 12.8743C286.169 12.8743 285.612 13.102 285.212 13.5575C284.812 14.0069 284.612 14.6009 284.612 15.3395V24H280.799V15.1548C280.799 14.4593 280.599 13.9053 280.199 13.4929C279.805 13.0805 279.285 12.8743 278.638 12.8743C278.201 12.8743 277.807 12.9851 277.456 13.2067C277.112 13.4221 276.838 13.7268 276.635 14.1207C276.432 14.5085 276.33 14.964 276.33 15.4872V24H272.397Z" fill="black"/>
<path d="M78.7644 40.9091H81.1614L85.329 51.0852H85.4824L89.65 40.9091H92.0471V54H90.1678V44.527H90.0463L86.1855 53.9808H84.6259L80.7651 44.5206H80.6436V54H78.7644V40.9091ZM97.6225 54.2173C97.0004 54.2173 96.4379 54.1023 95.935 53.8722C95.4322 53.6378 95.0337 53.299 94.7397 52.8558C94.4499 52.4126 94.305 51.8693 94.305 51.2259C94.305 50.6719 94.4116 50.2159 94.6246 49.858C94.8377 49.5 95.1254 49.2166 95.4876 49.0078C95.8498 48.799 96.2546 48.6413 96.7021 48.5348C97.1495 48.4283 97.6055 48.3473 98.07 48.2919C98.658 48.2237 99.1353 48.1683 99.5018 48.1257C99.8683 48.0788 100.135 48.0043 100.301 47.902C100.467 47.7997 100.55 47.6335 100.55 47.4034V47.3587C100.55 46.8004 100.392 46.3679 100.077 46.0611C99.766 45.7543 99.3015 45.6009 98.6836 45.6009C98.0401 45.6009 97.533 45.7436 97.1623 46.0291C96.7958 46.3104 96.5423 46.6236 96.4016 46.9688L94.6055 46.5597C94.8185 45.9631 95.1296 45.4815 95.5387 45.1151C95.9521 44.7443 96.4272 44.4759 96.9641 44.3097C97.5011 44.1392 98.0657 44.054 98.658 44.054C99.0501 44.054 99.4656 44.1009 99.9045 44.1946C100.348 44.2841 100.761 44.4503 101.145 44.6932C101.532 44.9361 101.85 45.2834 102.097 45.7351C102.344 46.1825 102.468 46.7642 102.468 47.4801V54H100.601V52.6577H100.525C100.401 52.9048 100.216 53.1477 99.9684 53.3864C99.7212 53.625 99.4038 53.8232 99.016 53.9808C98.6282 54.1385 98.1637 54.2173 97.6225 54.2173ZM98.038 52.6832C98.5664 52.6832 99.0181 52.5788 99.3931 52.37C99.7724 52.1612 100.06 51.8885 100.256 51.5518C100.456 51.2109 100.556 50.8466 100.556 50.4588V49.1932C100.488 49.2614 100.356 49.3253 100.16 49.3849C99.9684 49.4403 99.7489 49.4893 99.5018 49.532C99.2546 49.5703 99.0138 49.6065 98.7795 49.6406C98.5451 49.6705 98.3491 49.696 98.1914 49.7173C97.8207 49.7642 97.4819 49.843 97.1751 49.9538C96.8725 50.0646 96.6296 50.2244 96.4464 50.4332C96.2674 50.6378 96.1779 50.9105 96.1779 51.2514C96.1779 51.7244 96.3526 52.0824 96.7021 52.3253C97.0515 52.5639 97.4968 52.6832 98.038 52.6832ZM106.771 50.6697L106.758 48.3366H107.091L111.003 44.1818H113.291L108.829 48.9119H108.529L106.771 50.6697ZM105.013 54V40.9091H106.925V54H105.013ZM111.214 54L107.698 49.3338L109.015 47.9979L113.559 54H111.214ZM118.86 54.1982C117.893 54.1982 117.06 53.9915 116.361 53.5781C115.666 53.1605 115.129 52.5746 114.75 51.8203C114.375 51.0618 114.188 50.1733 114.188 49.1548C114.188 48.1491 114.375 47.2628 114.75 46.4957C115.129 45.7287 115.658 45.13 116.335 44.6996C117.017 44.2692 117.814 44.054 118.726 44.054C119.28 44.054 119.817 44.1456 120.337 44.3288C120.857 44.5121 121.323 44.7997 121.737 45.1918C122.15 45.5838 122.476 46.093 122.714 46.7195C122.953 47.3416 123.072 48.098 123.072 48.9886V49.6662H115.268V48.2344H121.2C121.2 47.7315 121.097 47.2862 120.893 46.8984C120.688 46.5064 120.401 46.1974 120.03 45.9716C119.663 45.7457 119.233 45.6328 118.739 45.6328C118.202 45.6328 117.733 45.7649 117.332 46.0291C116.936 46.2891 116.629 46.63 116.412 47.0518C116.199 47.4695 116.092 47.9233 116.092 48.4134V49.532C116.092 50.1882 116.207 50.7464 116.438 51.2067C116.672 51.6669 116.998 52.0185 117.415 52.2614C117.833 52.5 118.321 52.6193 118.879 52.6193C119.241 52.6193 119.572 52.5682 119.87 52.4659C120.168 52.3594 120.426 52.2017 120.643 51.9929C120.861 51.7841 121.027 51.5263 121.142 51.2195L122.951 51.5455C122.806 52.0781 122.546 52.5447 122.171 52.9453C121.8 53.3416 121.334 53.6506 120.771 53.8722C120.213 54.0895 119.576 54.1982 118.86 54.1982ZM137.25 44.348C137.182 43.7429 136.901 43.2741 136.406 42.9418C135.912 42.6051 135.29 42.4368 134.54 42.4368C134.003 42.4368 133.538 42.522 133.146 42.6925C132.754 42.8587 132.45 43.0888 132.232 43.3828C132.019 43.6726 131.913 44.0028 131.913 44.3736C131.913 44.6847 131.985 44.9531 132.13 45.179C132.279 45.4048 132.473 45.5945 132.712 45.7479C132.955 45.897 133.214 46.0227 133.491 46.125C133.768 46.223 134.035 46.304 134.29 46.3679L135.569 46.7003C135.987 46.8026 136.415 46.9411 136.854 47.1158C137.293 47.2905 137.7 47.5206 138.075 47.8061C138.45 48.0916 138.752 48.4453 138.982 48.8672C139.217 49.2891 139.334 49.794 139.334 50.3821C139.334 51.1236 139.142 51.782 138.759 52.3572C138.379 52.9325 137.827 53.3864 137.103 53.7188C136.383 54.0511 135.511 54.2173 134.489 54.2173C133.509 54.2173 132.661 54.0618 131.945 53.7507C131.229 53.4396 130.668 52.9986 130.263 52.4276C129.859 51.8523 129.635 51.1705 129.592 50.3821H131.574C131.612 50.8551 131.766 51.2493 132.034 51.5646C132.307 51.8757 132.654 52.108 133.076 52.2614C133.502 52.4105 133.969 52.4851 134.476 52.4851C135.034 52.4851 135.531 52.3977 135.965 52.223C136.404 52.044 136.749 51.7969 137.001 51.4815C137.252 51.1619 137.378 50.7891 137.378 50.3629C137.378 49.9751 137.267 49.6577 137.045 49.4105C136.828 49.1634 136.532 48.9588 136.157 48.7969C135.786 48.6349 135.366 48.4922 134.898 48.3686L133.351 47.9467C132.303 47.6612 131.472 47.2415 130.858 46.6875C130.249 46.1335 129.944 45.4006 129.944 44.4886C129.944 43.7344 130.148 43.076 130.558 42.5135C130.967 41.951 131.521 41.5142 132.219 41.2031C132.918 40.8878 133.707 40.7301 134.585 40.7301C135.471 40.7301 136.253 40.8857 136.93 41.1967C137.612 41.5078 138.149 41.9361 138.541 42.4815C138.933 43.0227 139.138 43.6449 139.155 44.348H137.25ZM141.541 54V44.1818H143.452V54H141.541ZM142.506 42.6669C142.173 42.6669 141.888 42.5561 141.649 42.3345C141.415 42.1087 141.298 41.8402 141.298 41.5291C141.298 41.2138 141.415 40.9453 141.649 40.7237C141.888 40.4979 142.173 40.3849 142.506 40.3849C142.838 40.3849 143.122 40.4979 143.356 40.7237C143.595 40.9453 143.714 41.2138 143.714 41.5291C143.714 41.8402 143.595 42.1087 143.356 42.3345C143.122 42.5561 142.838 42.6669 142.506 42.6669ZM147.532 44.1818L149.699 48.0043L151.885 44.1818H153.975L150.913 49.0909L154 54H151.91L149.699 50.331L147.493 54H145.397L148.452 49.0909L145.435 44.1818H147.532ZM160.854 54V40.9091H168.972V42.6094H162.829V46.598H168.39V48.2919H162.829V54H160.854ZM171.248 54V44.1818H173.159V54H171.248ZM172.213 42.6669C171.881 42.6669 171.595 42.5561 171.356 42.3345C171.122 42.1087 171.005 41.8402 171.005 41.5291C171.005 41.2138 171.122 40.9453 171.356 40.7237C171.595 40.4979 171.881 40.3849 172.213 40.3849C172.545 40.3849 172.829 40.4979 173.063 40.7237C173.302 40.9453 173.421 41.2138 173.421 41.5291C173.421 41.8402 173.302 42.1087 173.063 42.3345C172.829 42.5561 172.545 42.6669 172.213 42.6669ZM179.847 57.8864C179.067 57.8864 178.396 57.7841 177.833 57.5795C177.275 57.375 176.819 57.1044 176.465 56.7678C176.112 56.4311 175.847 56.0625 175.673 55.6619L177.315 54.9844C177.43 55.1719 177.584 55.37 177.776 55.5788C177.972 55.7919 178.236 55.973 178.568 56.1222C178.905 56.2713 179.337 56.3459 179.866 56.3459C180.59 56.3459 181.189 56.169 181.662 55.8153C182.135 55.4659 182.371 54.9077 182.371 54.1406V52.2102H182.25C182.135 52.419 181.969 52.6513 181.751 52.907C181.538 53.1626 181.244 53.3842 180.869 53.5717C180.494 53.7592 180.006 53.853 179.406 53.853C178.63 53.853 177.931 53.6719 177.309 53.3097C176.691 52.9432 176.201 52.4041 175.839 51.6925C175.481 50.9766 175.302 50.0966 175.302 49.0526C175.302 48.0085 175.479 47.1136 175.832 46.3679C176.19 45.6222 176.68 45.0511 177.303 44.6548C177.925 44.2543 178.63 44.054 179.418 44.054C180.028 44.054 180.52 44.1562 180.895 44.3608C181.27 44.5611 181.562 44.7955 181.771 45.0639C181.984 45.3324 182.148 45.5689 182.263 45.7734H182.403V44.1818H184.276V54.2173C184.276 55.0611 184.08 55.7536 183.688 56.2947C183.296 56.8359 182.766 57.2365 182.097 57.4964C181.432 57.7564 180.682 57.8864 179.847 57.8864ZM179.827 52.2678C180.377 52.2678 180.842 52.1399 181.221 51.8842C181.604 51.6243 181.894 51.2536 182.09 50.772C182.29 50.2862 182.391 49.7045 182.391 49.027C182.391 48.3665 182.293 47.7848 182.097 47.282C181.901 46.7791 181.613 46.3871 181.234 46.1058C180.854 45.8203 180.386 45.6776 179.827 45.6776C179.252 45.6776 178.773 45.8267 178.389 46.125C178.006 46.419 177.716 46.8196 177.52 47.3267C177.328 47.8338 177.232 48.4006 177.232 49.027C177.232 49.6705 177.33 50.2351 177.526 50.7209C177.722 51.2067 178.012 51.5859 178.396 51.8587C178.783 52.1314 179.261 52.2678 179.827 52.2678ZM193.059 49.9283V44.1818H194.977V54H193.097V52.2997H192.995C192.769 52.8239 192.407 53.2607 191.908 53.6101C191.414 53.9553 190.798 54.1278 190.061 54.1278C189.43 54.1278 188.872 53.9893 188.386 53.7124C187.905 53.4311 187.526 53.0156 187.249 52.4659C186.976 51.9162 186.839 51.2365 186.839 50.4268V44.1818H188.751V50.1967C188.751 50.8658 188.936 51.3984 189.307 51.7947C189.678 52.1911 190.159 52.3892 190.751 52.3892C191.109 52.3892 191.465 52.2997 191.819 52.1207C192.177 51.9418 192.473 51.6712 192.707 51.3089C192.946 50.9467 193.063 50.4865 193.059 49.9283ZM197.545 54V44.1818H199.392V45.7415H199.494C199.673 45.2131 199.988 44.7976 200.44 44.495C200.896 44.1882 201.412 44.0348 201.987 44.0348C202.106 44.0348 202.247 44.0391 202.409 44.0476C202.575 44.0561 202.705 44.0668 202.799 44.0795V45.9077C202.722 45.8864 202.586 45.8629 202.39 45.8374C202.194 45.8075 201.998 45.7926 201.802 45.7926C201.35 45.7926 200.947 45.8885 200.594 46.0803C200.244 46.2678 199.967 46.5298 199.763 46.8665C199.558 47.1989 199.456 47.5781 199.456 48.0043V54H197.545ZM208.333 54.1982C207.365 54.1982 206.532 53.9915 205.833 53.5781C205.139 53.1605 204.602 52.5746 204.223 51.8203C203.848 51.0618 203.66 50.1733 203.66 49.1548C203.66 48.1491 203.848 47.2628 204.223 46.4957C204.602 45.7287 205.13 45.13 205.808 44.6996C206.49 44.2692 207.287 44.054 208.199 44.054C208.752 44.054 209.289 44.1456 209.809 44.3288C210.329 44.5121 210.796 44.7997 211.209 45.1918C211.623 45.5838 211.949 46.093 212.187 46.7195C212.426 47.3416 212.545 48.098 212.545 48.9886V49.6662H204.74V48.2344H210.672C210.672 47.7315 210.57 47.2862 210.365 46.8984C210.161 46.5064 209.873 46.1974 209.502 45.9716C209.136 45.7457 208.706 45.6328 208.211 45.6328C207.674 45.6328 207.206 45.7649 206.805 46.0291C206.409 46.2891 206.102 46.63 205.885 47.0518C205.672 47.4695 205.565 47.9233 205.565 48.4134V49.532C205.565 50.1882 205.68 50.7464 205.91 51.2067C206.145 51.6669 206.471 52.0185 206.888 52.2614C207.306 52.5 207.794 52.6193 208.352 52.6193C208.714 52.6193 209.044 52.5682 209.343 52.4659C209.641 52.3594 209.899 52.2017 210.116 51.9929C210.333 51.7841 210.5 51.5263 210.615 51.2195L212.424 51.5455C212.279 52.0781 212.019 52.5447 211.644 52.9453C211.273 53.3416 210.806 53.6506 210.244 53.8722C209.686 54.0895 209.049 54.1982 208.333 54.1982ZM222.023 46.5788L220.291 46.8857C220.218 46.6641 220.103 46.4531 219.945 46.2528C219.792 46.0526 219.583 45.8885 219.319 45.7607C219.055 45.6328 218.725 45.5689 218.328 45.5689C217.787 45.5689 217.335 45.6903 216.973 45.9332C216.611 46.1719 216.43 46.4808 216.43 46.8601C216.43 47.1882 216.551 47.4524 216.794 47.6527C217.037 47.853 217.429 48.017 217.97 48.1449L219.53 48.5028C220.433 48.7116 221.107 49.0334 221.55 49.468C221.993 49.9027 222.215 50.4673 222.215 51.1619C222.215 51.75 222.044 52.2741 221.703 52.7344C221.367 53.1903 220.896 53.5483 220.291 53.8082C219.69 54.0682 218.993 54.1982 218.2 54.1982C217.101 54.1982 216.204 53.9638 215.509 53.495C214.815 53.022 214.389 52.3509 214.231 51.4815L216.078 51.2003C216.193 51.6818 216.43 52.0462 216.788 52.2933C217.146 52.5362 217.612 52.6577 218.188 52.6577C218.814 52.6577 219.315 52.5277 219.69 52.2678C220.065 52.0036 220.252 51.6818 220.252 51.3026C220.252 50.9957 220.137 50.7379 219.907 50.5291C219.681 50.3203 219.334 50.1626 218.865 50.0561L217.203 49.6918C216.287 49.483 215.61 49.1506 215.171 48.6946C214.736 48.2386 214.519 47.6612 214.519 46.9624C214.519 46.3828 214.681 45.8757 215.004 45.4411C215.328 45.0064 215.776 44.6676 216.347 44.4247C216.918 44.1776 217.572 44.054 218.309 44.054C219.37 44.054 220.205 44.2841 220.815 44.7443C221.424 45.2003 221.827 45.8118 222.023 46.5788ZM240.605 47.4545C240.605 48.8523 240.349 50.054 239.838 51.0597C239.326 52.0611 238.625 52.8324 237.735 53.3736C236.848 53.9105 235.84 54.179 234.711 54.179C233.578 54.179 232.566 53.9105 231.675 53.3736C230.789 52.8324 230.09 52.0589 229.578 51.0533C229.067 50.0476 228.811 48.848 228.811 47.4545C228.811 46.0568 229.067 44.8572 229.578 43.8558C230.09 42.8501 230.789 42.0788 231.675 41.5419C232.566 41.0007 233.578 40.7301 234.711 40.7301C235.84 40.7301 236.848 41.0007 237.735 41.5419C238.625 42.0788 239.326 42.8501 239.838 43.8558C240.349 44.8572 240.605 46.0568 240.605 47.4545ZM238.649 47.4545C238.649 46.3892 238.476 45.4922 238.131 44.7635C237.79 44.0305 237.321 43.4766 236.725 43.1016C236.132 42.7223 235.461 42.5327 234.711 42.5327C233.957 42.5327 233.284 42.7223 232.691 43.1016C232.099 43.4766 231.63 44.0305 231.285 44.7635C230.944 45.4922 230.774 46.3892 230.774 47.4545C230.774 48.5199 230.944 49.419 231.285 50.152C231.63 50.8807 232.099 51.4347 232.691 51.8139C233.284 52.1889 233.957 52.3764 234.711 52.3764C235.461 52.3764 236.132 52.1889 236.725 51.8139C237.321 51.4347 237.79 50.8807 238.131 50.152C238.476 49.419 238.649 48.5199 238.649 47.4545ZM244.825 48.1705V54H242.914V44.1818H244.748V45.7798H244.87C245.096 45.2599 245.449 44.8423 245.931 44.527C246.417 44.2116 247.028 44.054 247.765 44.054C248.434 44.054 249.02 44.1946 249.523 44.4759C250.026 44.7528 250.416 45.1662 250.693 45.7159C250.97 46.2656 251.108 46.9453 251.108 47.755V54H249.197V47.9851C249.197 47.2734 249.012 46.7173 248.641 46.3168C248.27 45.9119 247.761 45.7095 247.113 45.7095C246.67 45.7095 246.276 45.8054 245.931 45.9972C245.59 46.1889 245.319 46.4702 245.119 46.8409C244.923 47.2074 244.825 47.6506 244.825 48.1705ZM255.583 40.9091V54H253.672V40.9091H255.583ZM258.154 54V44.1818H260.065V54H258.154ZM259.119 42.6669C258.787 42.6669 258.501 42.5561 258.263 42.3345C258.028 42.1087 257.911 41.8402 257.911 41.5291C257.911 41.2138 258.028 40.9453 258.263 40.7237C258.501 40.4979 258.787 40.3849 259.119 40.3849C259.452 40.3849 259.735 40.4979 259.969 40.7237C260.208 40.9453 260.327 41.2138 260.327 41.5291C260.327 41.8402 260.208 42.1087 259.969 42.3345C259.735 42.5561 259.452 42.6669 259.119 42.6669ZM264.548 48.1705V54H262.636V44.1818H264.471V45.7798H264.592C264.818 45.2599 265.172 44.8423 265.653 44.527C266.139 44.2116 266.751 44.054 267.488 44.054C268.157 44.054 268.743 44.1946 269.246 44.4759C269.749 44.7528 270.138 45.1662 270.415 45.7159C270.692 46.2656 270.831 46.9453 270.831 47.755V54H268.92V47.9851C268.92 47.2734 268.734 46.7173 268.364 46.3168C267.993 45.9119 267.484 45.7095 266.836 45.7095C266.393 45.7095 265.999 45.8054 265.653 45.9972C265.313 46.1889 265.042 46.4702 264.842 46.8409C264.646 47.2074 264.548 47.6506 264.548 48.1705ZM277.626 54.1982C276.658 54.1982 275.825 53.9915 275.126 53.5781C274.432 53.1605 273.895 52.5746 273.516 51.8203C273.141 51.0618 272.953 50.1733 272.953 49.1548C272.953 48.1491 273.141 47.2628 273.516 46.4957C273.895 45.7287 274.423 45.13 275.101 44.6996C275.783 44.2692 276.58 44.054 277.491 44.054C278.045 44.054 278.582 44.1456 279.102 44.3288C279.622 44.5121 280.089 44.7997 280.502 45.1918C280.915 45.5838 281.241 46.093 281.48 46.7195C281.719 47.3416 281.838 48.098 281.838 48.9886V49.6662H274.033V48.2344H279.965C279.965 47.7315 279.863 47.2862 279.658 46.8984C279.454 46.5064 279.166 46.1974 278.795 45.9716C278.429 45.7457 277.999 45.6328 277.504 45.6328C276.967 45.6328 276.499 45.7649 276.098 46.0291C275.702 46.2891 275.395 46.63 275.178 47.0518C274.964 47.4695 274.858 47.9233 274.858 48.4134V49.532C274.858 50.1882 274.973 50.7464 275.203 51.2067C275.438 51.6669 275.763 52.0185 276.181 52.2614C276.599 52.5 277.087 52.6193 277.645 52.6193C278.007 52.6193 278.337 52.5682 278.636 52.4659C278.934 52.3594 279.192 52.2017 279.409 51.9929C279.626 51.7841 279.793 51.5263 279.908 51.2195L281.717 51.5455C281.572 52.0781 281.312 52.5447 280.937 52.9453C280.566 53.3416 280.099 53.6506 279.537 53.8722C278.979 54.0895 278.342 54.1982 277.626 54.1982Z" fill="black"/>
</g>
<defs>
<clipPath id="clip0_967_2">
<rect width="360" height="60" rx="12" fill="white"/>
</clipPath>
</defs>
</svg>
