<svg width="360" height="60" viewBox="0 0 360 60" fill="none" xmlns="http://www.w3.org/2000/svg">
<rect width="360" height="60" fill="white"/>
<path d="M3.47641 40C3.28974 40 3.12174 39.9347 2.97241 39.804C2.84174 39.6733 2.77641 39.5053 2.77641 39.3V21.1C2.77641 20.8947 2.84174 20.7267 2.97241 20.596C3.12174 20.4653 3.28974 20.4 3.47641 20.4H6.50041C6.79907 20.4 7.02307 20.484 7.17241 20.652C7.34041 20.8013 7.44307 20.9227 7.48041 21.016L12.4084 29.864L17.3364 21.016C17.3924 20.9227 17.4857 20.8013 17.6164 20.652C17.7657 20.484 17.9991 20.4 18.3164 20.4H21.3124C21.5177 20.4 21.6857 20.4653 21.8164 20.596C21.9657 20.7267 22.0404 20.8947 22.0404 21.1V39.3C22.0404 39.5053 21.9657 39.6733 21.8164 39.804C21.6857 39.9347 21.5177 40 21.3124 40H17.9804C17.7751 40 17.5977 39.9347 17.4484 39.804C17.3177 39.6733 17.2524 39.5053 17.2524 39.3V28.8L14.0884 34.652C14.0137 34.82 13.9017 34.9693 13.7524 35.1C13.6031 35.2307 13.3977 35.296 13.1364 35.296H11.6804C11.4191 35.296 11.2137 35.2307 11.0644 35.1C10.9151 34.9693 10.7937 34.82 10.7004 34.652L7.53641 28.8V39.3C7.53641 39.5053 7.47107 39.6733 7.34041 39.804C7.20974 39.9347 7.04174 40 6.83641 40H3.47641ZM24.8166 40C24.6672 40 24.5272 39.944 24.3966 39.832C24.2846 39.7013 24.2286 39.5613 24.2286 39.412C24.2286 39.3187 24.2379 39.2347 24.2566 39.16L30.8366 21.184C30.8926 20.9787 31.0046 20.8013 31.1726 20.652C31.3592 20.484 31.6112 20.4 31.9286 20.4H36.0726C36.3899 20.4 36.6326 20.484 36.8006 20.652C36.9872 20.8013 37.1086 20.9787 37.1646 21.184L43.7166 39.16C43.7539 39.2347 43.7726 39.3187 43.7726 39.412C43.7726 39.5613 43.7072 39.7013 43.5766 39.832C43.4646 39.944 43.3246 40 43.1566 40H39.7126C39.4326 40 39.2179 39.9347 39.0686 39.804C38.9379 39.6547 38.8539 39.524 38.8166 39.412L37.7246 36.556H30.2486L29.1846 39.412C29.1472 39.524 29.0632 39.6547 28.9326 39.804C28.8019 39.9347 28.5779 40 28.2606 40H24.8166ZM31.3966 32.524H36.6046L33.9726 25.132L31.3966 32.524ZM46.6795 40C46.4742 40 46.3062 39.9347 46.1755 39.804C46.0449 39.6733 45.9795 39.5053 45.9795 39.3V21.1C45.9795 20.8947 46.0449 20.7267 46.1755 20.596C46.3062 20.4653 46.4742 20.4 46.6795 20.4H50.2075C50.4129 20.4 50.5809 20.4653 50.7115 20.596C50.8422 20.7267 50.9075 20.8947 50.9075 21.1V27.316L56.0875 20.932C56.1622 20.82 56.2835 20.708 56.4515 20.596C56.6382 20.4653 56.8809 20.4 57.1795 20.4H61.2115C61.3795 20.4 61.5195 20.4653 61.6315 20.596C61.7435 20.708 61.7995 20.8387 61.7995 20.988C61.7995 21.1187 61.7622 21.2307 61.6875 21.324L54.9955 29.78L62.2195 39.076C62.2942 39.1507 62.3315 39.2627 62.3315 39.412C62.3315 39.5613 62.2662 39.7013 62.1355 39.832C62.0235 39.944 61.8929 40 61.7435 40H57.5715C57.2355 40 56.9742 39.9253 56.7875 39.776C56.6195 39.6267 56.5075 39.5147 56.4515 39.44L50.9075 32.524V39.3C50.9075 39.5053 50.8422 39.6733 50.7115 39.804C50.5809 39.9347 50.4129 40 50.2075 40H46.6795ZM65.2186 40C65.0133 40 64.8453 39.9347 64.7146 39.804C64.5839 39.6733 64.5186 39.5053 64.5186 39.3V21.1C64.5186 20.8947 64.5839 20.7267 64.7146 20.596C64.8453 20.4653 65.0133 20.4 65.2186 20.4H78.2946C78.4999 20.4 78.6679 20.4653 78.7986 20.596C78.9293 20.7267 78.9946 20.8947 78.9946 21.1V23.732C78.9946 23.9373 78.9293 24.1053 78.7986 24.236C78.6679 24.3667 78.4999 24.432 78.2946 24.432H69.3626V28.212H77.6786C77.8839 28.212 78.0519 28.2867 78.1826 28.436C78.3133 28.5667 78.3786 28.7347 78.3786 28.94V31.376C78.3786 31.5627 78.3133 31.7307 78.1826 31.88C78.0519 32.0107 77.8839 32.076 77.6786 32.076H69.3626V35.968H78.5186C78.7239 35.968 78.8919 36.0333 79.0226 36.164C79.1533 36.2947 79.2186 36.4627 79.2186 36.668V39.3C79.2186 39.5053 79.1533 39.6733 79.0226 39.804C78.8919 39.9347 78.7239 40 78.5186 40H65.2186ZM89.0623 40C88.8757 40 88.7077 39.9347 88.5583 39.804C88.4277 39.6733 88.3623 39.5053 88.3623 39.3V21.1C88.3623 20.8947 88.4277 20.7267 88.5583 20.596C88.7077 20.4653 88.8757 20.4 89.0623 20.4H92.0863C92.385 20.4 92.609 20.484 92.7583 20.652C92.9263 20.8013 93.029 20.9227 93.0663 21.016L97.9943 29.864L102.922 21.016C102.978 20.9227 103.072 20.8013 103.202 20.652C103.352 20.484 103.585 20.4 103.902 20.4H106.898C107.104 20.4 107.272 20.4653 107.402 20.596C107.552 20.7267 107.626 20.8947 107.626 21.1V39.3C107.626 39.5053 107.552 39.6733 107.402 39.804C107.272 39.9347 107.104 40 106.898 40H103.566C103.361 40 103.184 39.9347 103.034 39.804C102.904 39.6733 102.838 39.5053 102.838 39.3V28.8L99.6743 34.652C99.5997 34.82 99.4877 34.9693 99.3383 35.1C99.189 35.2307 98.9837 35.296 98.7223 35.296H97.2663C97.005 35.296 96.7997 35.2307 96.6503 35.1C96.501 34.9693 96.3797 34.82 96.2863 34.652L93.1223 28.8V39.3C93.1223 39.5053 93.057 39.6733 92.9263 39.804C92.7957 39.9347 92.6277 40 92.4223 40H89.0623ZM119.531 40.28C117.813 40.28 116.32 40 115.051 39.44C113.781 38.88 112.792 38.04 112.083 36.92C111.373 35.7813 110.981 34.3627 110.907 32.664C110.888 31.8613 110.879 31.0587 110.879 30.256C110.879 29.4533 110.888 28.6413 110.907 27.82C110.981 26.14 111.373 24.7307 112.083 23.592C112.811 22.4347 113.809 21.5667 115.079 20.988C116.348 20.4093 117.832 20.12 119.531 20.12C121.211 20.12 122.685 20.4093 123.954 20.988C125.243 21.5667 126.251 22.4347 126.979 23.592C127.707 24.7307 128.099 26.14 128.155 27.82C128.192 28.6413 128.211 29.4533 128.211 30.256C128.211 31.0587 128.192 31.8613 128.155 32.664C128.08 34.3627 127.688 35.7813 126.979 36.92C126.269 38.04 125.28 38.88 124.011 39.44C122.741 40 121.248 40.28 119.531 40.28ZM119.531 36.248C120.52 36.248 121.323 35.9493 121.939 35.352C122.573 34.7547 122.909 33.8027 122.947 32.496C122.984 31.6747 123.003 30.9 123.003 30.172C123.003 29.444 122.984 28.688 122.947 27.904C122.909 27.0267 122.741 26.3173 122.443 25.776C122.163 25.216 121.771 24.8053 121.267 24.544C120.763 24.2827 120.184 24.152 119.531 24.152C118.896 24.152 118.327 24.2827 117.823 24.544C117.319 24.8053 116.917 25.216 116.619 25.776C116.32 26.3173 116.152 27.0267 116.115 27.904C116.096 28.688 116.087 29.444 116.087 30.172C116.087 30.9 116.096 31.6747 116.115 32.496C116.171 33.8027 116.507 34.7547 117.123 35.352C117.739 35.9493 118.541 36.248 119.531 36.248ZM132.156 40C131.951 40 131.783 39.9347 131.652 39.804C131.521 39.6733 131.456 39.5053 131.456 39.3V21.1C131.456 20.8947 131.521 20.7267 131.652 20.596C131.783 20.4653 131.951 20.4 132.156 20.4H135.124C135.441 20.4 135.665 20.4747 135.796 20.624C135.945 20.7547 136.039 20.8573 136.076 20.932L142.908 31.712V21.1C142.908 20.8947 142.973 20.7267 143.104 20.596C143.235 20.4653 143.403 20.4 143.608 20.4H146.968C147.173 20.4 147.341 20.4653 147.472 20.596C147.603 20.7267 147.668 20.8947 147.668 21.1V39.3C147.668 39.4867 147.603 39.6547 147.472 39.804C147.341 39.9347 147.173 40 146.968 40H143.972C143.673 40 143.449 39.9253 143.3 39.776C143.169 39.6267 143.085 39.524 143.048 39.468L136.216 29.108V39.3C136.216 39.5053 136.151 39.6733 136.02 39.804C135.889 39.9347 135.721 40 135.516 40H132.156ZM152.281 40C152.076 40 151.908 39.9347 151.777 39.804C151.646 39.6733 151.581 39.5053 151.581 39.3V21.1C151.581 20.8947 151.646 20.7267 151.777 20.596C151.908 20.4653 152.076 20.4 152.281 20.4H165.357C165.562 20.4 165.73 20.4653 165.861 20.596C165.992 20.7267 166.057 20.8947 166.057 21.1V23.732C166.057 23.9373 165.992 24.1053 165.861 24.236C165.73 24.3667 165.562 24.432 165.357 24.432H156.425V28.212H164.741C164.946 28.212 165.114 28.2867 165.245 28.436C165.376 28.5667 165.441 28.7347 165.441 28.94V31.376C165.441 31.5627 165.376 31.7307 165.245 31.88C165.114 32.0107 164.946 32.076 164.741 32.076H156.425V35.968H165.581C165.786 35.968 165.954 36.0333 166.085 36.164C166.216 36.2947 166.281 36.4627 166.281 36.668V39.3C166.281 39.5053 166.216 39.6733 166.085 39.804C165.954 39.9347 165.786 40 165.581 40H152.281ZM175.204 40C175.017 40 174.849 39.9347 174.7 39.804C174.569 39.6733 174.504 39.5053 174.504 39.3V33.28L168.008 21.296C167.989 21.24 167.971 21.1933 167.952 21.156C167.933 21.1 167.924 21.044 167.924 20.988C167.924 20.8387 167.98 20.708 168.092 20.596C168.223 20.4653 168.372 20.4 168.54 20.4H172.04C172.32 20.4 172.535 20.4747 172.684 20.624C172.852 20.7547 172.955 20.876 172.992 20.988L177.024 28.212L181.056 20.988C181.112 20.876 181.215 20.7547 181.364 20.624C181.532 20.4747 181.756 20.4 182.036 20.4H185.536C185.704 20.4 185.844 20.4653 185.956 20.596C186.068 20.708 186.124 20.8387 186.124 20.988C186.124 21.044 186.115 21.1 186.096 21.156C186.096 21.1933 186.087 21.24 186.068 21.296L179.544 33.28V39.3C179.544 39.5053 179.479 39.6733 179.348 39.804C179.217 39.9347 179.049 40 178.844 40H175.204ZM194.39 40C194.185 40 194.017 39.9347 193.886 39.804C193.756 39.6733 193.69 39.5053 193.69 39.3V21.1C193.69 20.8947 193.756 20.7267 193.886 20.596C194.017 20.4653 194.185 20.4 194.39 20.4H207.242C207.448 20.4 207.616 20.4653 207.746 20.596C207.896 20.7267 207.97 20.8947 207.97 21.1V23.928C207.97 24.1333 207.896 24.3013 207.746 24.432C207.616 24.5627 207.448 24.628 207.242 24.628H198.618V28.744H206.682C206.888 28.744 207.056 28.8187 207.186 28.968C207.336 29.0987 207.41 29.2667 207.41 29.472V32.272C207.41 32.4587 207.336 32.6267 207.186 32.776C207.056 32.9067 206.888 32.972 206.682 32.972H198.618V39.3C198.618 39.5053 198.553 39.6733 198.422 39.804C198.292 39.9347 198.124 40 197.918 40H194.39ZM211.672 40C211.466 40 211.298 39.9347 211.168 39.804C211.037 39.6733 210.972 39.5053 210.972 39.3V21.1C210.972 20.8947 211.037 20.7267 211.168 20.596C211.298 20.4653 211.466 20.4 211.672 20.4H219.288C221.696 20.4 223.59 20.96 224.972 22.08C226.372 23.1813 227.072 24.7493 227.072 26.784C227.072 28.1093 226.745 29.2293 226.092 30.144C225.457 31.0587 224.617 31.7493 223.572 32.216L227.436 39.104C227.492 39.216 227.52 39.3187 227.52 39.412C227.52 39.5613 227.454 39.7013 227.324 39.832C227.212 39.944 227.072 40 226.904 40H223.208C222.853 40 222.592 39.916 222.424 39.748C222.256 39.5613 222.134 39.3933 222.06 39.244L218.868 33.084H215.984V39.3C215.984 39.5053 215.918 39.6733 215.788 39.804C215.657 39.9347 215.489 40 215.284 40H211.672ZM215.984 29.136H219.232C220.109 29.136 220.762 28.9213 221.192 28.492C221.64 28.0627 221.864 27.4747 221.864 26.728C221.864 26 221.649 25.412 221.22 24.964C220.809 24.516 220.146 24.292 219.232 24.292H215.984V29.136ZM238.257 40.28C236.54 40.28 235.046 40 233.777 39.44C232.508 38.88 231.518 38.04 230.809 36.92C230.1 35.7813 229.708 34.3627 229.633 32.664C229.614 31.8613 229.605 31.0587 229.605 30.256C229.605 29.4533 229.614 28.6413 229.633 27.82C229.708 26.14 230.1 24.7307 230.809 23.592C231.537 22.4347 232.536 21.5667 233.805 20.988C235.074 20.4093 236.558 20.12 238.257 20.12C239.937 20.12 241.412 20.4093 242.681 20.988C243.969 21.5667 244.977 22.4347 245.705 23.592C246.433 24.7307 246.825 26.14 246.881 27.82C246.918 28.6413 246.937 29.4533 246.937 30.256C246.937 31.0587 246.918 31.8613 246.881 32.664C246.806 34.3627 246.414 35.7813 245.705 36.92C244.996 38.04 244.006 38.88 242.737 39.44C241.468 40 239.974 40.28 238.257 40.28ZM238.257 36.248C239.246 36.248 240.049 35.9493 240.665 35.352C241.3 34.7547 241.636 33.8027 241.673 32.496C241.71 31.6747 241.729 30.9 241.729 30.172C241.729 29.444 241.71 28.688 241.673 27.904C241.636 27.0267 241.468 26.3173 241.169 25.776C240.889 25.216 240.497 24.8053 239.993 24.544C239.489 24.2827 238.91 24.152 238.257 24.152C237.622 24.152 237.053 24.2827 236.549 24.544C236.045 24.8053 235.644 25.216 235.345 25.776C235.046 26.3173 234.878 27.0267 234.841 27.904C234.822 28.688 234.813 29.444 234.813 30.172C234.813 30.9 234.822 31.6747 234.841 32.496C234.897 33.8027 235.233 34.7547 235.849 35.352C236.465 35.9493 237.268 36.248 238.257 36.248ZM250.883 40C250.696 40 250.528 39.9347 250.379 39.804C250.248 39.6733 250.183 39.5053 250.183 39.3V21.1C250.183 20.8947 250.248 20.7267 250.379 20.596C250.528 20.4653 250.696 20.4 250.883 20.4H253.907C254.205 20.4 254.429 20.484 254.579 20.652C254.747 20.8013 254.849 20.9227 254.887 21.016L259.815 29.864L264.743 21.016C264.799 20.9227 264.892 20.8013 265.023 20.652C265.172 20.484 265.405 20.4 265.723 20.4H268.719C268.924 20.4 269.092 20.4653 269.223 20.596C269.372 20.7267 269.447 20.8947 269.447 21.1V39.3C269.447 39.5053 269.372 39.6733 269.223 39.804C269.092 39.9347 268.924 40 268.719 40H265.387C265.181 40 265.004 39.9347 264.855 39.804C264.724 39.6733 264.659 39.5053 264.659 39.3V28.8L261.495 34.652C261.42 34.82 261.308 34.9693 261.159 35.1C261.009 35.2307 260.804 35.296 260.543 35.296H259.087C258.825 35.296 258.62 35.2307 258.471 35.1C258.321 34.9693 258.2 34.82 258.107 34.652L254.943 28.8V39.3C254.943 39.5053 254.877 39.6733 254.747 39.804C254.616 39.9347 254.448 40 254.243 40H250.883ZM280.004 40C279.798 40 279.63 39.9347 279.5 39.804C279.369 39.6733 279.304 39.5053 279.304 39.3V21.1C279.304 20.8947 279.369 20.7267 279.5 20.596C279.63 20.4653 279.798 20.4 280.004 20.4H283.616C283.821 20.4 283.989 20.4653 284.12 20.596C284.25 20.7267 284.316 20.8947 284.316 21.1V27.848H291.232V21.1C291.232 20.8947 291.297 20.7267 291.428 20.596C291.558 20.4653 291.726 20.4 291.932 20.4H295.544C295.749 20.4 295.917 20.4653 296.048 20.596C296.178 20.7267 296.244 20.8947 296.244 21.1V39.3C296.244 39.5053 296.178 39.6733 296.048 39.804C295.917 39.9347 295.749 40 295.544 40H291.932C291.726 40 291.558 39.9347 291.428 39.804C291.297 39.6733 291.232 39.5053 291.232 39.3V32.328H284.316V39.3C284.316 39.5053 284.25 39.6733 284.12 39.804C283.989 39.9347 283.821 40 283.616 40H280.004ZM308.175 40.28C306.458 40.28 304.964 40 303.695 39.44C302.426 38.88 301.436 38.04 300.727 36.92C300.018 35.7813 299.626 34.3627 299.551 32.664C299.532 31.8613 299.523 31.0587 299.523 30.256C299.523 29.4533 299.532 28.6413 299.551 27.82C299.626 26.14 300.018 24.7307 300.727 23.592C301.455 22.4347 302.454 21.5667 303.723 20.988C304.992 20.4093 306.476 20.12 308.175 20.12C309.855 20.12 311.33 20.4093 312.599 20.988C313.887 21.5667 314.895 22.4347 315.623 23.592C316.351 24.7307 316.743 26.14 316.799 27.82C316.836 28.6413 316.855 29.4533 316.855 30.256C316.855 31.0587 316.836 31.8613 316.799 32.664C316.724 34.3627 316.332 35.7813 315.623 36.92C314.914 38.04 313.924 38.88 312.655 39.44C311.386 40 309.892 40.28 308.175 40.28ZM308.175 36.248C309.164 36.248 309.967 35.9493 310.583 35.352C311.218 34.7547 311.554 33.8027 311.591 32.496C311.628 31.6747 311.647 30.9 311.647 30.172C311.647 29.444 311.628 28.688 311.591 27.904C311.554 27.0267 311.386 26.3173 311.087 25.776C310.807 25.216 310.415 24.8053 309.911 24.544C309.407 24.2827 308.828 24.152 308.175 24.152C307.54 24.152 306.971 24.2827 306.467 24.544C305.963 24.8053 305.562 25.216 305.263 25.776C304.964 26.3173 304.796 27.0267 304.759 27.904C304.74 28.688 304.731 29.444 304.731 30.172C304.731 30.9 304.74 31.6747 304.759 32.496C304.815 33.8027 305.151 34.7547 305.767 35.352C306.383 35.9493 307.186 36.248 308.175 36.248ZM320.801 40C320.614 40 320.446 39.9347 320.297 39.804C320.166 39.6733 320.101 39.5053 320.101 39.3V21.1C320.101 20.8947 320.166 20.7267 320.297 20.596C320.446 20.4653 320.614 20.4 320.801 20.4H323.825C324.123 20.4 324.347 20.484 324.497 20.652C324.665 20.8013 324.767 20.9227 324.805 21.016L329.733 29.864L334.661 21.016C334.717 20.9227 334.81 20.8013 334.941 20.652C335.09 20.484 335.323 20.4 335.641 20.4H338.637C338.842 20.4 339.01 20.4653 339.141 20.596C339.29 20.7267 339.365 20.8947 339.365 21.1V39.3C339.365 39.5053 339.29 39.6733 339.141 39.804C339.01 39.9347 338.842 40 338.637 40H335.305C335.099 40 334.922 39.9347 334.773 39.804C334.642 39.6733 334.577 39.5053 334.577 39.3V28.8L331.413 34.652C331.338 34.82 331.226 34.9693 331.077 35.1C330.927 35.2307 330.722 35.296 330.461 35.296H329.005C328.743 35.296 328.538 35.2307 328.389 35.1C328.239 34.9693 328.118 34.82 328.025 34.652L324.861 28.8V39.3C324.861 39.5053 324.795 39.6733 324.665 39.804C324.534 39.9347 324.366 40 324.161 40H320.801ZM343.961 40C343.755 40 343.587 39.9347 343.457 39.804C343.326 39.6733 343.261 39.5053 343.261 39.3V21.1C343.261 20.8947 343.326 20.7267 343.457 20.596C343.587 20.4653 343.755 20.4 343.961 20.4H357.037C357.242 20.4 357.41 20.4653 357.541 20.596C357.671 20.7267 357.737 20.8947 357.737 21.1V23.732C357.737 23.9373 357.671 24.1053 357.541 24.236C357.41 24.3667 357.242 24.432 357.037 24.432H348.105V28.212H356.421C356.626 28.212 356.794 28.2867 356.925 28.436C357.055 28.5667 357.121 28.7347 357.121 28.94V31.376C357.121 31.5627 357.055 31.7307 356.925 31.88C356.794 32.0107 356.626 32.076 356.421 32.076H348.105V35.968H357.261C357.466 35.968 357.634 36.0333 357.765 36.164C357.895 36.2947 357.961 36.4627 357.961 36.668V39.3C357.961 39.5053 357.895 39.6733 357.765 39.804C357.634 39.9347 357.466 40 357.261 40H343.961Z" fill="#2CBA6D"/>
</svg>
