<svg width="360" height="60" viewBox="0 0 360 60" fill="none" xmlns="http://www.w3.org/2000/svg">
<rect width="360" height="60" rx="12" fill="white"/>
<path d="M67.6015 6.09091H72.5319L77.7393 18.7955H77.9608L83.1682 6.09091H88.0986V25H84.2208V12.6925H84.0638L79.1704 24.9077H76.5297L71.6363 12.6463H71.4793V25H67.6015V6.09091ZM97.7263 25.277C96.2921 25.277 95.0518 24.9723 94.0054 24.3629C92.9652 23.7474 92.1619 22.8918 91.5956 21.7962C91.0293 20.6944 90.7462 19.4171 90.7462 17.9645C90.7462 16.4995 91.0293 15.2192 91.5956 14.1236C92.1619 13.0218 92.9652 12.1662 94.0054 11.5568C95.0518 10.9413 96.2921 10.6335 97.7263 10.6335C99.1605 10.6335 100.398 10.9413 101.438 11.5568C102.484 12.1662 103.291 13.0218 103.857 14.1236C104.423 15.2192 104.706 16.4995 104.706 17.9645C104.706 19.4171 104.423 20.6944 103.857 21.7962C103.291 22.8918 102.484 23.7474 101.438 24.3629C100.398 24.9723 99.1605 25.277 97.7263 25.277ZM97.7448 22.2301C98.3972 22.2301 98.942 22.0455 99.379 21.6761C99.816 21.3007 100.145 20.7898 100.367 20.1435C100.595 19.4972 100.709 18.7616 100.709 17.9368C100.709 17.112 100.595 16.3764 100.367 15.7301C100.145 15.0838 99.816 14.5729 99.379 14.1974C98.942 13.822 98.3972 13.6342 97.7448 13.6342C97.0861 13.6342 96.5322 13.822 96.0828 14.1974C95.6396 14.5729 95.3042 15.0838 95.0764 15.7301C94.8548 16.3764 94.7441 17.112 94.7441 17.9368C94.7441 18.7616 94.8548 19.4972 95.0764 20.1435C95.3042 20.7898 95.6396 21.3007 96.0828 21.6761C96.5322 22.0455 97.0861 22.2301 97.7448 22.2301ZM111.197 16.8011V25H107.264V10.8182H111.013V13.3203H111.179C111.493 12.4955 112.019 11.843 112.758 11.3629C113.496 10.8767 114.392 10.6335 115.444 10.6335C116.429 10.6335 117.288 10.849 118.02 11.2798C118.753 11.7107 119.322 12.3262 119.728 13.1264C120.135 13.9205 120.338 14.8684 120.338 15.9702V25H116.405V16.6719C116.411 15.804 116.189 15.1269 115.74 14.6406C115.29 14.1482 114.672 13.902 113.884 13.902C113.355 13.902 112.887 14.0159 112.481 14.2436C112.08 14.4714 111.767 14.8037 111.539 15.2408C111.317 15.6716 111.203 16.1918 111.197 16.8011ZM129.901 25.277C128.442 25.277 127.186 24.9815 126.134 24.3906C125.087 23.7936 124.281 22.9503 123.715 21.8608C123.148 20.7652 122.865 19.4695 122.865 17.9737C122.865 16.5149 123.148 15.2346 123.715 14.1328C124.281 13.031 125.078 12.1723 126.106 11.5568C127.14 10.9413 128.353 10.6335 129.744 10.6335C130.679 10.6335 131.55 10.7843 132.357 11.0859C133.169 11.3814 133.877 11.8277 134.48 12.4247C135.09 13.0218 135.564 13.7727 135.902 14.6776C136.241 15.5762 136.41 16.6288 136.41 17.8352V18.9155H124.435V16.478H132.708C132.708 15.9117 132.585 15.41 132.338 14.973C132.092 14.536 131.751 14.1944 131.313 13.9482C130.883 13.6958 130.381 13.5696 129.809 13.5696C129.211 13.5696 128.682 13.7081 128.22 13.9851C127.765 14.2559 127.408 14.6222 127.149 15.0838C126.891 15.5393 126.759 16.0471 126.752 16.6072V18.9247C126.752 19.6264 126.882 20.2327 127.14 20.7436C127.405 21.2545 127.777 21.6484 128.257 21.9254C128.737 22.2024 129.307 22.3409 129.965 22.3409C130.402 22.3409 130.803 22.2794 131.166 22.1562C131.529 22.0331 131.84 21.8485 132.098 21.6023C132.357 21.3561 132.554 21.0545 132.689 20.6974L136.327 20.9375C136.142 21.8116 135.764 22.5748 135.191 23.2273C134.625 23.8736 133.893 24.3783 132.994 24.7415C132.101 25.0985 131.07 25.277 129.901 25.277ZM141.024 30.3182C140.526 30.3182 140.058 30.2782 139.621 30.1982C139.19 30.1243 138.833 30.0289 138.55 29.9119L139.436 26.9759C139.898 27.1174 140.313 27.1944 140.683 27.2067C141.058 27.219 141.381 27.1328 141.652 26.9482C141.929 26.7635 142.154 26.4496 142.326 26.0064L142.557 25.4062L137.47 10.8182H141.606L144.542 21.233H144.69L147.653 10.8182H151.818L146.305 26.5327C146.041 27.2959 145.681 27.9607 145.225 28.527C144.776 29.0994 144.207 29.5395 143.517 29.8473C142.828 30.1612 141.997 30.3182 141.024 30.3182ZM165.646 25.277C164.341 25.277 163.215 25.0431 162.267 24.5753C161.319 24.1075 160.59 23.4735 160.079 22.6733C159.574 21.867 159.322 20.9683 159.322 19.9773C159.322 19.2386 159.469 18.5831 159.765 18.0107C160.06 17.4382 160.473 16.9119 161.002 16.4318C161.531 15.9455 162.147 15.4624 162.849 14.9822L166.514 12.5724C166.988 12.2708 167.336 11.9538 167.557 11.6214C167.779 11.2829 167.89 10.9167 167.89 10.5227C167.89 10.1473 167.739 9.79948 167.437 9.4794C167.136 9.15933 166.708 9.00237 166.154 9.00852C165.785 9.00852 165.465 9.09162 165.194 9.25781C164.923 9.41785 164.711 9.63021 164.557 9.89489C164.409 10.1534 164.335 10.4427 164.335 10.7628C164.335 11.1567 164.446 11.5568 164.668 11.9631C164.889 12.3693 165.185 12.8002 165.554 13.2557C165.923 13.705 166.326 14.1913 166.763 14.7145L175.729 25H171.629L164.15 16.6719C163.658 16.1117 163.166 15.527 162.673 14.9176C162.187 14.3021 161.781 13.6496 161.454 12.9602C161.128 12.2647 160.965 11.5107 160.965 10.6982C160.965 9.78101 161.177 8.9562 161.602 8.22372C162.033 7.49124 162.636 6.91264 163.412 6.48793C164.187 6.05705 165.092 5.84162 166.126 5.84162C167.136 5.84162 168.007 6.04782 168.739 6.46023C169.478 6.86648 170.044 7.40814 170.438 8.08523C170.838 8.75615 171.038 9.49479 171.038 10.3011C171.038 11.1937 170.817 12.0031 170.373 12.7294C169.936 13.4496 169.321 14.0959 168.527 14.6683L164.668 17.4474C164.144 17.8291 163.757 18.2199 163.504 18.62C163.258 19.014 163.135 19.3925 163.135 19.7557C163.135 20.205 163.246 20.6082 163.467 20.9652C163.689 21.3222 164.003 21.6054 164.409 21.8146C164.815 22.0178 165.292 22.1193 165.84 22.1193C166.505 22.1193 167.16 21.9685 167.807 21.6669C168.459 21.3591 169.05 20.9252 169.579 20.3651C170.115 19.7988 170.543 19.1278 170.863 18.3523C171.183 17.5767 171.343 16.718 171.343 15.7763H174.602C174.602 16.9335 174.476 17.9768 174.224 18.9062C173.971 19.8295 173.62 20.6359 173.171 21.3253C172.722 22.0085 172.208 22.5687 171.629 23.0057C171.445 23.1226 171.266 23.2334 171.094 23.3381C170.921 23.4427 170.743 23.5535 170.558 23.6705C169.856 24.2367 169.072 24.6461 168.204 24.8984C167.342 25.1508 166.489 25.277 165.646 25.277ZM183.459 25V6.09091H195.979V9.38707H187.457V13.8928H195.148V17.1889H187.457V25H183.459ZM198.366 25V10.8182H202.179V13.2926H202.326C202.585 12.4124 203.019 11.7476 203.628 11.2983C204.238 10.8428 204.939 10.6151 205.733 10.6151C205.93 10.6151 206.143 10.6274 206.37 10.652C206.598 10.6766 206.798 10.7105 206.971 10.7536V14.2436C206.786 14.1882 206.531 14.139 206.204 14.0959C205.878 14.0528 205.58 14.0312 205.309 14.0312C204.73 14.0312 204.213 14.1574 203.758 14.4098C203.308 14.656 202.951 15.0007 202.687 15.4439C202.428 15.8871 202.299 16.398 202.299 16.9766V25H198.366ZM214.807 25.277C213.348 25.277 212.093 24.9815 211.04 24.3906C209.994 23.7936 209.187 22.9503 208.621 21.8608C208.055 20.7652 207.772 19.4695 207.772 17.9737C207.772 16.5149 208.055 15.2346 208.621 14.1328C209.187 13.031 209.984 12.1723 211.012 11.5568C212.046 10.9413 213.259 10.6335 214.65 10.6335C215.586 10.6335 216.457 10.7843 217.263 11.0859C218.076 11.3814 218.783 11.8277 219.387 12.4247C219.996 13.0218 220.47 13.7727 220.809 14.6776C221.147 15.5762 221.316 16.6288 221.316 17.8352V18.9155H209.341V16.478H217.614C217.614 15.9117 217.491 15.41 217.245 14.973C216.998 14.536 216.657 14.1944 216.22 13.9482C215.789 13.6958 215.287 13.5696 214.715 13.5696C214.118 13.5696 213.588 13.7081 213.127 13.9851C212.671 14.2559 212.314 14.6222 212.056 15.0838C211.797 15.5393 211.665 16.0471 211.659 16.6072V18.9247C211.659 19.6264 211.788 20.2327 212.046 20.7436C212.311 21.2545 212.684 21.6484 213.164 21.9254C213.644 22.2024 214.213 22.3409 214.872 22.3409C215.309 22.3409 215.709 22.2794 216.072 22.1562C216.435 22.0331 216.746 21.8485 217.005 21.6023C217.263 21.3561 217.46 21.0545 217.595 20.6974L221.233 20.9375C221.049 21.8116 220.67 22.5748 220.098 23.2273C219.531 23.8736 218.799 24.3783 217.9 24.7415C217.008 25.0985 215.977 25.277 214.807 25.277ZM230.346 25.277C228.887 25.277 227.632 24.9815 226.579 24.3906C225.533 23.7936 224.726 22.9503 224.16 21.8608C223.594 20.7652 223.311 19.4695 223.311 17.9737C223.311 16.5149 223.594 15.2346 224.16 14.1328C224.726 13.031 225.523 12.1723 226.551 11.5568C227.585 10.9413 228.798 10.6335 230.189 10.6335C231.125 10.6335 231.996 10.7843 232.802 11.0859C233.615 11.3814 234.322 11.8277 234.926 12.4247C235.535 13.0218 236.009 13.7727 236.348 14.6776C236.686 15.5762 236.855 16.6288 236.855 17.8352V18.9155H224.88V16.478H233.153C233.153 15.9117 233.03 15.41 232.784 14.973C232.537 14.536 232.196 14.1944 231.759 13.9482C231.328 13.6958 230.826 13.5696 230.254 13.5696C229.657 13.5696 229.127 13.7081 228.666 13.9851C228.21 14.2559 227.853 14.6222 227.595 15.0838C227.336 15.5393 227.204 16.0471 227.198 16.6072V18.9247C227.198 19.6264 227.327 20.2327 227.585 20.7436C227.85 21.2545 228.223 21.6484 228.703 21.9254C229.183 22.2024 229.752 22.3409 230.411 22.3409C230.848 22.3409 231.248 22.2794 231.611 22.1562C231.974 22.0331 232.285 21.8485 232.544 21.6023C232.802 21.3561 232.999 21.0545 233.134 20.6974L236.772 20.9375C236.588 21.8116 236.209 22.5748 235.637 23.2273C235.07 23.8736 234.338 24.3783 233.439 24.7415C232.547 25.0985 231.516 25.277 230.346 25.277ZM244.648 25.2308C243.571 25.2308 242.595 24.9538 241.721 24.3999C240.853 23.8397 240.164 23.018 239.653 21.9347C239.148 20.8452 238.896 19.5095 238.896 17.9276C238.896 16.3026 239.157 14.9515 239.681 13.8743C240.204 12.791 240.899 11.9815 241.767 11.446C242.641 10.9044 243.599 10.6335 244.639 10.6335C245.433 10.6335 246.094 10.7689 246.624 11.0398C247.159 11.3045 247.59 11.6368 247.916 12.0369C248.249 12.4309 248.501 12.8187 248.674 13.2003H248.794V6.09091H252.718V25H248.84V22.7287H248.674C248.489 23.1226 248.227 23.5135 247.889 23.9013C247.556 24.2829 247.122 24.5999 246.587 24.8523C246.058 25.1046 245.411 25.2308 244.648 25.2308ZM245.894 22.1009C246.528 22.1009 247.064 21.9285 247.501 21.5838C247.944 21.233 248.283 20.7436 248.517 20.1158C248.757 19.4879 248.877 18.7524 248.877 17.9091C248.877 17.0658 248.76 16.3333 248.526 15.7116C248.292 15.09 247.953 14.6098 247.51 14.2713C247.067 13.9328 246.528 13.7635 245.894 13.7635C245.248 13.7635 244.703 13.9389 244.26 14.2898C243.817 14.6406 243.482 15.1269 243.254 15.7486C243.026 16.3703 242.912 17.0904 242.912 17.9091C242.912 18.7339 243.026 19.4633 243.254 20.0973C243.488 20.7251 243.823 21.2176 244.26 21.5746C244.703 21.9254 245.248 22.1009 245.894 22.1009ZM262.359 25.277C260.925 25.277 259.685 24.9723 258.638 24.3629C257.598 23.7474 256.795 22.8918 256.228 21.7962C255.662 20.6944 255.379 19.4171 255.379 17.9645C255.379 16.4995 255.662 15.2192 256.228 14.1236C256.795 13.0218 257.598 12.1662 258.638 11.5568C259.685 10.9413 260.925 10.6335 262.359 10.6335C263.793 10.6335 265.031 10.9413 266.071 11.5568C267.117 12.1662 267.924 13.0218 268.49 14.1236C269.056 15.2192 269.339 16.4995 269.339 17.9645C269.339 19.4171 269.056 20.6944 268.49 21.7962C267.924 22.8918 267.117 23.7474 266.071 24.3629C265.031 24.9723 263.793 25.277 262.359 25.277ZM262.378 22.2301C263.03 22.2301 263.575 22.0455 264.012 21.6761C264.449 21.3007 264.778 20.7898 265 20.1435C265.227 19.4972 265.341 18.7616 265.341 17.9368C265.341 17.112 265.227 16.3764 265 15.7301C264.778 15.0838 264.449 14.5729 264.012 14.1974C263.575 13.822 263.03 13.6342 262.378 13.6342C261.719 13.6342 261.165 13.822 260.716 14.1974C260.272 14.5729 259.937 15.0838 259.709 15.7301C259.488 16.3764 259.377 17.112 259.377 17.9368C259.377 18.7616 259.488 19.4972 259.709 20.1435C259.937 20.7898 260.272 21.3007 260.716 21.6761C261.165 22.0455 261.719 22.2301 262.378 22.2301ZM271.897 25V10.8182H275.645V13.3203H275.812C276.107 12.4893 276.599 11.8338 277.289 11.3537C277.978 10.8736 278.803 10.6335 279.763 10.6335C280.736 10.6335 281.564 10.8767 282.247 11.3629C282.93 11.843 283.386 12.4955 283.613 13.3203H283.761C284.05 12.5078 284.574 11.8584 285.331 11.3722C286.094 10.8797 286.996 10.6335 288.036 10.6335C289.359 10.6335 290.433 11.0552 291.258 11.8984C292.089 12.7356 292.505 13.9235 292.505 15.4624V25H288.581V16.2379C288.581 15.45 288.371 14.8591 287.953 14.4652C287.534 14.0713 287.011 13.8743 286.383 13.8743C285.669 13.8743 285.112 14.102 284.712 14.5575C284.312 15.0069 284.112 15.6009 284.112 16.3395V25H280.299V16.1548C280.299 15.4593 280.099 14.9053 279.699 14.4929C279.305 14.0805 278.785 13.8743 278.138 13.8743C277.701 13.8743 277.307 13.9851 276.956 14.2067C276.612 14.4221 276.338 14.7268 276.135 15.1207C275.932 15.5085 275.83 15.964 275.83 16.4872V25H271.897Z" fill="black"/>
<path d="M67.5486 56V42.9091H72.3426C73.2716 42.9091 74.0407 43.0625 74.6501 43.3693C75.2595 43.6719 75.7155 44.0831 76.018 44.603C76.3206 45.1186 76.4719 45.7003 76.4719 46.348C76.4719 46.8935 76.3717 47.3537 76.1714 47.7287C75.9711 48.0994 75.7027 48.3977 75.366 48.6236C75.0336 48.8452 74.6672 49.0071 74.2666 49.1094V49.2372C74.7013 49.2585 75.1253 49.3991 75.5386 49.6591C75.9562 49.9148 76.3014 50.2791 76.5741 50.7521C76.8469 51.2251 76.9832 51.8004 76.9832 52.478C76.9832 53.147 76.8256 53.7479 76.5102 54.2805C76.1991 54.8089 75.7176 55.2287 75.0656 55.5398C74.4136 55.8466 73.5805 56 72.5663 56H67.5486ZM69.5237 54.3061H72.3746C73.3206 54.3061 73.9981 54.1229 74.4072 53.7564C74.8163 53.3899 75.0209 52.9318 75.0209 52.3821C75.0209 51.9687 74.9165 51.5895 74.7077 51.2443C74.4988 50.8991 74.2006 50.6243 73.8128 50.4197C73.4292 50.2152 72.9733 50.1129 72.4449 50.1129H69.5237V54.3061ZM69.5237 48.5724H72.17C72.6132 48.5724 73.0116 48.4872 73.3653 48.3168C73.7233 48.1463 74.0067 47.9077 74.2155 47.6009C74.4285 47.2898 74.5351 46.9233 74.5351 46.5014C74.5351 45.9602 74.3454 45.5064 73.9662 45.1399C73.5869 44.7734 73.0052 44.5902 72.2211 44.5902H69.5237V48.5724ZM85.392 51.9283V46.1818H87.3096V56H85.4303V54.2997H85.328C85.1022 54.8239 84.74 55.2607 84.2414 55.6101C83.7471 55.9553 83.1313 56.1278 82.3941 56.1278C81.7634 56.1278 81.2052 55.9893 80.7194 55.7124C80.2378 55.4311 79.8586 55.0156 79.5816 54.4659C79.3089 53.9162 79.1725 53.2365 79.1725 52.4268V46.1818H81.0837V52.1967C81.0837 52.8658 81.2691 53.3984 81.6398 53.7947C82.0106 54.1911 82.4921 54.3892 83.0844 54.3892C83.4424 54.3892 83.7982 54.2997 84.1519 54.1207C84.5099 53.9418 84.806 53.6712 85.0404 53.3089C85.279 52.9467 85.3962 52.4865 85.392 51.9283ZM89.8776 56V46.1818H91.7888V56H89.8776ZM90.8428 44.6669C90.5104 44.6669 90.2249 44.5561 89.9862 44.3345C89.7519 44.1087 89.6347 43.8402 89.6347 43.5291C89.6347 43.2138 89.7519 42.9453 89.9862 42.7237C90.2249 42.4979 90.5104 42.3849 90.8428 42.3849C91.1752 42.3849 91.4585 42.4979 91.6929 42.7237C91.9316 42.9453 92.0509 43.2138 92.0509 43.5291C92.0509 43.8402 91.9316 44.1087 91.6929 44.3345C91.4585 44.5561 91.1752 44.6669 90.8428 44.6669ZM96.2712 42.9091V56H94.36V42.9091H96.2712ZM102.518 56.1918C101.725 56.1918 101.018 55.9893 100.396 55.5845C99.7778 55.1754 99.292 54.5937 98.9383 53.8395C98.5889 53.081 98.4142 52.1712 98.4142 51.1101C98.4142 50.049 98.591 49.1413 98.9447 48.3871C99.3026 47.6328 99.7927 47.0554 100.415 46.6548C101.037 46.2543 101.742 46.054 102.531 46.054C103.14 46.054 103.63 46.1562 104.001 46.3608C104.376 46.5611 104.666 46.7955 104.87 47.0639C105.079 47.3324 105.241 47.5689 105.356 47.7734H105.471V42.9091H107.382V56H105.516V54.4723H105.356C105.241 54.6811 105.075 54.9197 104.857 55.1882C104.644 55.4567 104.35 55.6911 103.975 55.8913C103.6 56.0916 103.114 56.1918 102.518 56.1918ZM102.94 54.5618C103.489 54.5618 103.954 54.4169 104.333 54.1271C104.717 53.8331 105.006 53.4261 105.203 52.9062C105.403 52.3864 105.503 51.7812 105.503 51.0909C105.503 50.4091 105.405 49.8125 105.209 49.3011C105.013 48.7898 104.725 48.3913 104.346 48.1058C103.967 47.8203 103.498 47.6776 102.94 47.6776C102.364 47.6776 101.885 47.8267 101.502 48.125C101.118 48.4233 100.828 48.8303 100.632 49.3459C100.44 49.8615 100.345 50.4432 100.345 51.0909C100.345 51.7472 100.443 52.3374 100.639 52.8615C100.835 53.3857 101.124 53.8011 101.508 54.108C101.896 54.4105 102.373 54.5618 102.94 54.5618ZM117.59 56L113.96 42.9091H116.037L118.587 53.0469H118.709L121.362 42.9091H123.42L126.073 53.0533H126.194L128.738 42.9091H130.822L127.185 56H125.197L122.442 46.1946H122.34L119.585 56H117.59ZM135.734 56.1982C134.767 56.1982 133.934 55.9915 133.235 55.5781C132.54 55.1605 132.003 54.5746 131.624 53.8203C131.249 53.0618 131.062 52.1733 131.062 51.1548C131.062 50.1491 131.249 49.2628 131.624 48.4957C132.003 47.7287 132.532 47.13 133.209 46.6996C133.891 46.2692 134.688 46.054 135.6 46.054C136.154 46.054 136.691 46.1456 137.211 46.3288C137.731 46.5121 138.197 46.7997 138.611 47.1918C139.024 47.5838 139.35 48.093 139.589 48.7195C139.827 49.3416 139.946 50.098 139.946 50.9886V51.6662H132.142V50.2344H138.074C138.074 49.7315 137.971 49.2862 137.767 48.8984C137.562 48.5064 137.275 48.1974 136.904 47.9716C136.537 47.7457 136.107 47.6328 135.613 47.6328C135.076 47.6328 134.607 47.7649 134.206 48.0291C133.81 48.2891 133.503 48.63 133.286 49.0518C133.073 49.4695 132.966 49.9233 132.966 50.4134V51.532C132.966 52.1882 133.081 52.7464 133.312 53.2067C133.546 53.6669 133.872 54.0185 134.29 54.2614C134.707 54.5 135.195 54.6193 135.753 54.6193C136.116 54.6193 136.446 54.5682 136.744 54.4659C137.042 54.3594 137.3 54.2017 137.517 53.9929C137.735 53.7841 137.901 53.5263 138.016 53.2195L139.825 53.5455C139.68 54.0781 139.42 54.5447 139.045 54.9453C138.674 55.3416 138.208 55.6506 137.645 55.8722C137.087 56.0895 136.45 56.1982 135.734 56.1982ZM144.924 56.2173C144.302 56.2173 143.74 56.1023 143.237 55.8722C142.734 55.6378 142.335 55.299 142.041 54.8558C141.752 54.4126 141.607 53.8693 141.607 53.2259C141.607 52.6719 141.713 52.2159 141.926 51.858C142.139 51.5 142.427 51.2166 142.789 51.0078C143.152 50.799 143.556 50.6413 144.004 50.5348C144.451 50.4283 144.907 50.3473 145.372 50.2919C145.96 50.2237 146.437 50.1683 146.804 50.1257C147.17 50.0788 147.436 50.0043 147.603 49.902C147.769 49.7997 147.852 49.6335 147.852 49.4034V49.3587C147.852 48.8004 147.694 48.3679 147.379 48.0611C147.068 47.7543 146.603 47.6009 145.985 47.6009C145.342 47.6009 144.835 47.7436 144.464 48.0291C144.098 48.3104 143.844 48.6236 143.703 48.9688L141.907 48.5597C142.12 47.9631 142.431 47.4815 142.84 47.1151C143.254 46.7443 143.729 46.4759 144.266 46.3097C144.803 46.1392 145.367 46.054 145.96 46.054C146.352 46.054 146.767 46.1009 147.206 46.1946C147.649 46.2841 148.063 46.4503 148.446 46.6932C148.834 46.9361 149.152 47.2834 149.399 47.7351C149.646 48.1825 149.769 48.7642 149.769 49.4801V56H147.903V54.6577H147.826C147.703 54.9048 147.517 55.1477 147.27 55.3864C147.023 55.625 146.706 55.8232 146.318 55.9808C145.93 56.1385 145.465 56.2173 144.924 56.2173ZM145.34 54.6832C145.868 54.6832 146.32 54.5788 146.695 54.37C147.074 54.1612 147.362 53.8885 147.558 53.5518C147.758 53.2109 147.858 52.8466 147.858 52.4588V51.1932C147.79 51.2614 147.658 51.3253 147.462 51.3849C147.27 51.4403 147.051 51.4893 146.804 51.532C146.556 51.5703 146.316 51.6065 146.081 51.6406C145.847 51.6705 145.651 51.696 145.493 51.7173C145.122 51.7642 144.784 51.843 144.477 51.9538C144.174 52.0646 143.931 52.2244 143.748 52.4332C143.569 52.6378 143.48 52.9105 143.48 53.2514C143.48 53.7244 143.654 54.0824 144.004 54.3253C144.353 54.5639 144.799 54.6832 145.34 54.6832ZM154.226 42.9091V56H152.315V42.9091H154.226ZM161.381 46.1818V47.7159H156.018V46.1818H161.381ZM157.456 43.8295H159.367V53.1172C159.367 53.4879 159.422 53.767 159.533 53.9545C159.644 54.1378 159.787 54.2635 159.962 54.3317C160.141 54.3956 160.334 54.4276 160.543 54.4276C160.697 54.4276 160.831 54.4169 160.946 54.3956C161.061 54.3743 161.15 54.3572 161.214 54.3445L161.56 55.9233C161.449 55.9659 161.291 56.0085 161.087 56.0511C160.882 56.098 160.626 56.1236 160.32 56.1278C159.817 56.1364 159.348 56.0469 158.913 55.8594C158.479 55.6719 158.127 55.3821 157.859 54.9901C157.59 54.598 157.456 54.1058 157.456 53.5135V43.8295ZM165.617 50.1705V56H163.706V42.9091H165.591V47.7798H165.713C165.943 47.2514 166.294 46.8317 166.767 46.5206C167.241 46.2095 167.858 46.054 168.621 46.054C169.294 46.054 169.883 46.1925 170.385 46.4695C170.892 46.7464 171.285 47.1598 171.562 47.7095C171.843 48.255 171.983 48.9368 171.983 49.755V56H170.072V49.9851C170.072 49.2649 169.887 48.7067 169.516 48.3104C169.145 47.9098 168.63 47.7095 167.969 47.7095C167.517 47.7095 167.113 47.8054 166.755 47.9972C166.401 48.1889 166.122 48.4702 165.917 48.8409C165.717 49.2074 165.617 49.6506 165.617 50.1705ZM179.451 56V42.9091H187.569V44.6094H181.426V48.598H186.987V50.2919H181.426V56H179.451ZM189.721 56V46.1818H191.569V47.7415H191.671C191.85 47.2131 192.165 46.7976 192.617 46.495C193.073 46.1882 193.589 46.0348 194.164 46.0348C194.283 46.0348 194.424 46.0391 194.586 46.0476C194.752 46.0561 194.882 46.0668 194.976 46.0795V47.9077C194.899 47.8864 194.763 47.8629 194.566 47.8374C194.37 47.8075 194.174 47.7926 193.978 47.7926C193.527 47.7926 193.124 47.8885 192.77 48.0803C192.421 48.2678 192.144 48.5298 191.939 48.8665C191.735 49.1989 191.633 49.5781 191.633 50.0043V56H189.721ZM200.414 56.1982C199.493 56.1982 198.69 55.9872 198.004 55.5653C197.318 55.1435 196.785 54.5533 196.406 53.7947C196.027 53.0362 195.837 52.1499 195.837 51.1357C195.837 50.1172 196.027 49.2266 196.406 48.4638C196.785 47.701 197.318 47.1087 198.004 46.6868C198.69 46.2649 199.493 46.054 200.414 46.054C201.334 46.054 202.137 46.2649 202.823 46.6868C203.509 47.1087 204.042 47.701 204.421 48.4638C204.801 49.2266 204.99 50.1172 204.99 51.1357C204.99 52.1499 204.801 53.0362 204.421 53.7947C204.042 54.5533 203.509 55.1435 202.823 55.5653C202.137 55.9872 201.334 56.1982 200.414 56.1982ZM200.42 54.5938C201.017 54.5938 201.511 54.4361 201.903 54.1207C202.295 53.8054 202.585 53.3857 202.772 52.8615C202.964 52.3374 203.06 51.7599 203.06 51.1293C203.06 50.5028 202.964 49.9276 202.772 49.4034C202.585 48.875 202.295 48.451 201.903 48.1314C201.511 47.8118 201.017 47.652 200.42 47.652C199.819 47.652 199.321 47.8118 198.924 48.1314C198.532 48.451 198.24 48.875 198.049 49.4034C197.861 49.9276 197.767 50.5028 197.767 51.1293C197.767 51.7599 197.861 52.3374 198.049 52.8615C198.24 53.3857 198.532 53.8054 198.924 54.1207C199.321 54.4361 199.819 54.5938 200.42 54.5938ZM207.124 56V46.1818H208.958V47.7798H209.08C209.284 47.2386 209.619 46.8168 210.083 46.5142C210.548 46.2074 211.104 46.054 211.752 46.054C212.408 46.054 212.957 46.2074 213.401 46.5142C213.848 46.821 214.178 47.2429 214.391 47.7798H214.494C214.728 47.2557 215.101 46.8381 215.612 46.527C216.124 46.2116 216.733 46.054 217.44 46.054C218.331 46.054 219.058 46.3331 219.62 46.8913C220.187 47.4496 220.47 48.2912 220.47 49.4162V56H218.559V49.5952C218.559 48.9304 218.378 48.4489 218.016 48.1506C217.653 47.8523 217.221 47.7031 216.718 47.7031C216.096 47.7031 215.612 47.8949 215.267 48.2784C214.922 48.6577 214.749 49.1456 214.749 49.7422V56H212.845V49.4737C212.845 48.9411 212.678 48.5128 212.346 48.1889C212.014 47.8651 211.581 47.7031 211.048 47.7031C210.686 47.7031 210.352 47.799 210.045 47.9908C209.742 48.1783 209.497 48.4403 209.31 48.777C209.127 49.1136 209.035 49.5036 209.035 49.9467V56H207.124ZM238.515 42.9091V56H236.7L230.046 46.3991H229.924V56H227.949V42.9091H229.777L236.438 52.5227H236.559V42.9091H238.515ZM245.378 56.1982C244.458 56.1982 243.655 55.9872 242.969 55.5653C242.283 55.1435 241.75 54.5533 241.371 53.7947C240.991 53.0362 240.802 52.1499 240.802 51.1357C240.802 50.1172 240.991 49.2266 241.371 48.4638C241.75 47.701 242.283 47.1087 242.969 46.6868C243.655 46.2649 244.458 46.054 245.378 46.054C246.299 46.054 247.102 46.2649 247.788 46.6868C248.474 47.1087 249.007 47.701 249.386 48.4638C249.766 49.2266 249.955 50.1172 249.955 51.1357C249.955 52.1499 249.766 53.0362 249.386 53.7947C249.007 54.5533 248.474 55.1435 247.788 55.5653C247.102 55.9872 246.299 56.1982 245.378 56.1982ZM245.385 54.5938C245.981 54.5938 246.476 54.4361 246.868 54.1207C247.26 53.8054 247.55 53.3857 247.737 52.8615C247.929 52.3374 248.025 51.7599 248.025 51.1293C248.025 50.5028 247.929 49.9276 247.737 49.4034C247.55 48.875 247.26 48.451 246.868 48.1314C246.476 47.8118 245.981 47.652 245.385 47.652C244.784 47.652 244.285 47.8118 243.889 48.1314C243.497 48.451 243.205 48.875 243.013 49.4034C242.826 49.9276 242.732 50.5028 242.732 51.1293C242.732 51.7599 242.826 52.3374 243.013 52.8615C243.205 53.3857 243.497 53.8054 243.889 54.1207C244.285 54.4361 244.784 54.5938 245.385 54.5938ZM256.672 46.1818V47.7159H251.309V46.1818H256.672ZM252.747 43.8295H254.658V53.1172C254.658 53.4879 254.714 53.767 254.824 53.9545C254.935 54.1378 255.078 54.2635 255.253 54.3317C255.432 54.3956 255.625 54.4276 255.834 54.4276C255.988 54.4276 256.122 54.4169 256.237 54.3956C256.352 54.3743 256.441 54.3572 256.505 54.3445L256.851 55.9233C256.74 55.9659 256.582 56.0085 256.378 56.0511C256.173 56.098 255.917 56.1236 255.611 56.1278C255.108 56.1364 254.639 56.0469 254.204 55.8594C253.77 55.6719 253.418 55.3821 253.15 54.9901C252.881 54.598 252.747 54.1058 252.747 53.5135V43.8295ZM260.908 50.1705V56H258.997V42.9091H260.882V47.7798H261.004C261.234 47.2514 261.585 46.8317 262.059 46.5206C262.532 46.2095 263.149 46.054 263.912 46.054C264.585 46.054 265.174 46.1925 265.676 46.4695C266.184 46.7464 266.576 47.1598 266.853 47.7095C267.134 48.255 267.274 48.9368 267.274 49.755V56H265.363V49.9851C265.363 49.2649 265.178 48.7067 264.807 48.3104C264.436 47.9098 263.921 47.7095 263.26 47.7095C262.809 47.7095 262.404 47.8054 262.046 47.9972C261.692 48.1889 261.413 48.4702 261.208 48.8409C261.008 49.2074 260.908 49.6506 260.908 50.1705ZM269.825 56V46.1818H271.736V56H269.825ZM270.79 44.6669C270.458 44.6669 270.172 44.5561 269.934 44.3345C269.699 44.1087 269.582 43.8402 269.582 43.5291C269.582 43.2138 269.699 42.9453 269.934 42.7237C270.172 42.4979 270.458 42.3849 270.79 42.3849C271.122 42.3849 271.406 42.4979 271.64 42.7237C271.879 42.9453 271.998 43.2138 271.998 43.5291C271.998 43.8402 271.879 44.1087 271.64 44.3345C271.406 44.5561 271.122 44.6669 270.79 44.6669ZM276.218 50.1705V56H274.307V46.1818H276.142V47.7798H276.263C276.489 47.2599 276.843 46.8423 277.324 46.527C277.81 46.2116 278.422 46.054 279.159 46.054C279.828 46.054 280.414 46.1946 280.917 46.4759C281.419 46.7528 281.809 47.1662 282.086 47.7159C282.363 48.2656 282.502 48.9453 282.502 49.755V56H280.591V49.9851C280.591 49.2734 280.405 48.7173 280.035 48.3168C279.664 47.9119 279.155 47.7095 278.507 47.7095C278.064 47.7095 277.669 47.8054 277.324 47.9972C276.983 48.1889 276.713 48.4702 276.513 48.8409C276.316 49.2074 276.218 49.6506 276.218 50.1705ZM289.182 59.8864C288.402 59.8864 287.731 59.7841 287.168 59.5795C286.61 59.375 286.154 59.1044 285.8 58.7678C285.446 58.4311 285.182 58.0625 285.008 57.6619L286.65 56.9844C286.765 57.1719 286.919 57.37 287.111 57.5788C287.307 57.7919 287.571 57.973 287.903 58.1222C288.24 58.2713 288.672 58.3459 289.201 58.3459C289.925 58.3459 290.524 58.169 290.997 57.8153C291.47 57.4659 291.706 56.9077 291.706 56.1406V54.2102H291.585C291.47 54.419 291.304 54.6513 291.086 54.907C290.873 55.1626 290.579 55.3842 290.204 55.5717C289.829 55.7592 289.341 55.853 288.741 55.853C287.965 55.853 287.266 55.6719 286.644 55.3097C286.026 54.9432 285.536 54.4041 285.174 53.6925C284.816 52.9766 284.637 52.0966 284.637 51.0526C284.637 50.0085 284.814 49.1136 285.167 48.3679C285.525 47.6222 286.015 47.0511 286.638 46.6548C287.26 46.2543 287.965 46.054 288.753 46.054C289.363 46.054 289.855 46.1562 290.23 46.3608C290.605 46.5611 290.897 46.7955 291.106 47.0639C291.319 47.3324 291.483 47.5689 291.598 47.7734H291.738V46.1818H293.611V56.2173C293.611 57.0611 293.415 57.7536 293.023 58.2947C292.631 58.8359 292.101 59.2365 291.432 59.4964C290.767 59.7564 290.017 59.8864 289.182 59.8864ZM289.162 54.2678C289.712 54.2678 290.177 54.1399 290.556 53.8842C290.939 53.6243 291.229 53.2536 291.425 52.772C291.625 52.2862 291.726 51.7045 291.726 51.027C291.726 50.3665 291.628 49.7848 291.432 49.282C291.236 48.7791 290.948 48.3871 290.569 48.1058C290.189 47.8203 289.721 47.6776 289.162 47.6776C288.587 47.6776 288.108 47.8267 287.724 48.125C287.341 48.419 287.051 48.8196 286.855 49.3267C286.663 49.8338 286.567 50.4006 286.567 51.027C286.567 51.6705 286.665 52.2351 286.861 52.7209C287.057 53.2067 287.347 53.5859 287.731 53.8587C288.118 54.1314 288.596 54.2678 289.162 54.2678Z" fill="black"/>
</svg>
