<svg width="360" height="60" viewBox="0 0 360 60" fill="none" xmlns="http://www.w3.org/2000/svg">
<g clip-path="url(#clip0_967_2)">
<rect width="360" height="60" rx="12" fill="white"/>
<path d="M68.1015 6.09091H73.0319L78.2393 18.7955H78.4608L83.6682 6.09091H88.5986V25H84.7208V12.6925H84.5638L79.6704 24.9077H77.0297L72.1363 12.6463H71.9793V25H68.1015V6.09091ZM98.2263 25.277C96.7921 25.277 95.5518 24.9723 94.5054 24.3629C93.4652 23.7474 92.6619 22.8918 92.0956 21.7962C91.5293 20.6944 91.2462 19.4171 91.2462 17.9645C91.2462 16.4995 91.5293 15.2192 92.0956 14.1236C92.6619 13.0218 93.4652 12.1662 94.5054 11.5568C95.5518 10.9413 96.7921 10.6335 98.2263 10.6335C99.6605 10.6335 100.898 10.9413 101.938 11.5568C102.984 12.1662 103.791 13.0218 104.357 14.1236C104.923 15.2192 105.206 16.4995 105.206 17.9645C105.206 19.4171 104.923 20.6944 104.357 21.7962C103.791 22.8918 102.984 23.7474 101.938 24.3629C100.898 24.9723 99.6605 25.277 98.2263 25.277ZM98.2448 22.2301C98.8972 22.2301 99.442 22.0455 99.879 21.6761C100.316 21.3007 100.645 20.7898 100.867 20.1435C101.095 19.4972 101.209 18.7616 101.209 17.9368C101.209 17.112 101.095 16.3764 100.867 15.7301C100.645 15.0838 100.316 14.5729 99.879 14.1974C99.442 13.822 98.8972 13.6342 98.2448 13.6342C97.5861 13.6342 97.0322 13.822 96.5828 14.1974C96.1396 14.5729 95.8042 15.0838 95.5764 15.7301C95.3548 16.3764 95.2441 17.112 95.2441 17.9368C95.2441 18.7616 95.3548 19.4972 95.5764 20.1435C95.8042 20.7898 96.1396 21.3007 96.5828 21.6761C97.0322 22.0455 97.5861 22.2301 98.2448 22.2301ZM111.697 16.8011V25H107.764V10.8182H111.513V13.3203H111.679C111.993 12.4955 112.519 11.843 113.258 11.3629C113.996 10.8767 114.892 10.6335 115.944 10.6335C116.929 10.6335 117.788 10.849 118.52 11.2798C119.253 11.7107 119.822 12.3262 120.228 13.1264C120.635 13.9205 120.838 14.8684 120.838 15.9702V25H116.905V16.6719C116.911 15.804 116.689 15.1269 116.24 14.6406C115.79 14.1482 115.172 13.902 114.384 13.902C113.855 13.902 113.387 14.0159 112.981 14.2436C112.58 14.4714 112.267 14.8037 112.039 15.2408C111.817 15.6716 111.703 16.1918 111.697 16.8011ZM130.401 25.277C128.942 25.277 127.686 24.9815 126.634 24.3906C125.587 23.7936 124.781 22.9503 124.215 21.8608C123.648 20.7652 123.365 19.4695 123.365 17.9737C123.365 16.5149 123.648 15.2346 124.215 14.1328C124.781 13.031 125.578 12.1723 126.606 11.5568C127.64 10.9413 128.853 10.6335 130.244 10.6335C131.179 10.6335 132.05 10.7843 132.857 11.0859C133.669 11.3814 134.377 11.8277 134.98 12.4247C135.59 13.0218 136.064 13.7727 136.402 14.6776C136.741 15.5762 136.91 16.6288 136.91 17.8352V18.9155H124.935V16.478H133.208C133.208 15.9117 133.085 15.41 132.838 14.973C132.592 14.536 132.251 14.1944 131.813 13.9482C131.383 13.6958 130.881 13.5696 130.309 13.5696C129.711 13.5696 129.182 13.7081 128.72 13.9851C128.265 14.2559 127.908 14.6222 127.649 15.0838C127.391 15.5393 127.259 16.0471 127.252 16.6072V18.9247C127.252 19.6264 127.382 20.2327 127.64 20.7436C127.905 21.2545 128.277 21.6484 128.757 21.9254C129.237 22.2024 129.807 22.3409 130.465 22.3409C130.902 22.3409 131.303 22.2794 131.666 22.1562C132.029 22.0331 132.34 21.8485 132.598 21.6023C132.857 21.3561 133.054 21.0545 133.189 20.6974L136.827 20.9375C136.642 21.8116 136.264 22.5748 135.691 23.2273C135.125 23.8736 134.393 24.3783 133.494 24.7415C132.601 25.0985 131.57 25.277 130.401 25.277ZM141.524 30.3182C141.026 30.3182 140.558 30.2782 140.121 30.1982C139.69 30.1243 139.333 30.0289 139.05 29.9119L139.936 26.9759C140.398 27.1174 140.813 27.1944 141.183 27.2067C141.558 27.219 141.881 27.1328 142.152 26.9482C142.429 26.7635 142.654 26.4496 142.826 26.0064L143.057 25.4062L137.97 10.8182H142.106L145.042 21.233H145.19L148.153 10.8182H152.318L146.805 26.5327C146.541 27.2959 146.181 27.9607 145.725 28.527C145.276 29.0994 144.707 29.5395 144.017 29.8473C143.328 30.1612 142.497 30.3182 141.524 30.3182ZM166.146 25.277C164.841 25.277 163.715 25.0431 162.767 24.5753C161.819 24.1075 161.09 23.4735 160.579 22.6733C160.074 21.867 159.822 20.9683 159.822 19.9773C159.822 19.2386 159.969 18.5831 160.265 18.0107C160.56 17.4382 160.973 16.9119 161.502 16.4318C162.031 15.9455 162.647 15.4624 163.349 14.9822L167.014 12.5724C167.488 12.2708 167.836 11.9538 168.057 11.6214C168.279 11.2829 168.39 10.9167 168.39 10.5227C168.39 10.1473 168.239 9.79948 167.937 9.4794C167.636 9.15933 167.208 9.00237 166.654 9.00852C166.285 9.00852 165.965 9.09162 165.694 9.25781C165.423 9.41785 165.211 9.63021 165.057 9.89489C164.909 10.1534 164.835 10.4427 164.835 10.7628C164.835 11.1567 164.946 11.5568 165.168 11.9631C165.389 12.3693 165.685 12.8002 166.054 13.2557C166.423 13.705 166.826 14.1913 167.263 14.7145L176.229 25H172.129L164.65 16.6719C164.158 16.1117 163.666 15.527 163.173 14.9176C162.687 14.3021 162.281 13.6496 161.954 12.9602C161.628 12.2647 161.465 11.5107 161.465 10.6982C161.465 9.78101 161.677 8.9562 162.102 8.22372C162.533 7.49124 163.136 6.91264 163.912 6.48793C164.687 6.05705 165.592 5.84162 166.626 5.84162C167.636 5.84162 168.507 6.04782 169.239 6.46023C169.978 6.86648 170.544 7.40814 170.938 8.08523C171.338 8.75615 171.538 9.49479 171.538 10.3011C171.538 11.1937 171.317 12.0031 170.873 12.7294C170.436 13.4496 169.821 14.0959 169.027 14.6683L165.168 17.4474C164.644 17.8291 164.257 18.2199 164.004 18.62C163.758 19.014 163.635 19.3925 163.635 19.7557C163.635 20.205 163.746 20.6082 163.967 20.9652C164.189 21.3222 164.503 21.6054 164.909 21.8146C165.315 22.0178 165.792 22.1193 166.34 22.1193C167.005 22.1193 167.66 21.9685 168.307 21.6669C168.959 21.3591 169.55 20.9252 170.079 20.3651C170.615 19.7988 171.043 19.1278 171.363 18.3523C171.683 17.5767 171.843 16.718 171.843 15.7763H175.102C175.102 16.9335 174.976 17.9768 174.724 18.9062C174.471 19.8295 174.12 20.6359 173.671 21.3253C173.222 22.0085 172.708 22.5687 172.129 23.0057C171.945 23.1226 171.766 23.2334 171.594 23.3381C171.421 23.4427 171.243 23.5535 171.058 23.6705C170.356 24.2367 169.572 24.6461 168.704 24.8984C167.842 25.1508 166.989 25.277 166.146 25.277ZM183.959 25V6.09091H196.479V9.38707H187.957V13.8928H195.648V17.1889H187.957V25H183.959ZM198.866 25V10.8182H202.679V13.2926H202.826C203.085 12.4124 203.519 11.7476 204.128 11.2983C204.738 10.8428 205.439 10.6151 206.233 10.6151C206.43 10.6151 206.643 10.6274 206.87 10.652C207.098 10.6766 207.298 10.7105 207.471 10.7536V14.2436C207.286 14.1882 207.031 14.139 206.704 14.0959C206.378 14.0528 206.08 14.0312 205.809 14.0312C205.23 14.0312 204.713 14.1574 204.258 14.4098C203.808 14.656 203.451 15.0007 203.187 15.4439C202.928 15.8871 202.799 16.398 202.799 16.9766V25H198.866ZM215.307 25.277C213.848 25.277 212.593 24.9815 211.54 24.3906C210.494 23.7936 209.687 22.9503 209.121 21.8608C208.555 20.7652 208.272 19.4695 208.272 17.9737C208.272 16.5149 208.555 15.2346 209.121 14.1328C209.687 13.031 210.484 12.1723 211.512 11.5568C212.546 10.9413 213.759 10.6335 215.15 10.6335C216.086 10.6335 216.957 10.7843 217.763 11.0859C218.576 11.3814 219.283 11.8277 219.887 12.4247C220.496 13.0218 220.97 13.7727 221.309 14.6776C221.647 15.5762 221.816 16.6288 221.816 17.8352V18.9155H209.841V16.478H218.114C218.114 15.9117 217.991 15.41 217.745 14.973C217.498 14.536 217.157 14.1944 216.72 13.9482C216.289 13.6958 215.787 13.5696 215.215 13.5696C214.618 13.5696 214.088 13.7081 213.627 13.9851C213.171 14.2559 212.814 14.6222 212.556 15.0838C212.297 15.5393 212.165 16.0471 212.159 16.6072V18.9247C212.159 19.6264 212.288 20.2327 212.546 20.7436C212.811 21.2545 213.184 21.6484 213.664 21.9254C214.144 22.2024 214.713 22.3409 215.372 22.3409C215.809 22.3409 216.209 22.2794 216.572 22.1562C216.935 22.0331 217.246 21.8485 217.505 21.6023C217.763 21.3561 217.96 21.0545 218.095 20.6974L221.733 20.9375C221.549 21.8116 221.17 22.5748 220.598 23.2273C220.031 23.8736 219.299 24.3783 218.4 24.7415C217.508 25.0985 216.477 25.277 215.307 25.277ZM230.846 25.277C229.387 25.277 228.132 24.9815 227.079 24.3906C226.033 23.7936 225.226 22.9503 224.66 21.8608C224.094 20.7652 223.811 19.4695 223.811 17.9737C223.811 16.5149 224.094 15.2346 224.66 14.1328C225.226 13.031 226.023 12.1723 227.051 11.5568C228.085 10.9413 229.298 10.6335 230.689 10.6335C231.625 10.6335 232.496 10.7843 233.302 11.0859C234.115 11.3814 234.822 11.8277 235.426 12.4247C236.035 13.0218 236.509 13.7727 236.848 14.6776C237.186 15.5762 237.355 16.6288 237.355 17.8352V18.9155H225.38V16.478H233.653C233.653 15.9117 233.53 15.41 233.284 14.973C233.037 14.536 232.696 14.1944 232.259 13.9482C231.828 13.6958 231.326 13.5696 230.754 13.5696C230.157 13.5696 229.627 13.7081 229.166 13.9851C228.71 14.2559 228.353 14.6222 228.095 15.0838C227.836 15.5393 227.704 16.0471 227.698 16.6072V18.9247C227.698 19.6264 227.827 20.2327 228.085 20.7436C228.35 21.2545 228.723 21.6484 229.203 21.9254C229.683 22.2024 230.252 22.3409 230.911 22.3409C231.348 22.3409 231.748 22.2794 232.111 22.1562C232.474 22.0331 232.785 21.8485 233.044 21.6023C233.302 21.3561 233.499 21.0545 233.634 20.6974L237.272 20.9375C237.088 21.8116 236.709 22.5748 236.137 23.2273C235.57 23.8736 234.838 24.3783 233.939 24.7415C233.047 25.0985 232.016 25.277 230.846 25.277ZM245.148 25.2308C244.071 25.2308 243.095 24.9538 242.221 24.3999C241.353 23.8397 240.664 23.018 240.153 21.9347C239.648 20.8452 239.396 19.5095 239.396 17.9276C239.396 16.3026 239.657 14.9515 240.181 13.8743C240.704 12.791 241.399 11.9815 242.267 11.446C243.141 10.9044 244.099 10.6335 245.139 10.6335C245.933 10.6335 246.594 10.7689 247.124 11.0398C247.659 11.3045 248.09 11.6368 248.416 12.0369C248.749 12.4309 249.001 12.8187 249.174 13.2003H249.294V6.09091H253.218V25H249.34V22.7287H249.174C248.989 23.1226 248.727 23.5135 248.389 23.9013C248.056 24.2829 247.622 24.5999 247.087 24.8523C246.558 25.1046 245.911 25.2308 245.148 25.2308ZM246.394 22.1009C247.028 22.1009 247.564 21.9285 248.001 21.5838C248.444 21.233 248.783 20.7436 249.017 20.1158C249.257 19.4879 249.377 18.7524 249.377 17.9091C249.377 17.0658 249.26 16.3333 249.026 15.7116C248.792 15.09 248.453 14.6098 248.01 14.2713C247.567 13.9328 247.028 13.7635 246.394 13.7635C245.748 13.7635 245.203 13.9389 244.76 14.2898C244.317 14.6406 243.982 15.1269 243.754 15.7486C243.526 16.3703 243.412 17.0904 243.412 17.9091C243.412 18.7339 243.526 19.4633 243.754 20.0973C243.988 20.7251 244.323 21.2176 244.76 21.5746C245.203 21.9254 245.748 22.1009 246.394 22.1009ZM262.859 25.277C261.425 25.277 260.185 24.9723 259.138 24.3629C258.098 23.7474 257.295 22.8918 256.728 21.7962C256.162 20.6944 255.879 19.4171 255.879 17.9645C255.879 16.4995 256.162 15.2192 256.728 14.1236C257.295 13.0218 258.098 12.1662 259.138 11.5568C260.185 10.9413 261.425 10.6335 262.859 10.6335C264.293 10.6335 265.531 10.9413 266.571 11.5568C267.617 12.1662 268.424 13.0218 268.99 14.1236C269.556 15.2192 269.839 16.4995 269.839 17.9645C269.839 19.4171 269.556 20.6944 268.99 21.7962C268.424 22.8918 267.617 23.7474 266.571 24.3629C265.531 24.9723 264.293 25.277 262.859 25.277ZM262.878 22.2301C263.53 22.2301 264.075 22.0455 264.512 21.6761C264.949 21.3007 265.278 20.7898 265.5 20.1435C265.727 19.4972 265.841 18.7616 265.841 17.9368C265.841 17.112 265.727 16.3764 265.5 15.7301C265.278 15.0838 264.949 14.5729 264.512 14.1974C264.075 13.822 263.53 13.6342 262.878 13.6342C262.219 13.6342 261.665 13.822 261.216 14.1974C260.772 14.5729 260.437 15.0838 260.209 15.7301C259.988 16.3764 259.877 17.112 259.877 17.9368C259.877 18.7616 259.988 19.4972 260.209 20.1435C260.437 20.7898 260.772 21.3007 261.216 21.6761C261.665 22.0455 262.219 22.2301 262.878 22.2301ZM272.397 25V10.8182H276.145V13.3203H276.312C276.607 12.4893 277.099 11.8338 277.789 11.3537C278.478 10.8736 279.303 10.6335 280.263 10.6335C281.236 10.6335 282.064 10.8767 282.747 11.3629C283.43 11.843 283.886 12.4955 284.113 13.3203H284.261C284.55 12.5078 285.074 11.8584 285.831 11.3722C286.594 10.8797 287.496 10.6335 288.536 10.6335C289.859 10.6335 290.933 11.0552 291.758 11.8984C292.589 12.7356 293.005 13.9235 293.005 15.4624V25H289.081V16.2379C289.081 15.45 288.871 14.8591 288.453 14.4652C288.034 14.0713 287.511 13.8743 286.883 13.8743C286.169 13.8743 285.612 14.102 285.212 14.5575C284.812 15.0069 284.612 15.6009 284.612 16.3395V25H280.799V16.1548C280.799 15.4593 280.599 14.9053 280.199 14.4929C279.805 14.0805 279.285 13.8743 278.638 13.8743C278.201 13.8743 277.807 13.9851 277.456 14.2067C277.112 14.4221 276.838 14.7268 276.635 15.1207C276.432 15.5085 276.33 15.964 276.33 16.4872V25H272.397Z" fill="black"/>
<path d="M92.2267 58V43.4545H97.1344C98.0814 43.4545 98.8697 43.6203 99.4995 43.9517C100.134 44.2831 100.61 44.7353 100.927 45.3082C101.244 45.8812 101.403 46.5322 101.403 47.2614C101.403 47.8674 101.301 48.3859 101.097 48.8168C100.894 49.2476 100.617 49.5956 100.267 49.8608C99.9161 50.1259 99.5255 50.3177 99.0946 50.4361V50.5497C99.5634 50.5829 100.018 50.7486 100.458 51.0469C100.899 51.3404 101.261 51.7524 101.545 52.2827C101.829 52.813 101.971 53.4474 101.971 54.1861C101.971 54.92 101.808 55.5758 101.481 56.1534C101.154 56.7263 100.652 57.1785 99.9753 57.5099C99.303 57.8366 98.446 58 97.4043 58H92.2267ZM93.5549 56.8068H97.4043C98.5265 56.8068 99.3551 56.5582 99.8901 56.0611C100.43 55.5639 100.7 54.9389 100.7 54.1861C100.7 53.6321 100.565 53.1302 100.295 52.6804C100.03 52.2259 99.6534 51.866 99.1657 51.6009C98.6827 51.3357 98.1145 51.2031 97.4611 51.2031H93.5549V56.8068ZM93.5549 50.0241H97.2551C97.8281 50.0241 98.33 49.9058 98.7608 49.669C99.1917 49.4323 99.5279 49.1056 99.7694 48.6889C100.011 48.2723 100.132 47.7964 100.132 47.2614C100.132 46.4896 99.8806 45.8622 99.3787 45.3793C98.8768 44.8916 98.1287 44.6477 97.1344 44.6477H93.5549V50.0241ZM111.845 53.831V47.0909H113.109V58H111.845V56.1889H111.746C111.49 56.7476 111.085 57.214 110.531 57.5881C109.977 57.9574 109.3 58.142 108.5 58.142C107.804 58.142 107.186 57.9905 106.646 57.6875C106.106 57.3797 105.683 56.9299 105.375 56.3381C105.067 55.7462 104.913 55.0194 104.913 54.1577V47.0909H106.177V54.0795C106.177 54.9318 106.428 55.6184 106.93 56.1392C107.432 56.6553 108.076 56.9134 108.862 56.9134C109.354 56.9134 109.828 56.795 110.282 56.5582C110.737 56.3215 111.111 55.9759 111.405 55.5213C111.698 55.062 111.845 54.4986 111.845 53.831ZM116.47 58V47.0909H117.742V58H116.47ZM117.117 45.2159C116.856 45.2159 116.634 45.1283 116.449 44.9531C116.264 44.7732 116.172 44.5578 116.172 44.3068C116.172 44.0559 116.264 43.8428 116.449 43.6676C116.634 43.4877 116.856 43.3977 117.117 43.3977C117.377 43.3977 117.6 43.4877 117.784 43.6676C117.969 43.8428 118.061 44.0559 118.061 44.3068C118.061 44.5578 117.969 44.7732 117.784 44.9531C117.6 45.1283 117.377 45.2159 117.117 45.2159ZM122.349 43.4545V58H121.085V43.4545H122.349ZM129.622 58.2273C128.727 58.2273 127.943 57.9905 127.271 57.517C126.599 57.0436 126.073 56.383 125.694 55.5355C125.32 54.688 125.133 53.7008 125.133 52.5739C125.133 51.4517 125.32 50.4692 125.694 49.6264C126.073 48.7789 126.601 48.1207 127.278 47.652C127.955 47.1785 128.744 46.9418 129.643 46.9418C130.306 46.9418 130.858 47.0601 131.298 47.2969C131.738 47.5289 132.091 47.8177 132.356 48.1634C132.622 48.509 132.827 48.8452 132.974 49.1719H133.088V43.4545H134.359V58H133.123V55.9759H132.974C132.827 56.3073 132.619 56.6482 132.349 56.9986C132.079 57.3442 131.722 57.6354 131.277 57.8722C130.836 58.1089 130.285 58.2273 129.622 58.2273ZM129.771 57.0696C130.477 57.0696 131.078 56.8778 131.575 56.4943C132.072 56.1061 132.451 55.5734 132.711 54.8963C132.977 54.2145 133.109 53.4332 133.109 52.5526C133.109 51.6813 132.979 50.9119 132.719 50.2443C132.458 49.572 132.079 49.0464 131.582 48.6676C131.085 48.2841 130.481 48.0923 129.771 48.0923C129.042 48.0923 128.426 48.2912 127.925 48.6889C127.427 49.0819 127.049 49.6146 126.788 50.2869C126.532 50.9593 126.405 51.7145 126.405 52.5526C126.405 53.4001 126.535 54.1648 126.795 54.8466C127.056 55.5284 127.434 56.0705 127.932 56.473C128.434 56.8707 129.047 57.0696 129.771 57.0696ZM146.376 58L142.392 43.4545H143.741L147.037 55.9616H147.15L150.446 43.4545H151.98L155.275 55.9616H155.389L158.684 43.4545H160.041L156.057 58H154.636L151.263 45.6634H151.17L147.797 58H146.376ZM165.574 58.2273C164.556 58.2273 163.675 57.9905 162.932 57.517C162.188 57.0388 161.613 56.3783 161.206 55.5355C160.803 54.688 160.602 53.7126 160.602 52.6094C160.602 51.5109 160.803 50.5355 161.206 49.6832C161.613 48.8262 162.174 48.1562 162.889 47.6733C163.609 47.1856 164.44 46.9418 165.382 46.9418C165.974 46.9418 166.544 47.0507 167.094 47.2685C167.643 47.4815 168.135 47.8106 168.571 48.2557C169.011 48.696 169.359 49.2524 169.615 49.9247C169.871 50.5923 169.998 51.383 169.998 52.2969V52.9219H161.476V51.8068H168.706C168.706 51.1061 168.564 50.4763 168.28 49.9176C168 49.3542 167.61 48.9091 167.108 48.5824C166.611 48.2557 166.035 48.0923 165.382 48.0923C164.691 48.0923 164.082 48.277 163.557 48.6463C163.031 49.0156 162.619 49.5033 162.321 50.1094C162.027 50.7154 161.878 51.3783 161.873 52.098V52.7656C161.873 53.6321 162.023 54.3897 162.321 55.0384C162.624 55.6823 163.052 56.1818 163.606 56.5369C164.16 56.892 164.816 57.0696 165.574 57.0696C166.09 57.0696 166.542 56.9891 166.93 56.8281C167.323 56.6671 167.652 56.4517 167.917 56.1818C168.187 55.9072 168.391 55.6065 168.528 55.2798L169.729 55.6705C169.563 56.1297 169.291 56.5535 168.912 56.9418C168.538 57.33 168.069 57.6425 167.506 57.8793C166.947 58.1113 166.303 58.2273 165.574 58.2273ZM175.831 58.2486C175.173 58.2486 174.572 58.1207 174.027 57.8651C173.483 57.6046 173.049 57.2306 172.727 56.7429C172.405 56.2505 172.244 55.6539 172.244 54.9531C172.244 54.4134 172.346 53.9588 172.55 53.5895C172.753 53.2202 173.042 52.9171 173.416 52.6804C173.79 52.4437 174.233 52.2566 174.744 52.1193C175.256 51.982 175.819 51.8755 176.435 51.7997C177.046 51.724 177.562 51.6577 177.983 51.6009C178.409 51.544 178.734 51.4541 178.956 51.331C179.179 51.2079 179.29 51.009 179.29 50.7344V50.4787C179.29 49.7353 179.067 49.1506 178.622 48.7244C178.182 48.2936 177.548 48.0781 176.719 48.0781C175.933 48.0781 175.291 48.2509 174.794 48.5966C174.302 48.9422 173.956 49.3494 173.757 49.8182L172.557 49.3849C172.803 48.7884 173.144 48.3125 173.58 47.9574C174.015 47.5975 174.503 47.3395 175.043 47.1832C175.583 47.0223 176.129 46.9418 176.683 46.9418C177.1 46.9418 177.533 46.9962 177.983 47.1051C178.438 47.214 178.859 47.4034 179.247 47.6733C179.636 47.9384 179.95 48.3101 180.192 48.7884C180.433 49.2618 180.554 49.8632 180.554 50.5923V58H179.29V56.2741H179.212C179.06 56.5961 178.835 56.9086 178.537 57.2116C178.239 57.5147 177.865 57.7633 177.415 57.9574C176.965 58.1515 176.437 58.2486 175.831 58.2486ZM176.002 57.0909C176.674 57.0909 177.256 56.9418 177.749 56.6435C178.241 56.3452 178.62 55.9498 178.885 55.4574C179.155 54.9602 179.29 54.4134 179.29 53.8168V52.2401C179.195 52.33 179.037 52.4105 178.814 52.4815C178.596 52.5526 178.343 52.6165 178.054 52.6733C177.77 52.7254 177.486 52.7704 177.202 52.8082C176.918 52.8461 176.662 52.8793 176.435 52.9077C175.819 52.9834 175.294 53.1018 174.858 53.2628C174.423 53.4238 174.089 53.6463 173.857 53.9304C173.625 54.2098 173.509 54.5696 173.509 55.0099C173.509 55.6728 173.745 56.1866 174.219 56.5511C174.692 56.911 175.287 57.0909 176.002 57.0909ZM185.181 43.4545V58H183.917V43.4545H185.181ZM192.823 47.0909V48.1918H187.617V47.0909H192.823ZM189.244 44.4773H190.515V55.152C190.515 55.6065 190.593 55.964 190.749 56.2244C190.906 56.4801 191.109 56.6624 191.36 56.7713C191.611 56.8755 191.879 56.9276 192.163 56.9276C192.329 56.9276 192.471 56.9181 192.589 56.8991C192.707 56.8755 192.811 56.8518 192.901 56.8281L193.171 57.9716C193.048 58.0189 192.897 58.0616 192.717 58.0994C192.537 58.142 192.314 58.1634 192.049 58.1634C191.585 58.1634 191.138 58.0616 190.707 57.858C190.281 57.6544 189.93 57.3513 189.656 56.9489C189.381 56.5464 189.244 56.0469 189.244 55.4503V44.4773ZM197.193 51.1818V58H195.929V43.4545H197.193V48.8026H197.307C197.562 48.2391 197.958 47.7893 198.493 47.4531C199.032 47.117 199.714 46.9489 200.538 46.9489C201.277 46.9489 201.925 47.1004 202.484 47.4034C203.043 47.7064 203.479 48.1539 203.791 48.7457C204.104 49.3376 204.26 50.0668 204.26 50.9332V58H202.988V51.0114C202.988 50.1117 202.738 49.4039 202.236 48.8878C201.738 48.367 201.066 48.1065 200.219 48.1065C199.636 48.1065 199.118 48.2296 198.663 48.4759C198.209 48.7221 197.849 49.0772 197.584 49.5412C197.323 50.0005 197.193 50.5473 197.193 51.1818ZM225.401 50.7273C225.401 52.2424 225.132 53.5611 224.592 54.6832C224.052 55.8007 223.309 56.6671 222.362 57.2827C221.419 57.8935 220.335 58.1989 219.109 58.1989C217.883 58.1989 216.796 57.8935 215.849 57.2827C214.907 56.6671 214.166 55.8007 213.626 54.6832C213.091 53.5611 212.823 52.2424 212.823 50.7273C212.823 49.2121 213.091 47.8958 213.626 46.7784C214.166 45.6562 214.909 44.7898 215.856 44.179C216.803 43.5634 217.887 43.2557 219.109 43.2557C220.335 43.2557 221.419 43.5634 222.362 44.179C223.309 44.7898 224.052 45.6562 224.592 46.7784C225.132 47.8958 225.401 49.2121 225.401 50.7273ZM224.109 50.7273C224.109 49.4252 223.891 48.3101 223.455 47.3821C223.02 46.4493 222.426 45.7367 221.673 45.2443C220.92 44.7519 220.065 44.5057 219.109 44.5057C218.157 44.5057 217.305 44.7519 216.552 45.2443C215.799 45.7367 215.203 46.447 214.762 47.375C214.327 48.303 214.109 49.4205 214.109 50.7273C214.109 52.0294 214.327 53.1444 214.762 54.0724C215.198 55.0005 215.792 55.7131 216.545 56.2102C217.298 56.7027 218.152 56.9489 219.109 56.9489C220.065 56.9489 220.92 56.7027 221.673 56.2102C222.43 55.7178 223.027 55.0076 223.463 54.0795C223.898 53.1468 224.114 52.0294 224.109 50.7273ZM229.615 51.1818V58H228.351V47.0909H229.579V48.8026H229.693C229.949 48.2438 230.346 47.7964 230.886 47.4602C231.431 47.1193 232.103 46.9489 232.903 46.9489C233.637 46.9489 234.281 47.1027 234.835 47.4105C235.394 47.7135 235.827 48.161 236.135 48.7528C236.447 49.3447 236.604 50.0715 236.604 50.9332V58H235.339V51.0114C235.339 50.1165 235.088 49.4086 234.586 48.8878C234.089 48.367 233.422 48.1065 232.584 48.1065C232.011 48.1065 231.502 48.2296 231.057 48.4759C230.612 48.7221 230.259 49.0772 229.998 49.5412C229.743 50.0005 229.615 50.5473 229.615 51.1818ZM241.197 43.4545V58H239.933V43.4545H241.197ZM244.556 58V47.0909H245.828V58H244.556ZM245.203 45.2159C244.942 45.2159 244.72 45.1283 244.535 44.9531C244.35 44.7732 244.258 44.5578 244.258 44.3068C244.258 44.0559 244.35 43.8428 244.535 43.6676C244.72 43.4877 244.942 43.3977 245.203 43.3977C245.463 43.3977 245.686 43.4877 245.87 43.6676C246.055 43.8428 246.147 44.0559 246.147 44.3068C246.147 44.5578 246.055 44.7732 245.87 44.9531C245.686 45.1283 245.463 45.2159 245.203 45.2159ZM250.435 51.1818V58H249.171V47.0909H250.4V48.8026H250.513C250.769 48.2438 251.167 47.7964 251.706 47.4602C252.251 47.1193 252.923 46.9489 253.724 46.9489C254.457 46.9489 255.101 47.1027 255.655 47.4105C256.214 47.7135 256.647 48.161 256.955 48.7528C257.268 49.3447 257.424 50.0715 257.424 50.9332V58H256.16V51.0114C256.16 50.1165 255.909 49.4086 255.407 48.8878C254.91 48.367 254.242 48.1065 253.404 48.1065C252.831 48.1065 252.322 48.2296 251.877 48.4759C251.432 48.7221 251.079 49.0772 250.819 49.5412C250.563 50.0005 250.435 50.5473 250.435 51.1818ZM265.164 58.2273C264.146 58.2273 263.265 57.9905 262.521 57.517C261.778 57.0388 261.203 56.3783 260.796 55.5355C260.393 54.688 260.192 53.7126 260.192 52.6094C260.192 51.5109 260.393 50.5355 260.796 49.6832C261.203 48.8262 261.764 48.1562 262.479 47.6733C263.199 47.1856 264.03 46.9418 264.972 46.9418C265.564 46.9418 266.134 47.0507 266.683 47.2685C267.233 47.4815 267.725 47.8106 268.161 48.2557C268.601 48.696 268.949 49.2524 269.205 49.9247C269.46 50.5923 269.588 51.383 269.588 52.2969V52.9219H261.066V51.8068H268.296C268.296 51.1061 268.154 50.4763 267.869 49.9176C267.59 49.3542 267.2 48.9091 266.698 48.5824C266.2 48.2557 265.625 48.0923 264.972 48.0923C264.28 48.0923 263.672 48.277 263.146 48.6463C262.621 49.0156 262.209 49.5033 261.911 50.1094C261.617 50.7154 261.468 51.3783 261.463 52.098V52.7656C261.463 53.6321 261.612 54.3897 261.911 55.0384C262.214 55.6823 262.642 56.1818 263.196 56.5369C263.75 56.892 264.406 57.0696 265.164 57.0696C265.68 57.0696 266.132 56.9891 266.52 56.8281C266.913 56.6671 267.242 56.4517 267.507 56.1818C267.777 55.9072 267.981 55.6065 268.118 55.2798L269.318 55.6705C269.153 56.1297 268.88 56.5535 268.502 56.9418C268.128 57.33 267.659 57.6425 267.095 57.8793C266.537 58.1113 265.893 58.2273 265.164 58.2273Z" fill="black"/>
</g>
<defs>
<clipPath id="clip0_967_2">
<rect width="360" height="60" rx="12" fill="white"/>
</clipPath>
</defs>
</svg>
