<svg width="708" height="382" viewBox="0 0 708 382" fill="none" xmlns="http://www.w3.org/2000/svg">
<rect x="51.325" y="205.325" width="183.35" height="125.35" rx="14.55" fill="white" stroke="#D9D9D9" stroke-width="2.65"/>
<path fill-rule="evenodd" clip-rule="evenodd" d="M94.3542 251.642C96.8521 251.854 99.35 250.374 100.911 248.497C102.446 246.567 103.461 243.977 103.201 241.333C100.989 241.439 98.2572 242.814 96.696 244.743C95.2649 246.409 94.0419 249.105 94.3542 251.642ZM124.069 285.689V244.479H139.291C147.149 244.479 152.639 249.977 152.639 258.013C152.639 266.049 147.045 271.6 139.083 271.6H130.366V285.689H124.069ZM103.175 252.145C100.974 252.016 98.9662 252.817 97.3443 253.464C96.3005 253.88 95.4167 254.233 94.7443 254.233C93.9897 254.233 93.0693 253.862 92.036 253.444C90.682 252.898 89.134 252.273 87.5107 252.303C83.7898 252.356 80.3291 254.497 78.4297 257.907C74.5266 264.727 77.4149 274.825 81.1878 280.376C83.0352 283.125 85.2469 286.138 88.1612 286.033C89.4433 285.983 90.3655 285.586 91.32 285.174L91.32 285.174C92.4188 284.701 93.5604 284.209 95.3427 284.209C97.0633 284.209 98.1549 284.688 99.2028 285.148C100.199 285.585 101.156 286.005 102.576 285.98C105.595 285.927 107.494 283.231 109.342 280.481C111.335 277.531 112.211 274.651 112.344 274.214C112.352 274.189 112.357 274.172 112.36 274.164C112.357 274.161 112.332 274.149 112.289 274.129C111.622 273.819 106.528 271.45 106.479 265.097C106.43 259.765 110.52 257.063 111.163 256.638C111.203 256.612 111.229 256.595 111.241 256.586C108.639 252.673 104.58 252.25 103.175 252.145ZM164.14 286.006C168.096 286.006 171.764 283.971 173.43 280.746H173.56V285.689H179.388V265.176C179.388 259.229 174.705 255.396 167.497 255.396C160.81 255.396 155.866 259.282 155.684 264.621H161.356C161.825 262.084 164.14 260.418 167.315 260.418C171.166 260.418 173.326 262.242 173.326 265.599V267.873L165.467 268.348C158.156 268.798 154.201 271.838 154.201 277.124C154.201 282.464 158.286 286.006 164.14 286.006ZM165.831 281.116C162.475 281.116 160.341 279.477 160.341 276.966C160.341 274.375 162.397 272.869 166.326 272.631L173.325 272.181V274.508C173.325 278.367 170.099 281.116 165.831 281.116ZM198.721 287.301C196.197 294.518 193.309 296.897 187.168 296.897C186.7 296.897 185.138 296.844 184.774 296.738V291.795C185.164 291.848 186.127 291.901 186.622 291.901C189.406 291.901 190.967 290.711 191.93 287.619L192.502 285.795L181.834 255.793H188.417L195.833 280.138H195.963L203.379 255.793H209.779L198.721 287.301ZM130.366 249.871H137.625C143.089 249.871 146.212 252.832 146.212 258.039C146.212 263.247 143.089 266.234 137.599 266.234H130.366V249.871Z" fill="black"/>
<rect x="262.325" y="205.325" width="183.35" height="125.35" rx="14.55" fill="#1F72CD" stroke="#D9D9D9" stroke-width="2.65"/>
<path fill-rule="evenodd" clip-rule="evenodd" d="M294.345 249.333L276.943 287.983H297.776L300.359 281.82H306.262L308.845 287.983H331.777V283.279L333.82 287.983H345.682L347.725 283.18V287.983H395.417L401.216 281.98L406.646 287.983L431.141 288.032L413.684 268.766L431.141 249.333H407.026L401.381 255.225L396.122 249.333H344.24L339.785 259.309L335.225 249.333H314.435V253.877L312.122 249.333H294.345ZM365.563 254.822H392.95L401.326 263.902L409.972 254.822H418.348L405.622 268.76L418.348 282.539H409.592L401.216 273.353L392.526 282.539H365.563V254.822ZM372.326 265.626V260.564V260.559H389.414L396.871 268.655L389.084 276.796H372.326V271.269H387.267V265.626H372.326ZM298.377 254.822H308.532L320.075 281.03V254.822H331.199L340.115 273.613L348.332 254.822H359.401V282.555H352.666L352.611 260.823L342.791 282.555H336.766L326.892 260.823V282.555H313.036L310.409 276.337H296.218L293.596 282.549H286.173L298.377 254.822ZM298.641 270.59L303.317 259.514L307.987 270.59H298.641Z" fill="white"/>
<rect x="473.325" y="52.325" width="183.35" height="125.35" rx="14.55" fill="white" stroke="#D9D9D9" stroke-width="2.65"/>
<path d="M550.302 176.333L655.259 145.667V163.104C655.259 170.41 649.336 176.333 642.03 176.333H550.302Z" fill="#FD6020"/>
<path fill-rule="evenodd" clip-rule="evenodd" d="M635.337 102.258C641.112 102.258 644.288 104.837 644.288 109.708C644.576 113.433 641.978 116.585 638.513 117.158L646.309 127.76H640.246L633.605 117.445H633.028V127.76H628.12V102.258H635.337ZM633.028 114.006H634.471C637.647 114.006 639.091 112.573 639.091 109.994C639.091 107.702 637.647 106.269 634.471 106.269H633.028V114.006ZM611.086 127.76H624.944V123.462H615.994V116.585H624.655V112.287H615.994V106.556H624.944V102.258H611.086V127.76ZM596.65 119.45L590.009 102.258H584.813L595.495 128.333H598.093L608.776 102.258H603.579L596.65 119.45ZM538.041 115.152C538.041 122.316 543.815 128.333 551.033 128.333C553.343 128.333 555.364 127.76 557.385 126.901V121.17C555.941 122.889 553.92 124.035 551.611 124.035C546.991 124.035 543.238 120.597 543.238 116.012V115.439C542.949 110.854 546.702 106.843 551.322 106.556C553.632 106.556 555.941 107.702 557.385 109.421V103.691C555.653 102.544 553.343 102.258 551.322 102.258C543.815 101.685 538.041 107.702 538.041 115.152ZM529.091 112C526.204 110.854 525.338 110.281 525.338 108.848C525.626 107.129 527.07 105.696 528.802 105.983C530.246 105.983 531.689 106.843 532.844 107.989L535.443 104.55C533.422 102.831 530.823 101.685 528.225 101.685C524.183 101.398 520.718 104.55 520.429 108.562V108.848C520.429 112.287 521.873 114.293 526.492 115.725C527.647 116.012 528.802 116.585 529.957 117.158C530.823 117.731 531.401 118.591 531.401 119.737C531.401 121.743 529.668 123.462 527.936 123.462H527.647C525.338 123.462 523.317 122.029 522.45 120.024L519.275 123.176C521.007 126.328 524.471 128.047 527.936 128.047C532.555 128.333 536.309 124.895 536.597 120.31V119.45C536.309 116.012 534.865 114.293 529.091 112ZM512.346 127.76H517.254V102.258H512.346V127.76ZM489.537 102.258H496.755H498.199C505.128 102.544 510.613 108.275 510.325 115.152C510.325 118.877 508.592 122.316 505.705 124.895C503.107 126.901 499.931 128.047 496.755 127.76H489.537V102.258ZM495.889 123.462C498.199 123.749 500.797 122.889 502.529 121.456C504.262 119.737 505.128 117.445 505.128 114.866C505.128 112.573 504.262 110.281 502.529 108.562C500.797 107.129 498.199 106.269 495.889 106.556H494.445V123.462H495.889Z" fill="black"/>
<path fill-rule="evenodd" clip-rule="evenodd" d="M572.109 101.667C564.891 101.667 558.828 107.398 558.828 114.848C558.828 122.011 564.603 128.029 572.109 128.315C579.616 128.602 585.39 122.584 585.679 115.134C585.39 107.684 579.616 101.667 572.109 101.667V101.667Z" fill="#FD6020"/>
<rect x="262.325" y="51.325" width="183.35" height="125.35" rx="14.55" fill="white" stroke="#D9D9D9" stroke-width="2.65"/>
<path fill-rule="evenodd" clip-rule="evenodd" d="M317.466 136.711H306.198L297.748 104.359C297.347 102.871 296.495 101.556 295.243 100.935C292.117 99.3772 288.672 98.1371 284.914 97.5116V96.2661H303.066C305.571 96.2661 307.45 98.1371 307.763 100.31L312.148 123.646L323.41 96.2661H334.365L317.466 136.711ZM340.628 136.711H329.986L338.749 96.2661H349.391L340.628 136.711ZM363.158 107.47C363.472 105.292 365.351 104.047 367.543 104.047C370.987 103.734 374.74 104.359 377.871 105.912L379.75 97.2043C376.619 95.9588 373.174 95.3333 370.048 95.3333C359.719 95.3333 352.204 100.935 352.204 108.711C352.204 114.625 357.527 117.731 361.285 119.602C365.351 121.468 366.916 122.713 366.603 124.579C366.603 127.377 363.472 128.623 360.346 128.623C356.588 128.623 352.83 127.69 349.391 126.132L347.512 134.845C351.27 136.398 355.335 137.023 359.093 137.023C370.674 137.331 377.871 131.734 377.871 123.333C377.871 112.755 363.158 112.134 363.158 107.47ZM415.114 136.711L406.665 96.2661H397.589C395.71 96.2661 393.831 97.5116 393.205 99.3772L377.558 136.711H388.513L390.699 130.801H404.159L405.412 136.711H415.114ZM399.154 107.158L402.281 122.401H393.518L399.154 107.158Z" fill="#172B85"/>
<rect x="51.325" y="52.325" width="183.35" height="125.35" rx="14.55" fill="white" stroke="#D9D9D9" stroke-width="2.65"/>
<path fill-rule="evenodd" clip-rule="evenodd" d="M144.329 142.504C137.996 147.988 129.782 151.298 120.806 151.298C100.779 151.298 84.5429 134.815 84.5429 114.483C84.5429 94.1497 100.779 77.6666 120.806 77.6666C129.782 77.6666 137.996 80.9773 144.329 86.4615C150.661 80.9773 158.875 77.6667 167.851 77.6667C187.879 77.6667 204.114 94.1497 204.114 114.483C204.114 134.815 187.879 151.298 167.851 151.298C158.875 151.298 150.661 147.988 144.329 142.504Z" fill="#ED0006"/>
<path fill-rule="evenodd" clip-rule="evenodd" d="M144.329 142.504C152.126 135.751 157.07 125.703 157.07 114.483C157.07 103.262 152.126 93.2142 144.329 86.4615C150.661 80.9773 158.875 77.6666 167.851 77.6666C187.879 77.6666 204.114 94.1497 204.114 114.483C204.114 134.815 187.879 151.298 167.851 151.298C158.875 151.298 150.661 147.988 144.329 142.504Z" fill="#F9A000"/>
<path fill-rule="evenodd" clip-rule="evenodd" d="M144.329 142.504C152.126 135.751 157.07 125.703 157.07 114.483C157.07 103.262 152.126 93.2144 144.329 86.4617C136.532 93.2144 131.588 103.262 131.588 114.483C131.588 125.703 136.532 135.751 144.329 142.504Z" fill="#FF5E00"/>
<g filter="url(#filter0_d_970_6)">
<rect x="473.323" y="205.323" width="183.354" height="125.354" rx="14.5521" fill="white" stroke="#D9D9D9" stroke-width="2.64583"/>
<path fill-rule="evenodd" clip-rule="evenodd" d="M559.846 288.043V271.931H568.132C571.527 271.931 574.393 270.79 576.729 268.538L577.29 267.967C581.557 263.305 581.277 256.042 576.729 251.728C574.455 249.445 571.34 248.208 568.132 248.271H554.831V288.043H559.846ZM559.846 267.047V253.155H568.258C570.065 253.155 571.779 253.853 573.056 255.122C575.767 257.786 575.829 262.226 573.212 264.985C571.935 266.349 570.128 267.11 568.258 267.047H559.846ZM600.684 262.956C598.534 260.958 595.606 259.943 591.899 259.943C587.133 259.943 583.551 261.719 581.184 265.239L585.607 268.062C587.227 265.652 589.438 264.446 592.242 264.446C594.017 264.446 595.731 265.112 597.07 266.318C598.378 267.459 599.126 269.109 599.126 270.853V272.026C597.195 270.948 594.765 270.377 591.775 270.377C588.286 270.377 585.482 271.202 583.395 272.883C581.308 274.564 580.249 276.784 580.249 279.607C580.187 282.176 581.277 284.618 583.208 286.267C585.171 288.043 587.663 288.931 590.591 288.931C594.049 288.931 596.79 287.377 598.877 284.269H599.095V288.043H603.892V271.265C603.892 267.745 602.833 264.954 600.684 262.956ZM587.072 283.032C586.044 282.271 585.421 281.034 585.421 279.702C585.421 278.211 586.106 276.974 587.446 275.991C588.817 275.008 590.53 274.5 592.555 274.5C595.359 274.469 597.54 275.103 599.098 276.371C599.098 278.528 598.257 280.399 596.605 281.985C595.11 283.508 593.085 284.364 590.966 284.364C589.564 284.396 588.193 283.92 587.072 283.032ZM614.67 300L631.429 260.831H625.978L618.221 280.368H618.128L610.184 260.831H604.733L615.729 286.299L609.499 300H614.67Z" fill="#3C4043"/>
<path d="M542.532 268.442C542.532 266.888 542.407 265.334 542.158 263.812H521.007V272.597H533.124C532.626 275.42 531.006 277.957 528.639 279.543V285.252H535.866C540.102 281.287 542.532 275.42 542.532 268.442Z" fill="#4285F4"/>
<path d="M521.008 290.771C527.051 290.771 532.16 288.741 535.867 285.252L528.64 279.543C526.615 280.939 524.03 281.732 521.008 281.732C515.152 281.732 510.199 277.704 508.423 272.312H500.979V278.211C504.779 285.918 512.535 290.771 521.008 290.771Z" fill="#34A853"/>
<path d="M508.424 272.312C507.49 269.489 507.49 266.413 508.424 263.558V257.691H500.978C497.769 264.129 497.769 271.741 500.978 278.179L508.424 272.312Z" fill="#FBBC04"/>
<path d="M521.008 254.139C524.217 254.075 527.3 255.312 529.605 257.564L536.022 251.03C531.942 247.161 526.584 245.036 521.008 245.099C512.535 245.099 504.779 249.984 500.979 257.691L508.423 263.59C510.199 258.166 515.152 254.139 521.008 254.139Z" fill="#EA4335"/>
</g>
<defs>
<filter id="filter0_d_970_6" x="452" y="184" width="226" height="168" filterUnits="userSpaceOnUse" color-interpolation-filters="sRGB">
<feFlood flood-opacity="0" result="BackgroundImageFix"/>
<feColorMatrix in="SourceAlpha" type="matrix" values="0 0 0 0 0 0 0 0 0 0 0 0 0 0 0 0 0 0 127 0" result="hardAlpha"/>
<feOffset/>
<feGaussianBlur stdDeviation="10"/>
<feComposite in2="hardAlpha" operator="out"/>
<feColorMatrix type="matrix" values="0 0 0 0 0 0 0 0 0 0 0 0 0 0 0 0 0 0 0.07 0"/>
<feBlend mode="normal" in2="BackgroundImageFix" result="effect1_dropShadow_970_6"/>
<feBlend mode="normal" in="SourceGraphic" in2="effect1_dropShadow_970_6" result="shape"/>
</filter>
</defs>
</svg>
