<svg width="240" height="160" viewBox="0 0 240 160" fill="none" xmlns="http://www.w3.org/2000/svg">
<rect width="240" height="160" fill="white"/>
<path d="M70.8931 144.273V111.545H72.9897V144.273H70.8931ZM76.94 122.016C76.8207 120.899 76.3178 120.03 75.4315 119.408C74.5536 118.786 73.4116 118.474 72.0053 118.474C71.0167 118.474 70.1687 118.624 69.4613 118.922C68.7539 119.22 68.2127 119.625 67.8377 120.136C67.4627 120.648 67.271 121.232 67.2624 121.888C67.2624 122.433 67.386 122.906 67.6332 123.307C67.8888 123.707 68.234 124.048 68.6687 124.33C69.1033 124.602 69.5849 124.832 70.1133 125.02C70.6417 125.207 71.1744 125.365 71.7113 125.493L74.1658 126.107C75.1545 126.337 76.1048 126.648 77.0167 127.04C77.9371 127.432 78.7596 127.926 79.484 128.523C80.217 129.119 80.7965 129.839 81.2227 130.683C81.6488 131.527 81.8619 132.516 81.8619 133.649C81.8619 135.183 81.4698 136.534 80.6857 137.702C79.9016 138.861 78.7681 139.768 77.2852 140.425C75.8107 141.072 74.0252 141.396 71.9286 141.396C69.8917 141.396 68.1232 141.081 66.6232 140.45C65.1317 139.82 63.9641 138.899 63.1204 137.689C62.2852 136.479 61.8335 135.004 61.7653 133.266H66.4315C66.4996 134.178 66.7809 134.936 67.2752 135.541C67.7695 136.146 68.413 136.598 69.2056 136.896C70.0067 137.195 70.9016 137.344 71.8903 137.344C72.9215 137.344 73.8249 137.19 74.6005 136.884C75.3846 136.568 75.9982 136.134 76.4414 135.58C76.8846 135.017 77.1104 134.361 77.119 133.611C77.1104 132.929 76.9102 132.366 76.5181 131.923C76.1261 131.472 75.5763 131.097 74.869 130.798C74.1701 130.491 73.3519 130.219 72.4144 129.98L69.4357 129.213C67.2795 128.659 65.5749 127.82 64.3221 126.695C63.0778 125.561 62.4556 124.057 62.4556 122.182C62.4556 120.639 62.8732 119.288 63.7085 118.129C64.5522 116.97 65.6985 116.071 67.1474 115.432C68.5962 114.784 70.2369 114.46 72.0692 114.46C73.9272 114.46 75.555 114.784 76.9528 115.432C78.359 116.071 79.4627 116.962 80.2639 118.104C81.065 119.237 81.4783 120.541 81.5039 122.016H76.94ZM96.4837 114.818V141H91.7408V119.433H91.5874L85.4638 123.345V118.999L91.9709 114.818H96.4837ZM112.221 114.46C113.474 114.469 114.692 114.69 115.877 115.125C117.07 115.551 118.144 116.25 119.099 117.222C120.053 118.185 120.812 119.476 121.374 121.095C121.937 122.714 122.218 124.717 122.218 127.104C122.227 129.354 121.988 131.365 121.502 133.138C121.025 134.902 120.339 136.393 119.444 137.612C118.549 138.831 117.471 139.76 116.21 140.399C114.948 141.038 113.529 141.358 111.952 141.358C110.299 141.358 108.833 141.034 107.555 140.386C106.285 139.739 105.258 138.852 104.474 137.727C103.69 136.602 103.208 135.315 103.029 133.866H107.695C107.934 134.906 108.42 135.733 109.153 136.347C109.894 136.952 110.827 137.254 111.952 137.254C113.768 137.254 115.165 136.466 116.146 134.889C117.126 133.312 117.616 131.122 117.616 128.318H117.437C117.019 129.068 116.478 129.716 115.813 130.261C115.148 130.798 114.394 131.212 113.55 131.501C112.715 131.791 111.829 131.936 110.891 131.936C109.357 131.936 107.977 131.57 106.749 130.837C105.531 130.104 104.563 129.098 103.847 127.82C103.14 126.541 102.782 125.08 102.773 123.435C102.773 121.73 103.165 120.2 103.95 118.845C104.742 117.482 105.846 116.408 107.261 115.624C108.675 114.831 110.329 114.443 112.221 114.46ZM112.234 118.295C111.313 118.295 110.482 118.521 109.741 118.973C109.008 119.416 108.428 120.021 108.002 120.788C107.585 121.547 107.376 122.395 107.376 123.332C107.384 124.261 107.593 125.105 108.002 125.864C108.42 126.622 108.987 127.223 109.702 127.666C110.427 128.109 111.254 128.331 112.183 128.331C112.873 128.331 113.516 128.199 114.113 127.935C114.71 127.67 115.229 127.304 115.673 126.835C116.124 126.358 116.474 125.817 116.721 125.212C116.977 124.607 117.1 123.967 117.092 123.294C117.092 122.399 116.879 121.572 116.452 120.814C116.035 120.055 115.46 119.446 114.727 118.986C114.002 118.526 113.171 118.295 112.234 118.295ZM128.358 141.281C127.582 141.281 126.917 141.009 126.363 140.463C125.809 139.918 125.537 139.253 125.545 138.469C125.537 137.702 125.809 137.045 126.363 136.5C126.917 135.955 127.582 135.682 128.358 135.682C129.108 135.682 129.76 135.955 130.314 136.5C130.876 137.045 131.162 137.702 131.17 138.469C131.162 138.989 131.025 139.462 130.761 139.888C130.505 140.314 130.164 140.655 129.738 140.911C129.321 141.158 128.86 141.281 128.358 141.281ZM144.6 114.46C145.853 114.469 147.071 114.69 148.256 115.125C149.449 115.551 150.523 116.25 151.478 117.222C152.432 118.185 153.191 119.476 153.753 121.095C154.316 122.714 154.597 124.717 154.597 127.104C154.605 129.354 154.367 131.365 153.881 133.138C153.404 134.902 152.718 136.393 151.823 137.612C150.928 138.831 149.85 139.76 148.588 140.399C147.327 141.038 145.908 141.358 144.331 141.358C142.678 141.358 141.212 141.034 139.934 140.386C138.664 139.739 137.637 138.852 136.853 137.727C136.069 136.602 135.587 135.315 135.408 133.866H140.074C140.313 134.906 140.799 135.733 141.532 136.347C142.273 136.952 143.206 137.254 144.331 137.254C146.147 137.254 147.544 136.466 148.525 134.889C149.505 133.312 149.995 131.122 149.995 128.318H149.816C149.398 129.068 148.857 129.716 148.192 130.261C147.527 130.798 146.773 131.212 145.929 131.501C145.094 131.791 144.208 131.936 143.27 131.936C141.736 131.936 140.355 131.57 139.128 130.837C137.909 130.104 136.942 129.098 136.226 127.82C135.519 126.541 135.161 125.08 135.152 123.435C135.152 121.73 135.544 120.2 136.328 118.845C137.121 117.482 138.225 116.408 139.64 115.624C141.054 114.831 142.708 114.443 144.6 114.46ZM144.613 118.295C143.692 118.295 142.861 118.521 142.12 118.973C141.387 119.416 140.807 120.021 140.381 120.788C139.963 121.547 139.755 122.395 139.755 123.332C139.763 124.261 139.972 125.105 140.381 125.864C140.799 126.622 141.365 127.223 142.081 127.666C142.806 128.109 143.632 128.331 144.561 128.331C145.252 128.331 145.895 128.199 146.492 127.935C147.088 127.67 147.608 127.304 148.051 126.835C148.503 126.358 148.853 125.817 149.1 125.212C149.355 124.607 149.479 123.967 149.471 123.294C149.471 122.399 149.257 121.572 148.831 120.814C148.414 120.055 147.838 119.446 147.105 118.986C146.381 118.526 145.55 118.295 144.613 118.295ZM167.944 114.46C169.196 114.469 170.415 114.69 171.6 115.125C172.793 115.551 173.867 116.25 174.821 117.222C175.776 118.185 176.534 119.476 177.097 121.095C177.659 122.714 177.941 124.717 177.941 127.104C177.949 129.354 177.711 131.365 177.225 133.138C176.748 134.902 176.061 136.393 175.167 137.612C174.272 138.831 173.194 139.76 171.932 140.399C170.671 141.038 169.252 141.358 167.675 141.358C166.022 141.358 164.556 141.034 163.277 140.386C162.007 139.739 160.98 138.852 160.196 137.727C159.412 136.602 158.931 135.315 158.752 133.866H163.418C163.657 134.906 164.142 135.733 164.875 136.347C165.617 136.952 166.55 137.254 167.675 137.254C169.49 137.254 170.888 136.466 171.868 134.889C172.848 133.312 173.338 131.122 173.338 128.318H173.159C172.742 129.068 172.201 129.716 171.536 130.261C170.871 130.798 170.117 131.212 169.273 131.501C168.438 131.791 167.551 131.936 166.614 131.936C165.08 131.936 163.699 131.57 162.472 130.837C161.253 130.104 160.286 129.098 159.57 127.82C158.863 126.541 158.505 125.08 158.496 123.435C158.496 121.73 158.888 120.2 159.672 118.845C160.465 117.482 161.569 116.408 162.983 115.624C164.398 114.831 166.051 114.443 167.944 114.46ZM167.956 118.295C167.036 118.295 166.205 118.521 165.463 118.973C164.73 119.416 164.151 120.021 163.725 120.788C163.307 121.547 163.098 122.395 163.098 123.332C163.107 124.261 163.316 125.105 163.725 125.864C164.142 126.622 164.709 127.223 165.425 127.666C166.15 128.109 166.976 128.331 167.905 128.331C168.596 128.331 169.239 128.199 169.836 127.935C170.432 127.67 170.952 127.304 171.395 126.835C171.847 126.358 172.196 125.817 172.444 125.212C172.699 124.607 172.823 123.967 172.814 123.294C172.814 122.399 172.601 121.572 172.175 120.814C171.757 120.055 171.182 119.446 170.449 118.986C169.725 118.526 168.894 118.295 167.956 118.295Z" fill="black"/>
<path d="M67.8682 98.2727V65.5455H69.9648V98.2727H67.8682ZM73.9151 76.0156C73.7958 74.8991 73.293 74.0298 72.4066 73.4077C71.5288 72.7855 70.3867 72.4744 68.9805 72.4744C67.9918 72.4744 67.1438 72.6236 66.4364 72.9219C65.729 73.2202 65.1878 73.625 64.8128 74.1364C64.4378 74.6477 64.2461 75.2315 64.2376 75.8878C64.2376 76.4332 64.3611 76.9062 64.6083 77.3068C64.864 77.7074 65.2091 78.0483 65.6438 78.3295C66.0785 78.6023 66.56 78.8324 67.0884 79.0199C67.6168 79.2074 68.1495 79.3651 68.6864 79.4929L71.141 80.1065C72.1296 80.3366 73.0799 80.6477 73.9918 81.0398C74.9123 81.4318 75.7347 81.9261 76.4591 82.5227C77.1921 83.1193 77.7716 83.8395 78.1978 84.6832C78.6239 85.527 78.837 86.5156 78.837 87.6491C78.837 89.1832 78.4449 90.5341 77.6609 91.7017C76.8768 92.8608 75.7432 93.7685 74.2603 94.4247C72.7859 95.0724 71.0003 95.3963 68.9038 95.3963C66.8668 95.3963 65.0984 95.081 63.5984 94.4503C62.1069 93.8196 60.9393 92.8991 60.0955 91.6889C59.2603 90.4787 58.8086 89.0043 58.7404 87.2656H63.4066C63.4748 88.1776 63.756 88.9361 64.2503 89.5412C64.7447 90.1463 65.3881 90.598 66.1807 90.8963C66.9819 91.1946 67.8768 91.3438 68.8654 91.3438C69.8966 91.3438 70.8001 91.1903 71.5756 90.8835C72.3597 90.5682 72.9734 90.1335 73.4165 89.5795C73.8597 89.017 74.0856 88.3608 74.0941 87.6108C74.0856 86.929 73.8853 86.3665 73.4932 85.9233C73.1012 85.4716 72.5515 85.0966 71.8441 84.7983C71.1452 84.4915 70.327 84.2187 69.3895 83.9801L66.4109 83.2131C64.2546 82.6591 62.5501 81.8196 61.2972 80.6946C60.0529 79.5611 59.4307 78.0568 59.4307 76.1818C59.4307 74.6392 59.8484 73.2884 60.6836 72.1293C61.5273 70.9702 62.6736 70.071 64.1225 69.4318C65.5714 68.7841 67.212 68.4602 69.0444 68.4602C70.9023 68.4602 72.5302 68.7841 73.9279 69.4318C75.3341 70.071 76.4378 70.9616 77.239 72.1037C78.0401 73.2372 78.4535 74.5412 78.479 76.0156H73.9151ZM91.9119 95.358C90.2074 95.358 88.6818 95.0384 87.3352 94.3991C85.9886 93.7514 84.919 92.8651 84.1264 91.7401C83.3423 90.6151 82.9247 89.3281 82.8736 87.8793H87.4758C87.5611 88.9531 88.0256 89.831 88.8693 90.5128C89.7131 91.1861 90.7273 91.5227 91.9119 91.5227C92.8409 91.5227 93.6676 91.3097 94.392 90.8835C95.1165 90.4574 95.6875 89.8651 96.1051 89.1065C96.5227 88.348 96.7273 87.483 96.7187 86.5114C96.7273 85.5227 96.5185 84.6449 96.0923 83.8778C95.6662 83.1108 95.0824 82.5099 94.3409 82.0753C93.5994 81.6321 92.7471 81.4105 91.7841 81.4105C91 81.402 90.2287 81.5469 89.4702 81.8452C88.7116 82.1435 88.1108 82.5355 87.6676 83.0213L83.3849 82.3182L84.7528 68.8182H99.9403V72.7812H88.6775L87.9233 79.723H88.0767C88.5625 79.152 89.2486 78.679 90.1349 78.304C91.0213 77.9205 91.9929 77.7287 93.0497 77.7287C94.6349 77.7287 96.0497 78.1037 97.294 78.8537C98.5383 79.5952 99.5185 80.6179 100.234 81.9219C100.95 83.2259 101.308 84.7173 101.308 86.3963C101.308 88.1264 100.908 89.669 100.107 91.0241C99.3139 92.3707 98.2102 93.4318 96.7954 94.2074C95.3892 94.9744 93.7613 95.358 91.9119 95.358ZM114.68 68.4602C115.933 68.4687 117.152 68.6903 118.337 69.125C119.53 69.5511 120.604 70.25 121.558 71.2216C122.513 72.1847 123.271 73.4759 123.834 75.0952C124.396 76.7145 124.678 78.7173 124.678 81.1037C124.686 83.3537 124.447 85.3651 123.962 87.1378C123.484 88.902 122.798 90.3935 121.903 91.6122C121.009 92.831 119.93 93.7599 118.669 94.3991C117.408 95.0384 115.989 95.358 114.412 95.358C112.759 95.358 111.293 95.0341 110.014 94.3864C108.744 93.7386 107.717 92.8523 106.933 91.7273C106.149 90.6023 105.668 89.3153 105.489 87.8665H110.155C110.393 88.9062 110.879 89.733 111.612 90.3466C112.354 90.9517 113.287 91.2543 114.412 91.2543C116.227 91.2543 117.625 90.4659 118.605 88.8892C119.585 87.3125 120.075 85.1222 120.075 82.3182H119.896C119.479 83.0682 118.937 83.7159 118.273 84.2614C117.608 84.7983 116.854 85.2116 116.01 85.5014C115.175 85.7912 114.288 85.9361 113.351 85.9361C111.817 85.9361 110.436 85.5696 109.209 84.8366C107.99 84.1037 107.023 83.098 106.307 81.8196C105.599 80.5412 105.241 79.0795 105.233 77.4347C105.233 75.7301 105.625 74.2003 106.409 72.8452C107.202 71.4815 108.305 70.4077 109.72 69.6236C111.135 68.831 112.788 68.4432 114.68 68.4602ZM114.693 72.2955C113.773 72.2955 112.942 72.5213 112.2 72.973C111.467 73.4162 110.888 74.0213 110.462 74.7884C110.044 75.5469 109.835 76.3949 109.835 77.3324C109.844 78.2614 110.053 79.1051 110.462 79.8636C110.879 80.6222 111.446 81.223 112.162 81.6662C112.886 82.1094 113.713 82.331 114.642 82.331C115.332 82.331 115.976 82.1989 116.572 81.9347C117.169 81.6705 117.689 81.304 118.132 80.8352C118.584 80.358 118.933 79.8168 119.18 79.2116C119.436 78.6065 119.56 77.9673 119.551 77.294C119.551 76.3991 119.338 75.5724 118.912 74.8139C118.494 74.0554 117.919 73.446 117.186 72.9858C116.462 72.5256 115.631 72.2955 114.693 72.2955ZM130.817 95.2812C130.042 95.2812 129.377 95.0085 128.823 94.4631C128.269 93.9176 127.996 93.2528 128.005 92.4688C127.996 91.7017 128.269 91.0455 128.823 90.5C129.377 89.9545 130.042 89.6818 130.817 89.6818C131.567 89.6818 132.219 89.9545 132.773 90.5C133.336 91.0455 133.621 91.7017 133.63 92.4688C133.621 92.9886 133.485 93.4616 133.221 93.8878C132.965 94.3139 132.624 94.6548 132.198 94.9105C131.78 95.1577 131.32 95.2812 130.817 95.2812ZM147.059 68.4602C148.312 68.4687 149.531 68.6903 150.716 69.125C151.909 69.5511 152.983 70.25 153.937 71.2216C154.892 72.1847 155.65 73.4759 156.213 75.0952C156.775 76.7145 157.056 78.7173 157.056 81.1037C157.065 83.3537 156.826 85.3651 156.341 87.1378C155.863 88.902 155.177 90.3935 154.282 91.6122C153.387 92.831 152.309 93.7599 151.048 94.3991C149.787 95.0384 148.368 95.358 146.791 95.358C145.137 95.358 143.672 95.0341 142.393 94.3864C141.123 93.7386 140.096 92.8523 139.312 91.7273C138.528 90.6023 138.047 89.3153 137.868 87.8665H142.534C142.772 88.9062 143.258 89.733 143.991 90.3466C144.733 90.9517 145.666 91.2543 146.791 91.2543C148.606 91.2543 150.004 90.4659 150.984 88.8892C151.964 87.3125 152.454 85.1222 152.454 82.3182H152.275C151.858 83.0682 151.316 83.7159 150.652 84.2614C149.987 84.7983 149.233 85.2116 148.389 85.5014C147.554 85.7912 146.667 85.9361 145.73 85.9361C144.196 85.9361 142.815 85.5696 141.588 84.8366C140.369 84.1037 139.402 83.098 138.686 81.8196C137.978 80.5412 137.62 79.0795 137.612 77.4347C137.612 75.7301 138.004 74.2003 138.788 72.8452C139.581 71.4815 140.684 70.4077 142.099 69.6236C143.514 68.831 145.167 68.4432 147.059 68.4602ZM147.072 72.2955C146.152 72.2955 145.321 72.5213 144.579 72.973C143.846 73.4162 143.267 74.0213 142.841 74.7884C142.423 75.5469 142.214 76.3949 142.214 77.3324C142.223 78.2614 142.431 79.1051 142.841 79.8636C143.258 80.6222 143.825 81.223 144.541 81.6662C145.265 82.1094 146.092 82.331 147.021 82.331C147.711 82.331 148.355 82.1989 148.951 81.9347C149.548 81.6705 150.068 81.304 150.511 80.8352C150.963 80.358 151.312 79.8168 151.559 79.2116C151.815 78.6065 151.939 77.9673 151.93 77.294C151.93 76.3991 151.717 75.5724 151.291 74.8139C150.873 74.0554 150.298 73.446 149.565 72.9858C148.841 72.5256 148.01 72.2955 147.072 72.2955ZM170.403 68.4602C171.656 68.4687 172.875 68.6903 174.059 69.125C175.252 69.5511 176.326 70.25 177.281 71.2216C178.235 72.1847 178.994 73.4759 179.556 75.0952C180.119 76.7145 180.4 78.7173 180.4 81.1037C180.409 83.3537 180.17 85.3651 179.684 87.1378C179.207 88.902 178.521 90.3935 177.626 91.6122C176.731 92.831 175.653 93.7599 174.392 94.3991C173.13 95.0384 171.711 95.358 170.135 95.358C168.481 95.358 167.015 95.0341 165.737 94.3864C164.467 93.7386 163.44 92.8523 162.656 91.7273C161.872 90.6023 161.39 89.3153 161.211 87.8665H165.877C166.116 88.9062 166.602 89.733 167.335 90.3466C168.076 90.9517 169.01 91.2543 170.135 91.2543C171.95 91.2543 173.348 90.4659 174.328 88.8892C175.308 87.3125 175.798 85.1222 175.798 82.3182H175.619C175.201 83.0682 174.66 83.7159 173.995 84.2614C173.331 84.7983 172.576 85.2116 171.733 85.5014C170.897 85.7912 170.011 85.9361 169.073 85.9361C167.539 85.9361 166.159 85.5696 164.931 84.8366C163.713 84.1037 162.745 83.098 162.029 81.8196C161.322 80.5412 160.964 79.0795 160.956 77.4347C160.956 75.7301 161.348 74.2003 162.132 72.8452C162.924 71.4815 164.028 70.4077 165.443 69.6236C166.858 68.831 168.511 68.4432 170.403 68.4602ZM170.416 72.2955C169.495 72.2955 168.664 72.5213 167.923 72.973C167.19 73.4162 166.61 74.0213 166.184 74.7884C165.767 75.5469 165.558 76.3949 165.558 77.3324C165.566 78.2614 165.775 79.1051 166.184 79.8636C166.602 80.6222 167.169 81.223 167.885 81.6662C168.609 82.1094 169.436 82.331 170.365 82.331C171.055 82.331 171.698 82.1989 172.295 81.9347C172.892 81.6705 173.412 81.304 173.855 80.8352C174.306 80.358 174.656 79.8168 174.903 79.2116C175.159 78.6065 175.282 77.9673 175.274 77.294C175.274 76.3991 175.061 75.5724 174.635 74.8139C174.217 74.0554 173.642 73.446 172.909 72.9858C172.184 72.5256 171.353 72.2955 170.416 72.2955Z" fill="black"/>
<rect width="139.444" height="3.99951" transform="matrix(0.984685 -0.174341 0.172958 0.984929 51 92.2)" fill="black"/>
<rect x="45" y="13" width="150" height="30" rx="7" stroke="#D0D0D0" stroke-width="2"/>
<path d="M59.8189 33V22.8182H61.0518V31.9062H65.7848V33H59.8189ZM67.5348 33V25.3636H68.7081V33H67.5348ZM68.1314 24.0909C67.9027 24.0909 67.7055 24.013 67.5398 23.8572C67.3774 23.7015 67.2962 23.5142 67.2962 23.2955C67.2962 23.0767 67.3774 22.8894 67.5398 22.7337C67.7055 22.5779 67.9027 22.5 68.1314 22.5C68.3601 22.5 68.5556 22.5779 68.718 22.7337C68.8838 22.8894 68.9666 23.0767 68.9666 23.2955C68.9666 23.5142 68.8838 23.7015 68.718 23.8572C68.5556 24.013 68.3601 24.0909 68.1314 24.0909ZM70.8571 33V25.3636H71.9906V26.5568H72.09C72.2491 26.1491 72.506 25.8326 72.8606 25.6072C73.2153 25.3786 73.6412 25.2642 74.1383 25.2642C74.6421 25.2642 75.0614 25.3786 75.3961 25.6072C75.7342 25.8326 75.9977 26.1491 76.1866 26.5568H76.2662C76.4617 26.1624 76.755 25.8492 77.1461 25.6172C77.5372 25.3819 78.0062 25.2642 78.5531 25.2642C79.2359 25.2642 79.7943 25.478 80.2285 25.9055C80.6627 26.3298 80.8798 26.991 80.8798 27.8892V33H79.7065V27.8892C79.7065 27.3258 79.5524 26.9231 79.2441 26.6811C78.9359 26.4392 78.573 26.3182 78.1554 26.3182C77.6184 26.3182 77.2025 26.4806 76.9075 26.8054C76.6125 27.1269 76.465 27.5346 76.465 28.0284V33H75.2718V27.7699C75.2718 27.3357 75.131 26.986 74.8493 26.7209C74.5675 26.4524 74.2046 26.3182 73.7605 26.3182C73.4556 26.3182 73.1705 26.3994 72.9054 26.5618C72.6435 26.7242 72.4314 26.9496 72.269 27.2379C72.1099 27.523 72.0304 27.8527 72.0304 28.2273V33H70.8571ZM83.025 33V25.3636H84.1983V33H83.025ZM83.6216 24.0909C83.3929 24.0909 83.1957 24.013 83.03 23.8572C82.8676 23.7015 82.7864 23.5142 82.7864 23.2955C82.7864 23.0767 82.8676 22.8894 83.03 22.7337C83.1957 22.5779 83.3929 22.5 83.6216 22.5C83.8503 22.5 84.0459 22.5779 84.2083 22.7337C84.374 22.8894 84.4569 23.0767 84.4569 23.2955C84.4569 23.5142 84.374 23.7015 84.2083 23.8572C84.0459 24.013 83.8503 24.0909 83.6216 24.0909ZM89.6683 25.3636V26.358H85.7109V25.3636H89.6683ZM86.8643 23.5341H88.0376V30.8125C88.0376 31.1439 88.0857 31.3925 88.1818 31.5582C88.2813 31.7206 88.4072 31.83 88.5597 31.8864C88.7154 31.9394 88.8795 31.9659 89.0518 31.9659C89.1811 31.9659 89.2872 31.9593 89.37 31.946C89.4529 31.9295 89.5192 31.9162 89.5689 31.9062L89.8075 32.9602C89.728 32.9901 89.617 33.0199 89.4744 33.0497C89.3319 33.0829 89.1513 33.0994 88.9325 33.0994C88.6011 33.0994 88.2763 33.0282 87.9581 32.8857C87.6432 32.7431 87.3814 32.526 87.1726 32.2344C86.9671 31.9427 86.8643 31.5748 86.8643 31.1307V23.5341ZM94.5529 33.1591C93.8171 33.1591 93.1824 32.9967 92.6488 32.6719C92.1185 32.3438 91.7092 31.8864 91.4208 31.2997C91.1358 30.7098 90.9933 30.0237 90.9933 29.2415C90.9933 28.4593 91.1358 27.7699 91.4208 27.1733C91.7092 26.5734 92.1102 26.1061 92.6239 25.7713C93.141 25.4332 93.7442 25.2642 94.4336 25.2642C94.8313 25.2642 95.2241 25.3305 95.6119 25.4631C95.9996 25.5956 96.3526 25.8111 96.6708 26.1094C96.989 26.4044 97.2425 26.7955 97.4315 27.2827C97.6204 27.7699 97.7148 28.3698 97.7148 29.0824V29.5795H91.8285V28.5653H96.5217C96.5217 28.1345 96.4355 27.75 96.2631 27.4119C96.0941 27.0739 95.8522 26.8071 95.5373 26.6115C95.2257 26.416 94.8578 26.3182 94.4336 26.3182C93.9663 26.3182 93.5619 26.4342 93.2205 26.6662C92.8825 26.8949 92.6223 27.1932 92.44 27.5611C92.2577 27.929 92.1665 28.3234 92.1665 28.7443V29.4205C92.1665 29.9972 92.266 30.486 92.4648 30.8871C92.667 31.2848 92.9471 31.5881 93.305 31.7969C93.663 32.0024 94.079 32.1051 94.5529 32.1051C94.8612 32.1051 95.1396 32.062 95.3881 31.9759C95.64 31.8864 95.8571 31.7538 96.0394 31.5781C96.2217 31.3991 96.3626 31.1771 96.462 30.9119L97.5955 31.2301C97.4762 31.6146 97.2757 31.9527 96.994 32.2443C96.7122 32.5327 96.3642 32.758 95.9499 32.9205C95.5356 33.0795 95.07 33.1591 94.5529 33.1591ZM102.383 33.1591C101.747 33.1591 101.185 32.9983 100.698 32.6768C100.211 32.352 99.8294 31.8946 99.5543 31.3047C99.2792 30.7114 99.1417 30.0104 99.1417 29.2017C99.1417 28.3996 99.2792 27.7036 99.5543 27.1136C99.8294 26.5237 100.212 26.0679 100.703 25.7464C101.193 25.425 101.76 25.2642 102.403 25.2642C102.9 25.2642 103.293 25.3471 103.581 25.5128C103.873 25.6752 104.095 25.8608 104.248 26.0696C104.403 26.2751 104.524 26.4441 104.61 26.5767H104.71V22.8182H105.883V33H104.75V31.8267H104.61C104.524 31.9659 104.402 32.1416 104.243 32.3537C104.083 32.5625 103.856 32.7498 103.561 32.9155C103.266 33.0779 102.874 33.1591 102.383 33.1591ZM102.542 32.1051C103.013 32.1051 103.411 31.9825 103.735 31.7372C104.06 31.4886 104.307 31.1456 104.476 30.7081C104.645 30.2673 104.73 29.7585 104.73 29.1818C104.73 28.6117 104.647 28.1129 104.481 27.6854C104.315 27.2545 104.07 26.9197 103.745 26.6811C103.421 26.4392 103.02 26.3182 102.542 26.3182C102.045 26.3182 101.631 26.4458 101.299 26.701C100.971 26.9529 100.724 27.2959 100.559 27.7301C100.396 28.161 100.315 28.6449 100.315 29.1818C100.315 29.7254 100.398 30.2192 100.564 30.6634C100.733 31.1042 100.981 31.4555 101.309 31.7173C101.641 31.9759 102.052 32.1051 102.542 32.1051ZM111.735 23.9119V22.8182H119.371V23.9119H116.169V33H114.936V23.9119H111.735ZM121.115 33V25.3636H122.288V33H121.115ZM121.711 24.0909C121.483 24.0909 121.286 24.013 121.12 23.8572C120.957 23.7015 120.876 23.5142 120.876 23.2955C120.876 23.0767 120.957 22.8894 121.12 22.7337C121.286 22.5779 121.483 22.5 121.711 22.5C121.94 22.5 122.136 22.5779 122.298 22.7337C122.464 22.8894 122.547 23.0767 122.547 23.2955C122.547 23.5142 122.464 23.7015 122.298 23.8572C122.136 24.013 121.94 24.0909 121.711 24.0909ZM124.437 33V25.3636H125.571V26.5568H125.67C125.829 26.1491 126.086 25.8326 126.441 25.6072C126.795 25.3786 127.221 25.2642 127.718 25.2642C128.222 25.2642 128.641 25.3786 128.976 25.6072C129.314 25.8326 129.578 26.1491 129.767 26.5568H129.846C130.042 26.1624 130.335 25.8492 130.726 25.6172C131.117 25.3819 131.586 25.2642 132.133 25.2642C132.816 25.2642 133.374 25.478 133.809 25.9055C134.243 26.3298 134.46 26.991 134.46 27.8892V33H133.287V27.8892C133.287 27.3258 133.132 26.9231 132.824 26.6811C132.516 26.4392 132.153 26.3182 131.735 26.3182C131.199 26.3182 130.783 26.4806 130.488 26.8054C130.193 27.1269 130.045 27.5346 130.045 28.0284V33H128.852V27.7699C128.852 27.3357 128.711 26.986 128.429 26.7209C128.148 26.4524 127.785 26.3182 127.341 26.3182C127.036 26.3182 126.751 26.3994 126.485 26.5618C126.224 26.7242 126.011 26.9496 125.849 27.2379C125.69 27.523 125.61 27.8527 125.61 28.2273V33H124.437ZM139.807 33.1591C139.071 33.1591 138.436 32.9967 137.903 32.6719C137.372 32.3438 136.963 31.8864 136.675 31.2997C136.39 30.7098 136.247 30.0237 136.247 29.2415C136.247 28.4593 136.39 27.7699 136.675 27.1733C136.963 26.5734 137.364 26.1061 137.878 25.7713C138.395 25.4332 138.998 25.2642 139.688 25.2642C140.085 25.2642 140.478 25.3305 140.866 25.4631C141.254 25.5956 141.607 25.8111 141.925 26.1094C142.243 26.4044 142.496 26.7955 142.685 27.2827C142.874 27.7699 142.969 28.3698 142.969 29.0824V29.5795H137.082V28.5653H141.776C141.776 28.1345 141.689 27.75 141.517 27.4119C141.348 27.0739 141.106 26.8071 140.791 26.6115C140.48 26.416 140.112 26.3182 139.688 26.3182C139.22 26.3182 138.816 26.4342 138.474 26.6662C138.136 26.8949 137.876 27.1932 137.694 27.5611C137.512 27.929 137.42 28.3234 137.42 28.7443V29.4205C137.42 29.9972 137.52 30.486 137.719 30.8871C137.921 31.2848 138.201 31.5881 138.559 31.7969C138.917 32.0024 139.333 32.1051 139.807 32.1051C140.115 32.1051 140.393 32.062 140.642 31.9759C140.894 31.8864 141.111 31.7538 141.293 31.5781C141.476 31.3991 141.616 31.1771 141.716 30.9119L142.849 31.2301C142.73 31.6146 142.53 31.9527 142.248 32.2443C141.966 32.5327 141.618 32.758 141.204 32.9205C140.79 33.0795 140.324 33.1591 139.807 33.1591ZM157.441 27.9091C157.441 28.983 157.247 29.911 156.859 30.6932C156.472 31.4754 155.94 32.0786 155.263 32.5028C154.587 32.9271 153.815 33.1392 152.947 33.1392C152.078 33.1392 151.306 32.9271 150.63 32.5028C149.954 32.0786 149.422 31.4754 149.034 30.6932C148.646 29.911 148.452 28.983 148.452 27.9091C148.452 26.8352 148.646 25.9072 149.034 25.125C149.422 24.3428 149.954 23.7396 150.63 23.3153C151.306 22.8911 152.078 22.679 152.947 22.679C153.815 22.679 154.587 22.8911 155.263 23.3153C155.94 23.7396 156.472 24.3428 156.859 25.125C157.247 25.9072 157.441 26.8352 157.441 27.9091ZM156.248 27.9091C156.248 27.0275 156.1 26.2834 155.805 25.6768C155.514 25.0703 155.118 24.6113 154.617 24.2997C154.12 23.9882 153.563 23.8324 152.947 23.8324C152.33 23.8324 151.772 23.9882 151.271 24.2997C150.774 24.6113 150.378 25.0703 150.083 25.6768C149.791 26.2834 149.646 27.0275 149.646 27.9091C149.646 28.7907 149.791 29.5348 150.083 30.1413C150.378 30.7479 150.774 31.2069 151.271 31.5185C151.772 31.83 152.33 31.9858 152.947 31.9858C153.563 31.9858 154.12 31.83 154.617 31.5185C155.118 31.2069 155.514 30.7479 155.805 30.1413C156.1 29.5348 156.248 28.7907 156.248 27.9091ZM162.756 25.3636V26.358H158.639V25.3636H162.756ZM159.872 33V24.3097C159.872 23.8722 159.975 23.5076 160.18 23.2159C160.386 22.9242 160.653 22.7055 160.981 22.5597C161.309 22.4138 161.655 22.3409 162.02 22.3409C162.308 22.3409 162.544 22.3641 162.726 22.4105C162.908 22.4569 163.044 22.5 163.134 22.5398L162.795 23.554C162.736 23.5341 162.653 23.5092 162.547 23.4794C162.444 23.4496 162.308 23.4347 162.139 23.4347C161.751 23.4347 161.471 23.5324 161.299 23.728C161.13 23.9235 161.045 24.2102 161.045 24.5881V33H159.872ZM167.801 25.3636V26.358H163.684V25.3636H167.801ZM164.917 33V24.3097C164.917 23.8722 165.02 23.5076 165.225 23.2159C165.431 22.9242 165.698 22.7055 166.026 22.5597C166.354 22.4138 166.7 22.3409 167.065 22.3409C167.353 22.3409 167.588 22.3641 167.771 22.4105C167.953 22.4569 168.089 22.5 168.178 22.5398L167.84 23.554C167.781 23.5341 167.698 23.5092 167.592 23.4794C167.489 23.4496 167.353 23.4347 167.184 23.4347C166.796 23.4347 166.516 23.5324 166.344 23.728C166.175 23.9235 166.09 24.2102 166.09 24.5881V33H164.917ZM172.332 33.1591C171.596 33.1591 170.962 32.9967 170.428 32.6719C169.898 32.3438 169.488 31.8864 169.2 31.2997C168.915 30.7098 168.773 30.0237 168.773 29.2415C168.773 28.4593 168.915 27.7699 169.2 27.1733C169.488 26.5734 169.89 26.1061 170.403 25.7713C170.92 25.4332 171.523 25.2642 172.213 25.2642C172.611 25.2642 173.003 25.3305 173.391 25.4631C173.779 25.5956 174.132 25.8111 174.45 26.1094C174.768 26.4044 175.022 26.7955 175.211 27.2827C175.4 27.7699 175.494 28.3698 175.494 29.0824V29.5795H169.608V28.5653H174.301C174.301 28.1345 174.215 27.75 174.042 27.4119C173.873 27.0739 173.631 26.8071 173.317 26.6115C173.005 26.416 172.637 26.3182 172.213 26.3182C171.746 26.3182 171.341 26.4342 171 26.6662C170.662 26.8949 170.402 27.1932 170.219 27.5611C170.037 27.929 169.946 28.3234 169.946 28.7443V29.4205C169.946 29.9972 170.045 30.486 170.244 30.8871C170.446 31.2848 170.726 31.5881 171.084 31.7969C171.442 32.0024 171.858 32.1051 172.332 32.1051C172.64 32.1051 172.919 32.062 173.167 31.9759C173.419 31.8864 173.636 31.7538 173.819 31.5781C174.001 31.3991 174.142 31.1771 174.241 30.9119L175.375 31.2301C175.256 31.6146 175.055 31.9527 174.773 32.2443C174.492 32.5327 174.144 32.758 173.729 32.9205C173.315 33.0795 172.849 33.1591 172.332 33.1591ZM177.279 33V25.3636H178.412V26.517H178.492C178.631 26.1392 178.883 25.8326 179.248 25.5973C179.612 25.362 180.023 25.2443 180.481 25.2443C180.567 25.2443 180.675 25.246 180.804 25.2493C180.933 25.2526 181.031 25.2576 181.097 25.2642V26.4574C181.057 26.4474 180.966 26.4325 180.824 26.4126C180.684 26.3894 180.537 26.3778 180.381 26.3778C180.01 26.3778 179.679 26.4557 179.387 26.6115C179.099 26.764 178.87 26.9761 178.701 27.2479C178.535 27.5163 178.452 27.8229 178.452 28.1676V33H177.279Z" fill="black"/>
</svg>
